<?xml version="1.0" encoding="UTF-8" standalone="no"?><svg xmlns="http://www.w3.org/2000/svg" xmlns:xlink="http://www.w3.org/1999/xlink" contentScriptType="application/ecmascript" contentStyleType="text/css" height="671px" preserveAspectRatio="none" style="width:469px;height:671px;" version="1.1" viewBox="0 0 469 671" width="469px" zoomAndPan="magnify"><defs><filter height="300%" id="f1m7zk5swfgyhx" width="300%" x="-1" y="-1"><feGaussianBlur result="blurOut" stdDeviation="2.0"/><feColorMatrix in="blurOut" result="blurOut2" type="matrix" values="0 0 0 0 0 0 0 0 0 0 0 0 0 0 0 0 0 0 .4 0"/><feOffset dx="4.0" dy="4.0" in="blurOut2" result="blurOut3"/><feBlend in="SourceGraphic" in2="blurOut3" mode="normal"/></filter></defs><g><rect fill="#FFFFFF" filter="url(#f1m7zk5swfgyhx)" height="548.2715" style="stroke: #000000; stroke-width: 2.0;" width="445" x="10" y="60.2295"/><rect fill="#FFFFFF" filter="url(#f1m7zk5swfgyhx)" height="168.4238" style="stroke: #000000; stroke-width: 2.0;" width="207.5" x="20" y="87.0854"/><rect fill="#FFFFFF" filter="url(#f1m7zk5swfgyhx)" height="91.7119" style="stroke: #000000; stroke-width: 2.0;" width="324" x="20" y="314.3652"/><rect fill="#FFFFFF" filter="url(#f1m7zk5swfgyhx)" height="91.7119" style="stroke: #000000; stroke-width: 2.0;" width="203" x="20" y="420.0771"/><line style="stroke: #A80036; stroke-width: 1.0; stroke-dasharray: 5.0,5.0;" x1="64" x2="64" y1="43.2295" y2="625.501"/><line style="stroke: #A80036; stroke-width: 1.0; stroke-dasharray: 5.0,5.0;" x1="192.5" x2="192.5" y1="43.2295" y2="625.501"/><line style="stroke: #A80036; stroke-width: 1.0; stroke-dasharray: 5.0,5.0;" x1="284.5" x2="284.5" y1="43.2295" y2="625.501"/><rect fill="#FEFECE" filter="url(#f1m7zk5swfgyhx)" height="33.2295" style="stroke: #A80036; stroke-width: 1.5;" width="65" x="30" y="5"/><text fill="#000000" font-family="sans-serif" font-size="14" lengthAdjust="spacingAndGlyphs" textLength="51" x="37" y="28.1533">MOBILE</text><rect fill="#FEFECE" filter="url(#f1m7zk5swfgyhx)" height="33.2295" style="stroke: #A80036; stroke-width: 1.5;" width="65" x="30" y="624.501"/><text fill="#000000" font-family="sans-serif" font-size="14" lengthAdjust="spacingAndGlyphs" textLength="51" x="37" y="647.6543">MOBILE</text><rect fill="#FEFECE" filter="url(#f1m7zk5swfgyhx)" height="33.2295" style="stroke: #A80036; stroke-width: 1.5;" width="46" x="167.5" y="5"/><text fill="#000000" font-family="sans-serif" font-size="14" lengthAdjust="spacingAndGlyphs" textLength="32" x="174.5" y="28.1533">actor</text><rect fill="#FEFECE" filter="url(#f1m7zk5swfgyhx)" height="33.2295" style="stroke: #A80036; stroke-width: 1.5;" width="46" x="167.5" y="624.501"/><text fill="#000000" font-family="sans-serif" font-size="14" lengthAdjust="spacingAndGlyphs" textLength="32" x="174.5" y="647.6543">actor</text><rect fill="#FEFECE" filter="url(#f1m7zk5swfgyhx)" height="33.2295" style="stroke: #A80036; stroke-width: 1.5;" width="110" x="227.5" y="5"/><text fill="#000000" font-family="sans-serif" font-size="14" lengthAdjust="spacingAndGlyphs" textLength="96" x="234.5" y="28.1533">EMAILSERVER</text><rect fill="#FEFECE" filter="url(#f1m7zk5swfgyhx)" height="33.2295" style="stroke: #A80036; stroke-width: 1.5;" width="110" x="227.5" y="624.501"/><text fill="#000000" font-family="sans-serif" font-size="14" lengthAdjust="spacingAndGlyphs" textLength="96" x="234.5" y="647.6543">EMAILSERVER</text><path d="M10,60.2295 L450,60.2295 L450,69.2295 L440,79.2295 L10,79.2295 L10,60.2295 " fill="#EEEEEE" style="stroke: #000000; stroke-width: 1.0;"/><rect fill="none" height="548.2715" style="stroke: #000000; stroke-width: 2.0;" width="445" x="10" y="60.2295"/><text fill="#000000" font-family="sans-serif" font-size="13" font-weight="bold" lengthAdjust="spacingAndGlyphs" textLength="395" x="25" y="76.229">UC-P2P-SEND-EMAIL "P2P / CORP, Sending e-mails on the go"</text><path d="M20,87.0854 L211,87.0854 L211,96.0854 L201,106.0854 L20,106.0854 L20,87.0854 " fill="#EEEEEE" style="stroke: #000000; stroke-width: 1.0;"/><rect fill="none" height="168.4238" style="stroke: #000000; stroke-width: 2.0;" width="207.5" x="20" y="87.0854"/><text fill="#000000" font-family="sans-serif" font-size="13" font-weight="bold" lengthAdjust="spacingAndGlyphs" textLength="146" x="35" y="103.085">completeComposition()</text><line style="stroke: #A80036; stroke-width: 1.0;" x1="64.5" x2="106.5" y1="130.7974" y2="130.7974"/><line style="stroke: #A80036; stroke-width: 1.0;" x1="106.5" x2="106.5" y1="130.7974" y2="143.7974"/><line style="stroke: #A80036; stroke-width: 1.0;" x1="65.5" x2="106.5" y1="143.7974" y2="143.7974"/><polygon fill="#A80036" points="75.5,139.7974,65.5,143.7974,75.5,147.7974,71.5,143.7974" style="stroke: #A80036; stroke-width: 1.0;"/><text fill="#000000" font-family="sans-serif" font-size="13" lengthAdjust="spacingAndGlyphs" textLength="54" x="71.5" y="125.9409">editMsg()</text><line style="stroke: #A80036; stroke-width: 1.0;" x1="64.5" x2="106.5" y1="175.6533" y2="175.6533"/><line style="stroke: #A80036; stroke-width: 1.0;" x1="106.5" x2="106.5" y1="175.6533" y2="188.6533"/><line style="stroke: #A80036; stroke-width: 1.0;" x1="65.5" x2="106.5" y1="188.6533" y2="188.6533"/><polygon fill="#A80036" points="75.5,184.6533,65.5,188.6533,75.5,192.6533,71.5,188.6533" style="stroke: #A80036; stroke-width: 1.0;"/><text fill="#000000" font-family="sans-serif" font-size="13" lengthAdjust="spacingAndGlyphs" textLength="114" x="71.5" y="170.7969">attachFile(file : File)</text><line style="stroke: #A80036; stroke-width: 1.0;" x1="64.5" x2="106.5" y1="220.5093" y2="220.5093"/><line style="stroke: #A80036; stroke-width: 1.0;" x1="106.5" x2="106.5" y1="220.5093" y2="233.5093"/><line style="stroke: #A80036; stroke-width: 1.0;" x1="65.5" x2="106.5" y1="233.5093" y2="233.5093"/><polygon fill="#A80036" points="75.5,229.5093,65.5,233.5093,75.5,237.5093,71.5,233.5093" style="stroke: #A80036; stroke-width: 1.0;"/><text fill="#000000" font-family="sans-serif" font-size="13" lengthAdjust="spacingAndGlyphs" textLength="42" x="71.5" y="215.6528">reEdit()</text><polygon fill="#A80036" points="180.5,243.5093,190.5,247.5093,180.5,251.5093,184.5,247.5093" style="stroke: #A80036; stroke-width: 1.0;"/><line style="stroke: #A80036; stroke-width: 1.0; stroke-dasharray: 2.0,2.0;" x1="64.5" x2="186.5" y1="247.5093" y2="247.5093"/><line style="stroke: #A80036; stroke-width: 1.0;" x1="284.5" x2="326.5" y1="286.3652" y2="286.3652"/><line style="stroke: #A80036; stroke-width: 1.0;" x1="326.5" x2="326.5" y1="286.3652" y2="299.3652"/><line style="stroke: #A80036; stroke-width: 1.0;" x1="285.5" x2="326.5" y1="299.3652" y2="299.3652"/><polygon fill="#A80036" points="295.5,295.3652,285.5,299.3652,295.5,303.3652,291.5,299.3652" style="stroke: #A80036; stroke-width: 1.0;"/><text fill="#000000" font-family="sans-serif" font-size="13" lengthAdjust="spacingAndGlyphs" textLength="141" x="291.5" y="281.5088">sendEmail(target : Addr)</text><path d="M20,314.3652 L339,314.3652 L339,323.3652 L329,333.3652 L20,333.3652 L20,314.3652 " fill="#EEEEEE" style="stroke: #000000; stroke-width: 1.0;"/><rect fill="none" height="91.7119" style="stroke: #000000; stroke-width: 2.0;" width="324" x="20" y="314.3652"/><text fill="#000000" font-family="sans-serif" font-size="13" font-weight="bold" lengthAdjust="spacingAndGlyphs" textLength="274" x="35" y="330.3647">"upLoadEmail(mail : EMail  , target : Addr)"</text><line style="stroke: #A80036; stroke-width: 1.0;" x1="64.5" x2="106.5" y1="358.0771" y2="358.0771"/><line style="stroke: #A80036; stroke-width: 1.0;" x1="106.5" x2="106.5" y1="358.0771" y2="371.0771"/><line style="stroke: #A80036; stroke-width: 1.0;" x1="65.5" x2="106.5" y1="371.0771" y2="371.0771"/><polygon fill="#A80036" points="75.5,367.0771,65.5,371.0771,75.5,375.0771,71.5,371.0771" style="stroke: #A80036; stroke-width: 1.0;"/><text fill="#000000" font-family="sans-serif" font-size="13" lengthAdjust="spacingAndGlyphs" textLength="111" x="71.5" y="353.2207">while(!connection())</text><line style="stroke: #A80036; stroke-width: 1.0; stroke-dasharray: 2.0,2.0;" x1="64.5" x2="106.5" y1="385.0771" y2="385.0771"/><line style="stroke: #A80036; stroke-width: 1.0; stroke-dasharray: 2.0,2.0;" x1="106.5" x2="106.5" y1="385.0771" y2="398.0771"/><line style="stroke: #A80036; stroke-width: 1.0; stroke-dasharray: 2.0,2.0;" x1="65.5" x2="106.5" y1="398.0771" y2="398.0771"/><polygon fill="#A80036" points="75.5,394.0771,65.5,398.0771,75.5,402.0771,71.5,398.0771" style="stroke: #A80036; stroke-width: 1.0;"/><path d="M20,420.0771 L218,420.0771 L218,429.0771 L208,439.0771 L20,439.0771 L20,420.0771 " fill="#EEEEEE" style="stroke: #000000; stroke-width: 1.0;"/><rect fill="none" height="91.7119" style="stroke: #000000; stroke-width: 2.0;" width="203" x="20" y="420.0771"/><text fill="#000000" font-family="sans-serif" font-size="13" font-weight="bold" lengthAdjust="spacingAndGlyphs" textLength="153" x="35" y="436.0767">sendEmail(target : Addr)</text><line style="stroke: #A80036; stroke-width: 1.0;" x1="64.5" x2="106.5" y1="463.7891" y2="463.7891"/><line style="stroke: #A80036; stroke-width: 1.0;" x1="106.5" x2="106.5" y1="463.7891" y2="476.7891"/><line style="stroke: #A80036; stroke-width: 1.0;" x1="65.5" x2="106.5" y1="476.7891" y2="476.7891"/><polygon fill="#A80036" points="75.5,472.7891,65.5,476.7891,75.5,480.7891,71.5,476.7891" style="stroke: #A80036; stroke-width: 1.0;"/><text fill="#000000" font-family="sans-serif" font-size="13" lengthAdjust="spacingAndGlyphs" textLength="103" x="71.5" y="458.9326">save(mail : EMail)</text><line style="stroke: #A80036; stroke-width: 1.0; stroke-dasharray: 2.0,2.0;" x1="64.5" x2="106.5" y1="490.7891" y2="490.7891"/><line style="stroke: #A80036; stroke-width: 1.0; stroke-dasharray: 2.0,2.0;" x1="106.5" x2="106.5" y1="490.7891" y2="503.7891"/><line style="stroke: #A80036; stroke-width: 1.0; stroke-dasharray: 2.0,2.0;" x1="65.5" x2="106.5" y1="503.7891" y2="503.7891"/><polygon fill="#A80036" points="75.5,499.7891,65.5,503.7891,75.5,507.7891,71.5,503.7891" style="stroke: #A80036; stroke-width: 1.0;"/><line style="stroke: #A80036; stroke-width: 1.0;" x1="64.5" x2="106.5" y1="542.645" y2="542.645"/><line style="stroke: #A80036; stroke-width: 1.0;" x1="106.5" x2="106.5" y1="542.645" y2="555.645"/><line style="stroke: #A80036; stroke-width: 1.0;" x1="65.5" x2="106.5" y1="555.645" y2="555.645"/><polygon fill="#A80036" points="75.5,551.645,65.5,555.645,75.5,559.645,71.5,555.645" style="stroke: #A80036; stroke-width: 1.0;"/><text fill="#000000" font-family="sans-serif" font-size="13" lengthAdjust="spacingAndGlyphs" textLength="103" x="71.5" y="537.7886">save(mail : EMail)</text><line style="stroke: #A80036; stroke-width: 1.0;" x1="284.5" x2="326.5" y1="587.501" y2="587.501"/><line style="stroke: #A80036; stroke-width: 1.0;" x1="326.5" x2="326.5" y1="587.501" y2="600.501"/><line style="stroke: #A80036; stroke-width: 1.0;" x1="285.5" x2="326.5" y1="600.501" y2="600.501"/><polygon fill="#A80036" points="295.5,596.501,285.5,600.501,295.5,604.501,291.5,600.501" style="stroke: #A80036; stroke-width: 1.0;"/><text fill="#000000" font-family="sans-serif" font-size="13" lengthAdjust="spacingAndGlyphs" textLength="128" x="291.5" y="582.6445">fiterEmail(mail : EMai)</text><!--MD5=[f6b03174de2c04e7e7806f0825ef8f5e]
@startuml
group UC-P2P-SEND-EMAIL "P2P / CORP, Sending e-mails on the go"
	group completeComposition()
		MOBILE->MOBILE : editMsg()
		MOBILE->MOBILE : attachFile(file : File)
		MOBILE->MOBILE : reEdit()
	MOBILE- ->actor : 
	end
	EMAILSERVER->EMAILSERVER : sendEmail(target : Addr)
	group "upLoadEmail(mail : EMail  , target : Addr)"
		MOBILE->MOBILE : while(!connection())
	MOBILE- ->MOBILE : 
	end
	group sendEmail(target : Addr)
		MOBILE->MOBILE : save(mail : EMail)
	MOBILE- ->MOBILE : 
	end
	MOBILE->MOBILE : save(mail : EMail)
	EMAILSERVER->EMAILSERVER : fiterEmail(mail : EMai)
end
@enduml

PlantUML version 1.2020.19(Tue Oct 13 00:10:01 KST 2020)
(APACHE source distribution)
Java Runtime: OpenJDK Runtime Environment
JVM: OpenJDK 64-Bit Server VM
Default Encoding: MS949
Language: ko
Country: KR
--></g></svg>