<?xml version="1.0" encoding="UTF-8" standalone="no"?><svg xmlns="http://www.w3.org/2000/svg" xmlns:xlink="http://www.w3.org/1999/xlink" contentScriptType="application/ecmascript" contentStyleType="text/css" height="514px" preserveAspectRatio="none" style="width:602px;height:514px;" version="1.1" viewBox="0 0 602 514" width="602px" zoomAndPan="magnify"><defs><filter height="300%" id="fq7p26syyfksg" width="300%" x="-1" y="-1"><feGaussianBlur result="blurOut" stdDeviation="2.0"/><feColorMatrix in="blurOut" result="blurOut2" type="matrix" values="0 0 0 0 0 0 0 0 0 0 0 0 0 0 0 0 0 0 .4 0"/><feOffset dx="4.0" dy="4.0" in="blurOut2" result="blurOut3"/><feBlend in="SourceGraphic" in2="blurOut3" mode="normal"/></filter></defs><g><!--MD5=[5f9cfca025c350d9187f4eae00f76362]
cluster Sys1--><rect fill="#FFFFFF" filter="url(#fq7p26syyfksg)" height="495" style="stroke: #000000; stroke-width: 1.5;" width="497" x="93" y="7"/><text fill="#000000" font-family="sans-serif" font-size="14" font-weight="bold" lengthAdjust="spacingAndGlyphs" textLength="94" x="294.5" y="25.1533">Game System</text><ellipse cx="242.665" cy="265.133" fill="#FEFECE" filter="url(#fq7p26syyfksg)" rx="133.665" ry="29.133" style="stroke: #A80036; stroke-width: 1.5;"/><text fill="#000000" font-family="sans-serif" font-size="14" lengthAdjust="spacingAndGlyphs" textLength="243" x="121.165" y="271.2477">gameSystem.GameSystem.gameEnd()</text><!--MD5=[5f3a13802cc03190706f5c316a92c9d9]
entity UC01_FL01--><ellipse cx="536" cy="411.5" fill="#FEFECE" filter="url(#fq7p26syyfksg)" rx="8" ry="8" style="stroke: #A80036; stroke-width: 1.5;"/><path d="M536,419.5 L536,446.5 M523,427.5 L549,427.5 M536,446.5 L523,461.5 M536,446.5 L549,461.5 " fill="none" filter="url(#fq7p26syyfksg)" style="stroke: #A80036; stroke-width: 1.5;"/><text fill="#000000" font-family="sans-serif" font-size="14" lengthAdjust="spacingAndGlyphs" textLength="76" x="498" y="483.1533">UC01_FL01</text><!--MD5=[17de3fea0f098903a996feb4041da59b]
entity UC01_FL02--><ellipse cx="536" cy="292.5" fill="#FEFECE" filter="url(#fq7p26syyfksg)" rx="8" ry="8" style="stroke: #A80036; stroke-width: 1.5;"/><path d="M536,300.5 L536,327.5 M523,308.5 L549,308.5 M536,327.5 L523,342.5 M536,327.5 L549,342.5 " fill="none" filter="url(#fq7p26syyfksg)" style="stroke: #A80036; stroke-width: 1.5;"/><text fill="#000000" font-family="sans-serif" font-size="14" lengthAdjust="spacingAndGlyphs" textLength="76" x="498" y="364.1533">UC01_FL02</text><!--MD5=[501d9c0dff06806f7ce4d86aff9c4408]
entity UC01_FL03--><ellipse cx="536" cy="173.5" fill="#FEFECE" filter="url(#fq7p26syyfksg)" rx="8" ry="8" style="stroke: #A80036; stroke-width: 1.5;"/><path d="M536,181.5 L536,208.5 M523,189.5 L549,189.5 M536,208.5 L523,223.5 M536,208.5 L549,223.5 " fill="none" filter="url(#fq7p26syyfksg)" style="stroke: #A80036; stroke-width: 1.5;"/><text fill="#000000" font-family="sans-serif" font-size="14" lengthAdjust="spacingAndGlyphs" textLength="76" x="498" y="245.1533">UC01_FL03</text><!--MD5=[15f06206558e18a3d856a8a86b9b7ab6]
entity UC01_FL04--><ellipse cx="536" cy="54.5" fill="#FEFECE" filter="url(#fq7p26syyfksg)" rx="8" ry="8" style="stroke: #A80036; stroke-width: 1.5;"/><path d="M536,62.5 L536,89.5 M523,70.5 L549,70.5 M536,89.5 L523,104.5 M536,89.5 L549,104.5 " fill="none" filter="url(#fq7p26syyfksg)" style="stroke: #A80036; stroke-width: 1.5;"/><text fill="#000000" font-family="sans-serif" font-size="14" lengthAdjust="spacingAndGlyphs" textLength="76" x="498" y="126.1533">UC01_FL04</text><ellipse cx="242.4975" cy="346.0973" fill="#FF0000" filter="url(#fq7p26syyfksg)" rx="52.4975" ry="16.5973" style="stroke: #A80036; stroke-width: 1.5;"/><text fill="#000000" font-family="sans-serif" font-size="14" lengthAdjust="spacingAndGlyphs" textLength="70" x="207.4975" y="352.2121">View Score</text><ellipse cx="242.3173" cy="415.1635" fill="#FF0000" filter="url(#fq7p26syyfksg)" rx="73.8173" ry="17.1635" style="stroke: #A80036; stroke-width: 1.5;"/><text fill="#000000" font-family="sans-serif" font-size="14" lengthAdjust="spacingAndGlyphs" textLength="104" x="190.3173" y="421.2782">Configure Game</text><!--MD5=[6d35a3f10fabd2e47fa2124ab77a3790]
entity ACTOR01--><ellipse cx="26" cy="313.5" fill="#FF0000" filter="url(#fq7p26syyfksg)" rx="8" ry="8" style="stroke: #A80036; stroke-width: 1.5;"/><path d="M26,321.5 L26,348.5 M13,329.5 L39,329.5 M26,348.5 L13,363.5 M26,348.5 L39,363.5 " fill="none" filter="url(#fq7p26syyfksg)" style="stroke: #A80036; stroke-width: 1.5;"/><text fill="#000000" font-family="sans-serif" font-size="14" lengthAdjust="spacingAndGlyphs" textLength="40" x="6" y="385.1533">Player</text><!--MD5=[7600dd2a4a801847f3244db1749bcf6e]
link UC01 to UC01_FL01--><path d="M323.78,288.05 C341.54,294.62 359.87,302.6 376,312 C391.25,320.88 392.52,326.62 406,338 C436.68,363.89 471.92,392.79 497.81,413.87 " fill="none" id="UC01-UC01_FL01" style="stroke: #A80036; stroke-width: 1.0;"/><text fill="#000000" font-family="sans-serif" font-size="13" lengthAdjust="spacingAndGlyphs" textLength="60" x="407" y="334.9995">implement</text><!--MD5=[1ddb1e08af6c76f549260bf71ce626b9]
link UC01 to UC01_FL02--><path d="M340.16,284.9 C394.19,296.02 458.4,309.23 497.93,317.37 " fill="none" id="UC01-UC01_FL02" style="stroke: #A80036; stroke-width: 1.0;"/><text fill="#000000" font-family="sans-serif" font-size="13" lengthAdjust="spacingAndGlyphs" textLength="60" x="407" y="295.9995">implement</text><!--MD5=[6075407065b697bf4275057aa57770df]
link UC01 to UC01_FL03--><path d="M340.97,245.27 C394.76,234.38 458.44,221.5 497.78,213.53 " fill="none" id="UC01-UC01_FL03" style="stroke: #A80036; stroke-width: 1.0;"/><text fill="#000000" font-family="sans-serif" font-size="13" lengthAdjust="spacingAndGlyphs" textLength="60" x="407" y="217.9995">implement</text><!--MD5=[f2d7b7008d3ba360fa06179f558ff45c]
link UC01 to UC01_FL04--><path d="M288.41,237.58 C345.9,202.47 444.46,142.29 497.91,109.65 " fill="none" id="UC01-UC01_FL04" style="stroke: #A80036; stroke-width: 1.0;"/><text fill="#000000" font-family="sans-serif" font-size="13" lengthAdjust="spacingAndGlyphs" textLength="60" x="407" y="127.9995">implement</text><!--MD5=[d7c58cdb2c76f4e2dfed1ba4a4eaf6c0]
link ACTOR01 to UC01--><path d="M46.25,333.15 C57.26,326.2 71.52,317.88 85,312 C107.11,302.37 131.79,293.95 154.89,287 " fill="none" id="ACTOR01-UC01" style="stroke: #A80036; stroke-width: 1.0;"/><!--MD5=[295d201d4e49fabf145f874b6a862c17]
link ACTOR01 to UC02--><path d="M46.04,346 C78.03,346 143.61,346 189.97,346 " fill="none" id="ACTOR01-UC02" style="stroke: #A80036; stroke-width: 1.0;"/><!--MD5=[57a8a145631bd1a0a7ecd1945f1ae74a]
link ACTOR01 to UC03--><path d="M46.09,359.23 C57.05,366.29 71.32,374.61 85,380 C115.31,391.93 150.6,400.27 179.99,405.81 " fill="none" id="ACTOR01-UC03" style="stroke: #A80036; stroke-width: 1.0;"/><!--MD5=[6206aef242abb7cd771c355091169eff]
@startuml
 left to right direction
	 actor "Player" as ACTOR01#red
rectangle "Game System" as Sys1{
	usecase "Play Game" as UC01 #red
		usecase "gameSystem.GameSystem.playGame(java.lang.String)" as UC01
			UC01- -UC01_FL01 : implement 
		usecase "gameSystem.GameSystem.diceSetting()" as UC01
			UC01- -UC01_FL02 : implement 
		usecase "gameSystem.GameSystem.main()" as UC01
			UC01- -UC01_FL03 : implement 
		usecase "gameSystem.GameSystem.gameEnd()" as UC01
			UC01- -UC01_FL04 : implement 
		ACTOR01- -UC01
	usecase "View Score" as UC02 #red
		ACTOR01- -UC02
	usecase "Configure Game" as UC03 #red
		ACTOR01- -UC03
}

@enduml@startuml

PlantUML version 1.2020.19(Tue Oct 13 00:10:01 KST 2020)
(APACHE source distribution)
Java Runtime: Java(TM) SE Runtime Environment
JVM: Java HotSpot(TM) 64-Bit Server VM
Default Encoding: MS949
Language: ko
Country: KR
--></g></svg>