<?xml version="1.0" encoding="UTF-8" standalone="no"?><svg xmlns="http://www.w3.org/2000/svg" xmlns:xlink="http://www.w3.org/1999/xlink" contentScriptType="application/ecmascript" contentStyleType="text/css" height="457px" preserveAspectRatio="none" style="width:126px;height:457px;" version="1.1" viewBox="0 0 126 457" width="126px" zoomAndPan="magnify"><defs><filter height="300%" id="f165ertixsdnbi" width="300%" x="-1" y="-1"><feGaussianBlur result="blurOut" stdDeviation="2.0"/><feColorMatrix in="blurOut" result="blurOut2" type="matrix" values="0 0 0 0 0 0 0 0 0 0 0 0 0 0 0 0 0 0 .4 0"/><feOffset dx="4.0" dy="4.0" in="blurOut2" result="blurOut3"/><feBlend in="SourceGraphic" in2="blurOut3" mode="normal"/></filter></defs><g><rect fill="#FFFFFF" filter="url(#f165ertixsdnbi)" height="333.8477" style="stroke: #000000; stroke-width: 2.0;" width="102" x="10" y="60.2295"/><line style="stroke: #A80036; stroke-width: 1.0; stroke-dasharray: 5.0,5.0;" x1="40" x2="40" y1="43.2295" y2="411.0771"/><rect fill="#FEFECE" filter="url(#f165ertixsdnbi)" height="33.2295" style="stroke: #A80036; stroke-width: 1.5;" width="36" x="20" y="5"/><text fill="#000000" font-family="sans-serif" font-size="14" lengthAdjust="spacingAndGlyphs" textLength="22" x="27" y="28.1533">null</text><rect fill="#FEFECE" filter="url(#f165ertixsdnbi)" height="33.2295" style="stroke: #A80036; stroke-width: 1.5;" width="36" x="20" y="410.0771"/><text fill="#000000" font-family="sans-serif" font-size="14" lengthAdjust="spacingAndGlyphs" textLength="22" x="27" y="433.2305">null</text><path d="M10,60.2295 L107,60.2295 L107,69.2295 L97,79.2295 L10,79.2295 L10,60.2295 " fill="#EEEEEE" style="stroke: #000000; stroke-width: 1.0;"/><rect fill="none" height="333.8477" style="stroke: #000000; stroke-width: 2.0;" width="102" x="10" y="60.2295"/><text fill="#000000" font-family="sans-serif" font-size="13" font-weight="bold" lengthAdjust="spacingAndGlyphs" textLength="52" x="25" y="76.229">null null</text><line style="stroke: #A80036; stroke-width: 1.0;" x1="40" x2="82" y1="103.9414" y2="103.9414"/><line style="stroke: #A80036; stroke-width: 1.0;" x1="82" x2="82" y1="103.9414" y2="116.9414"/><line style="stroke: #A80036; stroke-width: 1.0;" x1="41" x2="82" y1="116.9414" y2="116.9414"/><polygon fill="#A80036" points="51,112.9414,41,116.9414,51,120.9414,47,116.9414" style="stroke: #A80036; stroke-width: 1.0;"/><text fill="#000000" font-family="sans-serif" font-size="13" lengthAdjust="spacingAndGlyphs" textLength="37" x="47" y="99.085">flow1()</text><line style="stroke: #A80036; stroke-width: 1.0;" x1="40" x2="82" y1="148.7974" y2="148.7974"/><line style="stroke: #A80036; stroke-width: 1.0;" x1="82" x2="82" y1="148.7974" y2="161.7974"/><line style="stroke: #A80036; stroke-width: 1.0;" x1="41" x2="82" y1="161.7974" y2="161.7974"/><polygon fill="#A80036" points="51,157.7974,41,161.7974,51,165.7974,47,161.7974" style="stroke: #A80036; stroke-width: 1.0;"/><text fill="#000000" font-family="sans-serif" font-size="13" lengthAdjust="spacingAndGlyphs" textLength="37" x="47" y="143.9409">flow2()</text><line style="stroke: #A80036; stroke-width: 1.0;" x1="40" x2="82" y1="193.6533" y2="193.6533"/><line style="stroke: #A80036; stroke-width: 1.0;" x1="82" x2="82" y1="193.6533" y2="206.6533"/><line style="stroke: #A80036; stroke-width: 1.0;" x1="41" x2="82" y1="206.6533" y2="206.6533"/><polygon fill="#A80036" points="51,202.6533,41,206.6533,51,210.6533,47,206.6533" style="stroke: #A80036; stroke-width: 1.0;"/><text fill="#000000" font-family="sans-serif" font-size="13" lengthAdjust="spacingAndGlyphs" textLength="37" x="47" y="188.7969">flow3()</text><line style="stroke: #A80036; stroke-width: 1.0;" x1="40" x2="82" y1="238.5093" y2="238.5093"/><line style="stroke: #A80036; stroke-width: 1.0;" x1="82" x2="82" y1="238.5093" y2="251.5093"/><line style="stroke: #A80036; stroke-width: 1.0;" x1="41" x2="82" y1="251.5093" y2="251.5093"/><polygon fill="#A80036" points="51,247.5093,41,251.5093,51,255.5093,47,251.5093" style="stroke: #A80036; stroke-width: 1.0;"/><text fill="#000000" font-family="sans-serif" font-size="13" lengthAdjust="spacingAndGlyphs" textLength="37" x="47" y="233.6528">flow4()</text><line style="stroke: #A80036; stroke-width: 1.0;" x1="40" x2="82" y1="283.3652" y2="283.3652"/><line style="stroke: #A80036; stroke-width: 1.0;" x1="82" x2="82" y1="283.3652" y2="296.3652"/><line style="stroke: #A80036; stroke-width: 1.0;" x1="41" x2="82" y1="296.3652" y2="296.3652"/><polygon fill="#A80036" points="51,292.3652,41,296.3652,51,300.3652,47,296.3652" style="stroke: #A80036; stroke-width: 1.0;"/><text fill="#000000" font-family="sans-serif" font-size="13" lengthAdjust="spacingAndGlyphs" textLength="37" x="47" y="278.5088">flow5()</text><line style="stroke: #A80036; stroke-width: 1.0;" x1="40" x2="82" y1="328.2212" y2="328.2212"/><line style="stroke: #A80036; stroke-width: 1.0;" x1="82" x2="82" y1="328.2212" y2="341.2212"/><line style="stroke: #A80036; stroke-width: 1.0;" x1="41" x2="82" y1="341.2212" y2="341.2212"/><polygon fill="#A80036" points="51,337.2212,41,341.2212,51,345.2212,47,341.2212" style="stroke: #A80036; stroke-width: 1.0;"/><text fill="#000000" font-family="sans-serif" font-size="13" lengthAdjust="spacingAndGlyphs" textLength="37" x="47" y="323.3647">flow6()</text><line style="stroke: #A80036; stroke-width: 1.0;" x1="40" x2="82" y1="373.0771" y2="373.0771"/><line style="stroke: #A80036; stroke-width: 1.0;" x1="82" x2="82" y1="373.0771" y2="386.0771"/><line style="stroke: #A80036; stroke-width: 1.0;" x1="41" x2="82" y1="386.0771" y2="386.0771"/><polygon fill="#A80036" points="51,382.0771,41,386.0771,51,390.0771,47,386.0771" style="stroke: #A80036; stroke-width: 1.0;"/><text fill="#000000" font-family="sans-serif" font-size="13" lengthAdjust="spacingAndGlyphs" textLength="37" x="47" y="368.2207">flow7()</text><!--MD5=[985ad087cd7c72bd7cdaee3f920d274f]
@startuml
group null null
	null->null : flow1()
	null->null : flow2()
	null->null : flow3()
	null->null : flow4()
	null->null : flow5()
	null->null : flow6()
	null->null : flow7()
end
@enduml

PlantUML version 1.2020.19(Tue Oct 13 00:10:01 KST 2020)
(APACHE source distribution)
Java Runtime: OpenJDK Runtime Environment
JVM: OpenJDK 64-Bit Server VM
Default Encoding: MS949
Language: ko
Country: KR
--></g></svg>