<?xml version="1.0" encoding="UTF-8" standalone="no"?><svg xmlns="http://www.w3.org/2000/svg" xmlns:xlink="http://www.w3.org/1999/xlink" contentScriptType="application/ecmascript" contentStyleType="text/css" height="686px" preserveAspectRatio="none" style="width:411px;height:686px;" version="1.1" viewBox="0 0 411 686" width="411px" zoomAndPan="magnify"><defs><filter height="300%" id="fz0prrlv5845y" width="300%" x="-1" y="-1"><feGaussianBlur result="blurOut" stdDeviation="2.0"/><feColorMatrix in="blurOut" result="blurOut2" type="matrix" values="0 0 0 0 0 0 0 0 0 0 0 0 0 0 0 0 0 0 .4 0"/><feOffset dx="4.0" dy="4.0" in="blurOut2" result="blurOut3"/><feBlend in="SourceGraphic" in2="blurOut3" mode="normal"/></filter></defs><g><rect fill="#FFFFFF" filter="url(#fz0prrlv5845y)" height="536.1274" style="stroke: #000000; stroke-width: 2.0;" width="377" x="20" y="87.0854"/><rect fill="#FFFFFF" filter="url(#fz0prrlv5845y)" height="277.9917" style="stroke: #000000; stroke-width: 2.0;" width="357" x="30" y="248.5093"/><rect fill="#FFFFFF" filter="url(#fz0prrlv5845y)" height="199.2798" style="stroke: #000000; stroke-width: 2.0;" width="337" x="40" y="275.3652"/><line style="stroke: #A80036; stroke-width: 1.0; stroke-dasharray: 5.0,5.0;" x1="70" x2="70" y1="43.2295" y2="640.2129"/><rect fill="#FEFECE" filter="url(#fz0prrlv5845y)" height="33.2295" style="stroke: #A80036; stroke-width: 1.5;" width="36" x="50" y="5"/><text fill="#000000" font-family="sans-serif" font-size="14" lengthAdjust="spacingAndGlyphs" textLength="22" x="57" y="28.1533">null</text><rect fill="#FEFECE" filter="url(#fz0prrlv5845y)" height="33.2295" style="stroke: #A80036; stroke-width: 1.5;" width="36" x="50" y="639.2129"/><text fill="#000000" font-family="sans-serif" font-size="14" lengthAdjust="spacingAndGlyphs" textLength="22" x="57" y="662.3662">null</text><path d="M20,87.0854 L171,87.0854 L171,96.0854 L161,106.0854 L20,106.0854 L20,87.0854 " fill="#EEEEEE" style="stroke: #000000; stroke-width: 1.0;"/><rect fill="none" height="536.1274" style="stroke: #000000; stroke-width: 2.0;" width="377" x="20" y="87.0854"/><text fill="#000000" font-family="sans-serif" font-size="13" font-weight="bold" lengthAdjust="spacingAndGlyphs" textLength="106" x="35" y="103.085">check(argument)</text><line style="stroke: #A80036; stroke-width: 1.0;" x1="70" x2="112" y1="130.7974" y2="130.7974"/><line style="stroke: #A80036; stroke-width: 1.0;" x1="112" x2="112" y1="130.7974" y2="143.7974"/><line style="stroke: #A80036; stroke-width: 1.0;" x1="71" x2="112" y1="143.7974" y2="143.7974"/><polygon fill="#A80036" points="81,139.7974,71,143.7974,81,147.7974,77,143.7974" style="stroke: #A80036; stroke-width: 1.0;"/><text fill="#000000" font-family="sans-serif" font-size="13" lengthAdjust="spacingAndGlyphs" textLength="70" x="77" y="125.9409">readFile(file)</text><line style="stroke: #A80036; stroke-width: 1.0;" x1="70" x2="112" y1="175.6533" y2="175.6533"/><line style="stroke: #A80036; stroke-width: 1.0;" x1="112" x2="112" y1="175.6533" y2="188.6533"/><line style="stroke: #A80036; stroke-width: 1.0;" x1="71" x2="112" y1="188.6533" y2="188.6533"/><polygon fill="#A80036" points="81,184.6533,71,188.6533,81,192.6533,77,188.6533" style="stroke: #A80036; stroke-width: 1.0;"/><text fill="#000000" font-family="sans-serif" font-size="13" lengthAdjust="spacingAndGlyphs" textLength="67" x="77" y="170.7969">readName()</text><line style="stroke: #A80036; stroke-width: 1.0;" x1="70" x2="112" y1="220.5093" y2="220.5093"/><line style="stroke: #A80036; stroke-width: 1.0;" x1="112" x2="112" y1="220.5093" y2="233.5093"/><line style="stroke: #A80036; stroke-width: 1.0;" x1="71" x2="112" y1="233.5093" y2="233.5093"/><polygon fill="#A80036" points="81,229.5093,71,233.5093,81,237.5093,77,233.5093" style="stroke: #A80036; stroke-width: 1.0;"/><text fill="#000000" font-family="sans-serif" font-size="13" lengthAdjust="spacingAndGlyphs" textLength="75" x="77" y="215.6528">setStartTim()</text><path d="M30,248.5093 L122,248.5093 L122,257.5093 L112,267.5093 L30,267.5093 L30,248.5093 " fill="#EEEEEE" style="stroke: #000000; stroke-width: 1.0;"/><rect fill="none" height="277.9917" style="stroke: #000000; stroke-width: 2.0;" width="357" x="30" y="248.5093"/><text fill="#000000" font-family="sans-serif" font-size="13" font-weight="bold" lengthAdjust="spacingAndGlyphs" textLength="47" x="45" y="264.5088">typing()</text><path d="M40,275.3652 L180,275.3652 L180,284.3652 L170,294.3652 L40,294.3652 L40,275.3652 " fill="#EEEEEE" style="stroke: #000000; stroke-width: 1.0;"/><rect fill="none" height="199.2798" style="stroke: #000000; stroke-width: 2.0;" width="337" x="40" y="275.3652"/><text fill="#000000" font-family="sans-serif" font-size="13" font-weight="bold" lengthAdjust="spacingAndGlyphs" textLength="95" x="55" y="291.3647">while( not end)</text><line style="stroke: #A80036; stroke-width: 1.0;" x1="70" x2="112" y1="319.0771" y2="319.0771"/><line style="stroke: #A80036; stroke-width: 1.0;" x1="112" x2="112" y1="319.0771" y2="332.0771"/><line style="stroke: #A80036; stroke-width: 1.0;" x1="71" x2="112" y1="332.0771" y2="332.0771"/><polygon fill="#A80036" points="81,328.0771,71,332.0771,81,336.0771,77,332.0771" style="stroke: #A80036; stroke-width: 1.0;"/><text fill="#000000" font-family="sans-serif" font-size="13" lengthAdjust="spacingAndGlyphs" textLength="57" x="77" y="314.2207">typeLine()</text><line style="stroke: #A80036; stroke-width: 1.0;" x1="70" x2="112" y1="363.9331" y2="363.9331"/><line style="stroke: #A80036; stroke-width: 1.0;" x1="112" x2="112" y1="363.9331" y2="376.9331"/><line style="stroke: #A80036; stroke-width: 1.0;" x1="71" x2="112" y1="376.9331" y2="376.9331"/><polygon fill="#A80036" points="81,372.9331,71,376.9331,81,380.9331,77,376.9331" style="stroke: #A80036; stroke-width: 1.0;"/><text fill="#000000" font-family="sans-serif" font-size="13" lengthAdjust="spacingAndGlyphs" textLength="66" x="77" y="359.0767">checkAns()</text><line style="stroke: #A80036; stroke-width: 1.0;" x1="70" x2="112" y1="408.7891" y2="408.7891"/><line style="stroke: #A80036; stroke-width: 1.0;" x1="112" x2="112" y1="408.7891" y2="421.7891"/><line style="stroke: #A80036; stroke-width: 1.0;" x1="71" x2="112" y1="421.7891" y2="421.7891"/><polygon fill="#A80036" points="81,417.7891,71,421.7891,81,425.7891,77,421.7891" style="stroke: #A80036; stroke-width: 1.0;"/><text fill="#000000" font-family="sans-serif" font-size="13" lengthAdjust="spacingAndGlyphs" textLength="79" x="77" y="403.9326">findNextLine()</text><line style="stroke: #A80036; stroke-width: 1.0; stroke-dasharray: 2.0,2.0;" x1="70" x2="112" y1="453.645" y2="453.645"/><line style="stroke: #A80036; stroke-width: 1.0; stroke-dasharray: 2.0,2.0;" x1="112" x2="112" y1="453.645" y2="466.645"/><line style="stroke: #A80036; stroke-width: 1.0; stroke-dasharray: 2.0,2.0;" x1="71" x2="112" y1="466.645" y2="466.645"/><polygon fill="#A80036" points="81,462.645,71,466.645,81,470.645,77,466.645" style="stroke: #A80036; stroke-width: 1.0;"/><text fill="#000000" font-family="sans-serif" font-size="13" lengthAdjust="spacingAndGlyphs" textLength="288" x="77" y="448.7886">파일을 모두 다 타이핑했다면 다음 단계로 넘어감.</text><line style="stroke: #A80036; stroke-width: 1.0; stroke-dasharray: 2.0,2.0;" x1="70" x2="112" y1="505.501" y2="505.501"/><line style="stroke: #A80036; stroke-width: 1.0; stroke-dasharray: 2.0,2.0;" x1="112" x2="112" y1="505.501" y2="518.501"/><line style="stroke: #A80036; stroke-width: 1.0; stroke-dasharray: 2.0,2.0;" x1="71" x2="112" y1="518.501" y2="518.501"/><polygon fill="#A80036" points="81,514.501,71,518.501,81,522.501,77,518.501" style="stroke: #A80036; stroke-width: 1.0;"/><text fill="#000000" font-family="sans-serif" font-size="13" lengthAdjust="spacingAndGlyphs" textLength="82" x="77" y="500.6445">타이핑의 종료</text><line style="stroke: #A80036; stroke-width: 1.0;" x1="70" x2="112" y1="557.3569" y2="557.3569"/><line style="stroke: #A80036; stroke-width: 1.0;" x1="112" x2="112" y1="557.3569" y2="570.3569"/><line style="stroke: #A80036; stroke-width: 1.0;" x1="71" x2="112" y1="570.3569" y2="570.3569"/><polygon fill="#A80036" points="81,566.3569,71,570.3569,81,574.3569,77,570.3569" style="stroke: #A80036; stroke-width: 1.0;"/><text fill="#000000" font-family="sans-serif" font-size="13" lengthAdjust="spacingAndGlyphs" textLength="77" x="77" y="552.5005">setEndTime()</text><line style="stroke: #A80036; stroke-width: 1.0;" x1="70" x2="112" y1="602.2129" y2="602.2129"/><line style="stroke: #A80036; stroke-width: 1.0;" x1="112" x2="112" y1="602.2129" y2="615.2129"/><line style="stroke: #A80036; stroke-width: 1.0;" x1="71" x2="112" y1="615.2129" y2="615.2129"/><polygon fill="#A80036" points="81,611.2129,71,615.2129,81,619.2129,77,615.2129" style="stroke: #A80036; stroke-width: 1.0;"/><text fill="#000000" font-family="sans-serif" font-size="13" lengthAdjust="spacingAndGlyphs" textLength="133" x="77" y="597.3564">saveRecord(String line)</text><!--MD5=[82d72a276f021299c190fdfea070e1ca]
@startuml
group UC01 Typing Practice
	group check(argument)
	null->null : readFile(file)
	null->null : readName()
	null->null : setStartTim()
	group typing()
		group while( not end)
			null->null : typeLine()
			null->null : checkAns()
			null->null : findNextLine()
		null- ->null : 파일을 모두 다 타이핑했다면 다음 단계로 넘어감.
		end
	null- ->null : 타이핑의 종료
	end
	null->null : setEndTime()
	null->null : saveRecord(String line)
end
@enduml

PlantUML version 1.2020.19(Tue Oct 13 00:10:01 KST 2020)
(APACHE source distribution)
Java Runtime: OpenJDK Runtime Environment
JVM: OpenJDK 64-Bit Server VM
Default Encoding: MS949
Language: ko
Country: KR
--></g></svg>