<?xml version="1.0" encoding="UTF-8" standalone="no"?><svg xmlns="http://www.w3.org/2000/svg" xmlns:xlink="http://www.w3.org/1999/xlink" contentScriptType="application/ecmascript" contentStyleType="text/css" height="3240px" preserveAspectRatio="none" style="width:193px;height:3240px;" version="1.1" viewBox="0 0 193 3240" width="193px" zoomAndPan="magnify"><defs><filter height="300%" id="fvt6rjenesfxa" width="300%" x="-1" y="-1"><feGaussianBlur result="blurOut" stdDeviation="2.0"/><feColorMatrix in="blurOut" result="blurOut2" type="matrix" values="0 0 0 0 0 0 0 0 0 0 0 0 0 0 0 0 0 0 .4 0"/><feOffset dx="4.0" dy="4.0" in="blurOut2" result="blurOut3"/><feBlend in="SourceGraphic" in2="blurOut3" mode="normal"/></filter></defs><g><rect fill="#FFFFFF" filter="url(#fvt6rjenesfxa)" height="333.8477" style="stroke: #000000; stroke-width: 2.0;" width="169" x="10" y="60.2295"/><rect fill="#FFFFFF" filter="url(#fvt6rjenesfxa)" height="333.8477" style="stroke: #000000; stroke-width: 2.0;" width="155" x="10" y="408.0771"/><rect fill="#FFFFFF" filter="url(#fvt6rjenesfxa)" height="333.8477" style="stroke: #000000; stroke-width: 2.0;" width="155" x="10" y="755.9248"/><rect fill="#FFFFFF" filter="url(#fvt6rjenesfxa)" height="333.8477" style="stroke: #000000; stroke-width: 2.0;" width="155" x="10" y="1103.7725"/><rect fill="#FFFFFF" filter="url(#fvt6rjenesfxa)" height="333.8477" style="stroke: #000000; stroke-width: 2.0;" width="155" x="10" y="1451.6201"/><rect fill="#FFFFFF" filter="url(#fvt6rjenesfxa)" height="333.8477" style="stroke: #000000; stroke-width: 2.0;" width="155" x="10" y="1799.4678"/><rect fill="#FFFFFF" filter="url(#fvt6rjenesfxa)" height="333.8477" style="stroke: #000000; stroke-width: 2.0;" width="155" x="10" y="2147.3154"/><rect fill="#FFFFFF" filter="url(#fvt6rjenesfxa)" height="333.8477" style="stroke: #000000; stroke-width: 2.0;" width="155" x="10" y="2495.1631"/><rect fill="#FFFFFF" filter="url(#fvt6rjenesfxa)" height="333.8477" style="stroke: #000000; stroke-width: 2.0;" width="155" x="10" y="2843.0107"/><line style="stroke: #A80036; stroke-width: 1.0; stroke-dasharray: 5.0,5.0;" x1="40" x2="40" y1="43.2295" y2="3193.8584"/><rect fill="#FEFECE" filter="url(#fvt6rjenesfxa)" height="33.2295" style="stroke: #A80036; stroke-width: 1.5;" width="36" x="20" y="5"/><text fill="#000000" font-family="sans-serif" font-size="14" lengthAdjust="spacingAndGlyphs" textLength="22" x="27" y="28.1533">null</text><rect fill="#FEFECE" filter="url(#fvt6rjenesfxa)" height="33.2295" style="stroke: #A80036; stroke-width: 1.5;" width="36" x="20" y="3192.8584"/><text fill="#000000" font-family="sans-serif" font-size="14" lengthAdjust="spacingAndGlyphs" textLength="22" x="27" y="3216.0117">null</text><path d="M10,60.2295 L174,60.2295 L174,69.2295 L164,79.2295 L10,79.2295 L10,60.2295 " fill="#EEEEEE" style="stroke: #000000; stroke-width: 1.0;"/><rect fill="none" height="333.8477" style="stroke: #000000; stroke-width: 2.0;" width="169" x="10" y="60.2295"/><text fill="#000000" font-family="sans-serif" font-size="13" font-weight="bold" lengthAdjust="spacingAndGlyphs" textLength="119" x="25" y="76.229">UC-10 UC-10_name</text><line style="stroke: #A80036; stroke-width: 1.0;" x1="40" x2="82" y1="103.9414" y2="103.9414"/><line style="stroke: #A80036; stroke-width: 1.0;" x1="82" x2="82" y1="103.9414" y2="116.9414"/><line style="stroke: #A80036; stroke-width: 1.0;" x1="41" x2="82" y1="116.9414" y2="116.9414"/><polygon fill="#A80036" points="51,112.9414,41,116.9414,51,120.9414,47,116.9414" style="stroke: #A80036; stroke-width: 1.0;"/><text fill="#000000" font-family="sans-serif" font-size="13" lengthAdjust="spacingAndGlyphs" textLength="37" x="47" y="99.085">flow1()</text><line style="stroke: #A80036; stroke-width: 1.0;" x1="40" x2="82" y1="148.7974" y2="148.7974"/><line style="stroke: #A80036; stroke-width: 1.0;" x1="82" x2="82" y1="148.7974" y2="161.7974"/><line style="stroke: #A80036; stroke-width: 1.0;" x1="41" x2="82" y1="161.7974" y2="161.7974"/><polygon fill="#A80036" points="51,157.7974,41,161.7974,51,165.7974,47,161.7974" style="stroke: #A80036; stroke-width: 1.0;"/><text fill="#000000" font-family="sans-serif" font-size="13" lengthAdjust="spacingAndGlyphs" textLength="37" x="47" y="143.9409">flow2()</text><line style="stroke: #A80036; stroke-width: 1.0;" x1="40" x2="82" y1="193.6533" y2="193.6533"/><line style="stroke: #A80036; stroke-width: 1.0;" x1="82" x2="82" y1="193.6533" y2="206.6533"/><line style="stroke: #A80036; stroke-width: 1.0;" x1="41" x2="82" y1="206.6533" y2="206.6533"/><polygon fill="#A80036" points="51,202.6533,41,206.6533,51,210.6533,47,206.6533" style="stroke: #A80036; stroke-width: 1.0;"/><text fill="#000000" font-family="sans-serif" font-size="13" lengthAdjust="spacingAndGlyphs" textLength="37" x="47" y="188.7969">flow3()</text><line style="stroke: #A80036; stroke-width: 1.0;" x1="40" x2="82" y1="238.5093" y2="238.5093"/><line style="stroke: #A80036; stroke-width: 1.0;" x1="82" x2="82" y1="238.5093" y2="251.5093"/><line style="stroke: #A80036; stroke-width: 1.0;" x1="41" x2="82" y1="251.5093" y2="251.5093"/><polygon fill="#A80036" points="51,247.5093,41,251.5093,51,255.5093,47,251.5093" style="stroke: #A80036; stroke-width: 1.0;"/><text fill="#000000" font-family="sans-serif" font-size="13" lengthAdjust="spacingAndGlyphs" textLength="37" x="47" y="233.6528">flow4()</text><line style="stroke: #A80036; stroke-width: 1.0;" x1="40" x2="82" y1="283.3652" y2="283.3652"/><line style="stroke: #A80036; stroke-width: 1.0;" x1="82" x2="82" y1="283.3652" y2="296.3652"/><line style="stroke: #A80036; stroke-width: 1.0;" x1="41" x2="82" y1="296.3652" y2="296.3652"/><polygon fill="#A80036" points="51,292.3652,41,296.3652,51,300.3652,47,296.3652" style="stroke: #A80036; stroke-width: 1.0;"/><text fill="#000000" font-family="sans-serif" font-size="13" lengthAdjust="spacingAndGlyphs" textLength="37" x="47" y="278.5088">flow5()</text><line style="stroke: #A80036; stroke-width: 1.0;" x1="40" x2="82" y1="328.2212" y2="328.2212"/><line style="stroke: #A80036; stroke-width: 1.0;" x1="82" x2="82" y1="328.2212" y2="341.2212"/><line style="stroke: #A80036; stroke-width: 1.0;" x1="41" x2="82" y1="341.2212" y2="341.2212"/><polygon fill="#A80036" points="51,337.2212,41,341.2212,51,345.2212,47,341.2212" style="stroke: #A80036; stroke-width: 1.0;"/><text fill="#000000" font-family="sans-serif" font-size="13" lengthAdjust="spacingAndGlyphs" textLength="37" x="47" y="323.3647">flow6()</text><line style="stroke: #A80036; stroke-width: 1.0;" x1="40" x2="82" y1="373.0771" y2="373.0771"/><line style="stroke: #A80036; stroke-width: 1.0;" x1="82" x2="82" y1="373.0771" y2="386.0771"/><line style="stroke: #A80036; stroke-width: 1.0;" x1="41" x2="82" y1="386.0771" y2="386.0771"/><polygon fill="#A80036" points="51,382.0771,41,386.0771,51,390.0771,47,386.0771" style="stroke: #A80036; stroke-width: 1.0;"/><text fill="#000000" font-family="sans-serif" font-size="13" lengthAdjust="spacingAndGlyphs" textLength="37" x="47" y="368.2207">flow7()</text><path d="M10,408.0771 L160,408.0771 L160,417.0771 L150,427.0771 L10,427.0771 L10,408.0771 " fill="#EEEEEE" style="stroke: #000000; stroke-width: 1.0;"/><rect fill="none" height="333.8477" style="stroke: #000000; stroke-width: 2.0;" width="155" x="10" y="408.0771"/><text fill="#000000" font-family="sans-serif" font-size="13" font-weight="bold" lengthAdjust="spacingAndGlyphs" textLength="105" x="25" y="424.0767">UC-2 UC-2_name</text><line style="stroke: #A80036; stroke-width: 1.0;" x1="40" x2="82" y1="451.7891" y2="451.7891"/><line style="stroke: #A80036; stroke-width: 1.0;" x1="82" x2="82" y1="451.7891" y2="464.7891"/><line style="stroke: #A80036; stroke-width: 1.0;" x1="41" x2="82" y1="464.7891" y2="464.7891"/><polygon fill="#A80036" points="51,460.7891,41,464.7891,51,468.7891,47,464.7891" style="stroke: #A80036; stroke-width: 1.0;"/><text fill="#000000" font-family="sans-serif" font-size="13" lengthAdjust="spacingAndGlyphs" textLength="37" x="47" y="446.9326">flow1()</text><line style="stroke: #A80036; stroke-width: 1.0;" x1="40" x2="82" y1="496.645" y2="496.645"/><line style="stroke: #A80036; stroke-width: 1.0;" x1="82" x2="82" y1="496.645" y2="509.645"/><line style="stroke: #A80036; stroke-width: 1.0;" x1="41" x2="82" y1="509.645" y2="509.645"/><polygon fill="#A80036" points="51,505.645,41,509.645,51,513.645,47,509.645" style="stroke: #A80036; stroke-width: 1.0;"/><text fill="#000000" font-family="sans-serif" font-size="13" lengthAdjust="spacingAndGlyphs" textLength="37" x="47" y="491.7886">flow2()</text><line style="stroke: #A80036; stroke-width: 1.0;" x1="40" x2="82" y1="541.501" y2="541.501"/><line style="stroke: #A80036; stroke-width: 1.0;" x1="82" x2="82" y1="541.501" y2="554.501"/><line style="stroke: #A80036; stroke-width: 1.0;" x1="41" x2="82" y1="554.501" y2="554.501"/><polygon fill="#A80036" points="51,550.501,41,554.501,51,558.501,47,554.501" style="stroke: #A80036; stroke-width: 1.0;"/><text fill="#000000" font-family="sans-serif" font-size="13" lengthAdjust="spacingAndGlyphs" textLength="37" x="47" y="536.6445">flow3()</text><line style="stroke: #A80036; stroke-width: 1.0;" x1="40" x2="82" y1="586.3569" y2="586.3569"/><line style="stroke: #A80036; stroke-width: 1.0;" x1="82" x2="82" y1="586.3569" y2="599.3569"/><line style="stroke: #A80036; stroke-width: 1.0;" x1="41" x2="82" y1="599.3569" y2="599.3569"/><polygon fill="#A80036" points="51,595.3569,41,599.3569,51,603.3569,47,599.3569" style="stroke: #A80036; stroke-width: 1.0;"/><text fill="#000000" font-family="sans-serif" font-size="13" lengthAdjust="spacingAndGlyphs" textLength="37" x="47" y="581.5005">flow4()</text><line style="stroke: #A80036; stroke-width: 1.0;" x1="40" x2="82" y1="631.2129" y2="631.2129"/><line style="stroke: #A80036; stroke-width: 1.0;" x1="82" x2="82" y1="631.2129" y2="644.2129"/><line style="stroke: #A80036; stroke-width: 1.0;" x1="41" x2="82" y1="644.2129" y2="644.2129"/><polygon fill="#A80036" points="51,640.2129,41,644.2129,51,648.2129,47,644.2129" style="stroke: #A80036; stroke-width: 1.0;"/><text fill="#000000" font-family="sans-serif" font-size="13" lengthAdjust="spacingAndGlyphs" textLength="37" x="47" y="626.3564">flow5()</text><line style="stroke: #A80036; stroke-width: 1.0;" x1="40" x2="82" y1="676.0688" y2="676.0688"/><line style="stroke: #A80036; stroke-width: 1.0;" x1="82" x2="82" y1="676.0688" y2="689.0688"/><line style="stroke: #A80036; stroke-width: 1.0;" x1="41" x2="82" y1="689.0688" y2="689.0688"/><polygon fill="#A80036" points="51,685.0688,41,689.0688,51,693.0688,47,689.0688" style="stroke: #A80036; stroke-width: 1.0;"/><text fill="#000000" font-family="sans-serif" font-size="13" lengthAdjust="spacingAndGlyphs" textLength="37" x="47" y="671.2124">flow6()</text><line style="stroke: #A80036; stroke-width: 1.0;" x1="40" x2="82" y1="720.9248" y2="720.9248"/><line style="stroke: #A80036; stroke-width: 1.0;" x1="82" x2="82" y1="720.9248" y2="733.9248"/><line style="stroke: #A80036; stroke-width: 1.0;" x1="41" x2="82" y1="733.9248" y2="733.9248"/><polygon fill="#A80036" points="51,729.9248,41,733.9248,51,737.9248,47,733.9248" style="stroke: #A80036; stroke-width: 1.0;"/><text fill="#000000" font-family="sans-serif" font-size="13" lengthAdjust="spacingAndGlyphs" textLength="37" x="47" y="716.0684">flow7()</text><path d="M10,755.9248 L160,755.9248 L160,764.9248 L150,774.9248 L10,774.9248 L10,755.9248 " fill="#EEEEEE" style="stroke: #000000; stroke-width: 1.0;"/><rect fill="none" height="333.8477" style="stroke: #000000; stroke-width: 2.0;" width="155" x="10" y="755.9248"/><text fill="#000000" font-family="sans-serif" font-size="13" font-weight="bold" lengthAdjust="spacingAndGlyphs" textLength="105" x="25" y="771.9243">UC-3 UC-3_name</text><line style="stroke: #A80036; stroke-width: 1.0;" x1="40" x2="82" y1="799.6367" y2="799.6367"/><line style="stroke: #A80036; stroke-width: 1.0;" x1="82" x2="82" y1="799.6367" y2="812.6367"/><line style="stroke: #A80036; stroke-width: 1.0;" x1="41" x2="82" y1="812.6367" y2="812.6367"/><polygon fill="#A80036" points="51,808.6367,41,812.6367,51,816.6367,47,812.6367" style="stroke: #A80036; stroke-width: 1.0;"/><text fill="#000000" font-family="sans-serif" font-size="13" lengthAdjust="spacingAndGlyphs" textLength="37" x="47" y="794.7803">flow1()</text><line style="stroke: #A80036; stroke-width: 1.0;" x1="40" x2="82" y1="844.4927" y2="844.4927"/><line style="stroke: #A80036; stroke-width: 1.0;" x1="82" x2="82" y1="844.4927" y2="857.4927"/><line style="stroke: #A80036; stroke-width: 1.0;" x1="41" x2="82" y1="857.4927" y2="857.4927"/><polygon fill="#A80036" points="51,853.4927,41,857.4927,51,861.4927,47,857.4927" style="stroke: #A80036; stroke-width: 1.0;"/><text fill="#000000" font-family="sans-serif" font-size="13" lengthAdjust="spacingAndGlyphs" textLength="37" x="47" y="839.6362">flow2()</text><line style="stroke: #A80036; stroke-width: 1.0;" x1="40" x2="82" y1="889.3486" y2="889.3486"/><line style="stroke: #A80036; stroke-width: 1.0;" x1="82" x2="82" y1="889.3486" y2="902.3486"/><line style="stroke: #A80036; stroke-width: 1.0;" x1="41" x2="82" y1="902.3486" y2="902.3486"/><polygon fill="#A80036" points="51,898.3486,41,902.3486,51,906.3486,47,902.3486" style="stroke: #A80036; stroke-width: 1.0;"/><text fill="#000000" font-family="sans-serif" font-size="13" lengthAdjust="spacingAndGlyphs" textLength="37" x="47" y="884.4922">flow3()</text><line style="stroke: #A80036; stroke-width: 1.0;" x1="40" x2="82" y1="934.2046" y2="934.2046"/><line style="stroke: #A80036; stroke-width: 1.0;" x1="82" x2="82" y1="934.2046" y2="947.2046"/><line style="stroke: #A80036; stroke-width: 1.0;" x1="41" x2="82" y1="947.2046" y2="947.2046"/><polygon fill="#A80036" points="51,943.2046,41,947.2046,51,951.2046,47,947.2046" style="stroke: #A80036; stroke-width: 1.0;"/><text fill="#000000" font-family="sans-serif" font-size="13" lengthAdjust="spacingAndGlyphs" textLength="37" x="47" y="929.3481">flow4()</text><line style="stroke: #A80036; stroke-width: 1.0;" x1="40" x2="82" y1="979.0605" y2="979.0605"/><line style="stroke: #A80036; stroke-width: 1.0;" x1="82" x2="82" y1="979.0605" y2="992.0605"/><line style="stroke: #A80036; stroke-width: 1.0;" x1="41" x2="82" y1="992.0605" y2="992.0605"/><polygon fill="#A80036" points="51,988.0605,41,992.0605,51,996.0605,47,992.0605" style="stroke: #A80036; stroke-width: 1.0;"/><text fill="#000000" font-family="sans-serif" font-size="13" lengthAdjust="spacingAndGlyphs" textLength="37" x="47" y="974.2041">flow5()</text><line style="stroke: #A80036; stroke-width: 1.0;" x1="40" x2="82" y1="1023.9165" y2="1023.9165"/><line style="stroke: #A80036; stroke-width: 1.0;" x1="82" x2="82" y1="1023.9165" y2="1036.9165"/><line style="stroke: #A80036; stroke-width: 1.0;" x1="41" x2="82" y1="1036.9165" y2="1036.9165"/><polygon fill="#A80036" points="51,1032.9165,41,1036.9165,51,1040.9165,47,1036.9165" style="stroke: #A80036; stroke-width: 1.0;"/><text fill="#000000" font-family="sans-serif" font-size="13" lengthAdjust="spacingAndGlyphs" textLength="37" x="47" y="1019.0601">flow6()</text><line style="stroke: #A80036; stroke-width: 1.0;" x1="40" x2="82" y1="1068.7725" y2="1068.7725"/><line style="stroke: #A80036; stroke-width: 1.0;" x1="82" x2="82" y1="1068.7725" y2="1081.7725"/><line style="stroke: #A80036; stroke-width: 1.0;" x1="41" x2="82" y1="1081.7725" y2="1081.7725"/><polygon fill="#A80036" points="51,1077.7725,41,1081.7725,51,1085.7725,47,1081.7725" style="stroke: #A80036; stroke-width: 1.0;"/><text fill="#000000" font-family="sans-serif" font-size="13" lengthAdjust="spacingAndGlyphs" textLength="37" x="47" y="1063.916">flow7()</text><path d="M10,1103.7725 L160,1103.7725 L160,1112.7725 L150,1122.7725 L10,1122.7725 L10,1103.7725 " fill="#EEEEEE" style="stroke: #000000; stroke-width: 1.0;"/><rect fill="none" height="333.8477" style="stroke: #000000; stroke-width: 2.0;" width="155" x="10" y="1103.7725"/><text fill="#000000" font-family="sans-serif" font-size="13" font-weight="bold" lengthAdjust="spacingAndGlyphs" textLength="105" x="25" y="1119.772">UC-4 UC-4_name</text><line style="stroke: #A80036; stroke-width: 1.0;" x1="40" x2="82" y1="1147.4844" y2="1147.4844"/><line style="stroke: #A80036; stroke-width: 1.0;" x1="82" x2="82" y1="1147.4844" y2="1160.4844"/><line style="stroke: #A80036; stroke-width: 1.0;" x1="41" x2="82" y1="1160.4844" y2="1160.4844"/><polygon fill="#A80036" points="51,1156.4844,41,1160.4844,51,1164.4844,47,1160.4844" style="stroke: #A80036; stroke-width: 1.0;"/><text fill="#000000" font-family="sans-serif" font-size="13" lengthAdjust="spacingAndGlyphs" textLength="37" x="47" y="1142.6279">flow1()</text><line style="stroke: #A80036; stroke-width: 1.0;" x1="40" x2="82" y1="1192.3403" y2="1192.3403"/><line style="stroke: #A80036; stroke-width: 1.0;" x1="82" x2="82" y1="1192.3403" y2="1205.3403"/><line style="stroke: #A80036; stroke-width: 1.0;" x1="41" x2="82" y1="1205.3403" y2="1205.3403"/><polygon fill="#A80036" points="51,1201.3403,41,1205.3403,51,1209.3403,47,1205.3403" style="stroke: #A80036; stroke-width: 1.0;"/><text fill="#000000" font-family="sans-serif" font-size="13" lengthAdjust="spacingAndGlyphs" textLength="37" x="47" y="1187.4839">flow2()</text><line style="stroke: #A80036; stroke-width: 1.0;" x1="40" x2="82" y1="1237.1963" y2="1237.1963"/><line style="stroke: #A80036; stroke-width: 1.0;" x1="82" x2="82" y1="1237.1963" y2="1250.1963"/><line style="stroke: #A80036; stroke-width: 1.0;" x1="41" x2="82" y1="1250.1963" y2="1250.1963"/><polygon fill="#A80036" points="51,1246.1963,41,1250.1963,51,1254.1963,47,1250.1963" style="stroke: #A80036; stroke-width: 1.0;"/><text fill="#000000" font-family="sans-serif" font-size="13" lengthAdjust="spacingAndGlyphs" textLength="37" x="47" y="1232.3398">flow3()</text><line style="stroke: #A80036; stroke-width: 1.0;" x1="40" x2="82" y1="1282.0522" y2="1282.0522"/><line style="stroke: #A80036; stroke-width: 1.0;" x1="82" x2="82" y1="1282.0522" y2="1295.0522"/><line style="stroke: #A80036; stroke-width: 1.0;" x1="41" x2="82" y1="1295.0522" y2="1295.0522"/><polygon fill="#A80036" points="51,1291.0522,41,1295.0522,51,1299.0522,47,1295.0522" style="stroke: #A80036; stroke-width: 1.0;"/><text fill="#000000" font-family="sans-serif" font-size="13" lengthAdjust="spacingAndGlyphs" textLength="37" x="47" y="1277.1958">flow4()</text><line style="stroke: #A80036; stroke-width: 1.0;" x1="40" x2="82" y1="1326.9082" y2="1326.9082"/><line style="stroke: #A80036; stroke-width: 1.0;" x1="82" x2="82" y1="1326.9082" y2="1339.9082"/><line style="stroke: #A80036; stroke-width: 1.0;" x1="41" x2="82" y1="1339.9082" y2="1339.9082"/><polygon fill="#A80036" points="51,1335.9082,41,1339.9082,51,1343.9082,47,1339.9082" style="stroke: #A80036; stroke-width: 1.0;"/><text fill="#000000" font-family="sans-serif" font-size="13" lengthAdjust="spacingAndGlyphs" textLength="37" x="47" y="1322.0518">flow5()</text><line style="stroke: #A80036; stroke-width: 1.0;" x1="40" x2="82" y1="1371.7642" y2="1371.7642"/><line style="stroke: #A80036; stroke-width: 1.0;" x1="82" x2="82" y1="1371.7642" y2="1384.7642"/><line style="stroke: #A80036; stroke-width: 1.0;" x1="41" x2="82" y1="1384.7642" y2="1384.7642"/><polygon fill="#A80036" points="51,1380.7642,41,1384.7642,51,1388.7642,47,1384.7642" style="stroke: #A80036; stroke-width: 1.0;"/><text fill="#000000" font-family="sans-serif" font-size="13" lengthAdjust="spacingAndGlyphs" textLength="37" x="47" y="1366.9077">flow6()</text><line style="stroke: #A80036; stroke-width: 1.0;" x1="40" x2="82" y1="1416.6201" y2="1416.6201"/><line style="stroke: #A80036; stroke-width: 1.0;" x1="82" x2="82" y1="1416.6201" y2="1429.6201"/><line style="stroke: #A80036; stroke-width: 1.0;" x1="41" x2="82" y1="1429.6201" y2="1429.6201"/><polygon fill="#A80036" points="51,1425.6201,41,1429.6201,51,1433.6201,47,1429.6201" style="stroke: #A80036; stroke-width: 1.0;"/><text fill="#000000" font-family="sans-serif" font-size="13" lengthAdjust="spacingAndGlyphs" textLength="37" x="47" y="1411.7637">flow7()</text><path d="M10,1451.6201 L160,1451.6201 L160,1460.6201 L150,1470.6201 L10,1470.6201 L10,1451.6201 " fill="#EEEEEE" style="stroke: #000000; stroke-width: 1.0;"/><rect fill="none" height="333.8477" style="stroke: #000000; stroke-width: 2.0;" width="155" x="10" y="1451.6201"/><text fill="#000000" font-family="sans-serif" font-size="13" font-weight="bold" lengthAdjust="spacingAndGlyphs" textLength="105" x="25" y="1467.6196">UC-5 UC-5_name</text><line style="stroke: #A80036; stroke-width: 1.0;" x1="40" x2="82" y1="1495.332" y2="1495.332"/><line style="stroke: #A80036; stroke-width: 1.0;" x1="82" x2="82" y1="1495.332" y2="1508.332"/><line style="stroke: #A80036; stroke-width: 1.0;" x1="41" x2="82" y1="1508.332" y2="1508.332"/><polygon fill="#A80036" points="51,1504.332,41,1508.332,51,1512.332,47,1508.332" style="stroke: #A80036; stroke-width: 1.0;"/><text fill="#000000" font-family="sans-serif" font-size="13" lengthAdjust="spacingAndGlyphs" textLength="37" x="47" y="1490.4756">flow1()</text><line style="stroke: #A80036; stroke-width: 1.0;" x1="40" x2="82" y1="1540.188" y2="1540.188"/><line style="stroke: #A80036; stroke-width: 1.0;" x1="82" x2="82" y1="1540.188" y2="1553.188"/><line style="stroke: #A80036; stroke-width: 1.0;" x1="41" x2="82" y1="1553.188" y2="1553.188"/><polygon fill="#A80036" points="51,1549.188,41,1553.188,51,1557.188,47,1553.188" style="stroke: #A80036; stroke-width: 1.0;"/><text fill="#000000" font-family="sans-serif" font-size="13" lengthAdjust="spacingAndGlyphs" textLength="37" x="47" y="1535.3315">flow2()</text><line style="stroke: #A80036; stroke-width: 1.0;" x1="40" x2="82" y1="1585.0439" y2="1585.0439"/><line style="stroke: #A80036; stroke-width: 1.0;" x1="82" x2="82" y1="1585.0439" y2="1598.0439"/><line style="stroke: #A80036; stroke-width: 1.0;" x1="41" x2="82" y1="1598.0439" y2="1598.0439"/><polygon fill="#A80036" points="51,1594.0439,41,1598.0439,51,1602.0439,47,1598.0439" style="stroke: #A80036; stroke-width: 1.0;"/><text fill="#000000" font-family="sans-serif" font-size="13" lengthAdjust="spacingAndGlyphs" textLength="37" x="47" y="1580.1875">flow3()</text><line style="stroke: #A80036; stroke-width: 1.0;" x1="40" x2="82" y1="1629.8999" y2="1629.8999"/><line style="stroke: #A80036; stroke-width: 1.0;" x1="82" x2="82" y1="1629.8999" y2="1642.8999"/><line style="stroke: #A80036; stroke-width: 1.0;" x1="41" x2="82" y1="1642.8999" y2="1642.8999"/><polygon fill="#A80036" points="51,1638.8999,41,1642.8999,51,1646.8999,47,1642.8999" style="stroke: #A80036; stroke-width: 1.0;"/><text fill="#000000" font-family="sans-serif" font-size="13" lengthAdjust="spacingAndGlyphs" textLength="37" x="47" y="1625.0435">flow4()</text><line style="stroke: #A80036; stroke-width: 1.0;" x1="40" x2="82" y1="1674.7559" y2="1674.7559"/><line style="stroke: #A80036; stroke-width: 1.0;" x1="82" x2="82" y1="1674.7559" y2="1687.7559"/><line style="stroke: #A80036; stroke-width: 1.0;" x1="41" x2="82" y1="1687.7559" y2="1687.7559"/><polygon fill="#A80036" points="51,1683.7559,41,1687.7559,51,1691.7559,47,1687.7559" style="stroke: #A80036; stroke-width: 1.0;"/><text fill="#000000" font-family="sans-serif" font-size="13" lengthAdjust="spacingAndGlyphs" textLength="37" x="47" y="1669.8994">flow5()</text><line style="stroke: #A80036; stroke-width: 1.0;" x1="40" x2="82" y1="1719.6118" y2="1719.6118"/><line style="stroke: #A80036; stroke-width: 1.0;" x1="82" x2="82" y1="1719.6118" y2="1732.6118"/><line style="stroke: #A80036; stroke-width: 1.0;" x1="41" x2="82" y1="1732.6118" y2="1732.6118"/><polygon fill="#A80036" points="51,1728.6118,41,1732.6118,51,1736.6118,47,1732.6118" style="stroke: #A80036; stroke-width: 1.0;"/><text fill="#000000" font-family="sans-serif" font-size="13" lengthAdjust="spacingAndGlyphs" textLength="37" x="47" y="1714.7554">flow6()</text><line style="stroke: #A80036; stroke-width: 1.0;" x1="40" x2="82" y1="1764.4678" y2="1764.4678"/><line style="stroke: #A80036; stroke-width: 1.0;" x1="82" x2="82" y1="1764.4678" y2="1777.4678"/><line style="stroke: #A80036; stroke-width: 1.0;" x1="41" x2="82" y1="1777.4678" y2="1777.4678"/><polygon fill="#A80036" points="51,1773.4678,41,1777.4678,51,1781.4678,47,1777.4678" style="stroke: #A80036; stroke-width: 1.0;"/><text fill="#000000" font-family="sans-serif" font-size="13" lengthAdjust="spacingAndGlyphs" textLength="37" x="47" y="1759.6113">flow7()</text><path d="M10,1799.4678 L160,1799.4678 L160,1808.4678 L150,1818.4678 L10,1818.4678 L10,1799.4678 " fill="#EEEEEE" style="stroke: #000000; stroke-width: 1.0;"/><rect fill="none" height="333.8477" style="stroke: #000000; stroke-width: 2.0;" width="155" x="10" y="1799.4678"/><text fill="#000000" font-family="sans-serif" font-size="13" font-weight="bold" lengthAdjust="spacingAndGlyphs" textLength="105" x="25" y="1815.4673">UC-6 UC-6_name</text><line style="stroke: #A80036; stroke-width: 1.0;" x1="40" x2="82" y1="1843.1797" y2="1843.1797"/><line style="stroke: #A80036; stroke-width: 1.0;" x1="82" x2="82" y1="1843.1797" y2="1856.1797"/><line style="stroke: #A80036; stroke-width: 1.0;" x1="41" x2="82" y1="1856.1797" y2="1856.1797"/><polygon fill="#A80036" points="51,1852.1797,41,1856.1797,51,1860.1797,47,1856.1797" style="stroke: #A80036; stroke-width: 1.0;"/><text fill="#000000" font-family="sans-serif" font-size="13" lengthAdjust="spacingAndGlyphs" textLength="37" x="47" y="1838.3232">flow1()</text><line style="stroke: #A80036; stroke-width: 1.0;" x1="40" x2="82" y1="1888.0356" y2="1888.0356"/><line style="stroke: #A80036; stroke-width: 1.0;" x1="82" x2="82" y1="1888.0356" y2="1901.0356"/><line style="stroke: #A80036; stroke-width: 1.0;" x1="41" x2="82" y1="1901.0356" y2="1901.0356"/><polygon fill="#A80036" points="51,1897.0356,41,1901.0356,51,1905.0356,47,1901.0356" style="stroke: #A80036; stroke-width: 1.0;"/><text fill="#000000" font-family="sans-serif" font-size="13" lengthAdjust="spacingAndGlyphs" textLength="37" x="47" y="1883.1792">flow2()</text><line style="stroke: #A80036; stroke-width: 1.0;" x1="40" x2="82" y1="1932.8916" y2="1932.8916"/><line style="stroke: #A80036; stroke-width: 1.0;" x1="82" x2="82" y1="1932.8916" y2="1945.8916"/><line style="stroke: #A80036; stroke-width: 1.0;" x1="41" x2="82" y1="1945.8916" y2="1945.8916"/><polygon fill="#A80036" points="51,1941.8916,41,1945.8916,51,1949.8916,47,1945.8916" style="stroke: #A80036; stroke-width: 1.0;"/><text fill="#000000" font-family="sans-serif" font-size="13" lengthAdjust="spacingAndGlyphs" textLength="37" x="47" y="1928.0352">flow3()</text><line style="stroke: #A80036; stroke-width: 1.0;" x1="40" x2="82" y1="1977.7476" y2="1977.7476"/><line style="stroke: #A80036; stroke-width: 1.0;" x1="82" x2="82" y1="1977.7476" y2="1990.7476"/><line style="stroke: #A80036; stroke-width: 1.0;" x1="41" x2="82" y1="1990.7476" y2="1990.7476"/><polygon fill="#A80036" points="51,1986.7476,41,1990.7476,51,1994.7476,47,1990.7476" style="stroke: #A80036; stroke-width: 1.0;"/><text fill="#000000" font-family="sans-serif" font-size="13" lengthAdjust="spacingAndGlyphs" textLength="37" x="47" y="1972.8911">flow4()</text><line style="stroke: #A80036; stroke-width: 1.0;" x1="40" x2="82" y1="2022.6035" y2="2022.6035"/><line style="stroke: #A80036; stroke-width: 1.0;" x1="82" x2="82" y1="2022.6035" y2="2035.6035"/><line style="stroke: #A80036; stroke-width: 1.0;" x1="41" x2="82" y1="2035.6035" y2="2035.6035"/><polygon fill="#A80036" points="51,2031.6035,41,2035.6035,51,2039.6035,47,2035.6035" style="stroke: #A80036; stroke-width: 1.0;"/><text fill="#000000" font-family="sans-serif" font-size="13" lengthAdjust="spacingAndGlyphs" textLength="37" x="47" y="2017.7471">flow5()</text><line style="stroke: #A80036; stroke-width: 1.0;" x1="40" x2="82" y1="2067.4595" y2="2067.4595"/><line style="stroke: #A80036; stroke-width: 1.0;" x1="82" x2="82" y1="2067.4595" y2="2080.4595"/><line style="stroke: #A80036; stroke-width: 1.0;" x1="41" x2="82" y1="2080.4595" y2="2080.4595"/><polygon fill="#A80036" points="51,2076.4595,41,2080.4595,51,2084.4595,47,2080.4595" style="stroke: #A80036; stroke-width: 1.0;"/><text fill="#000000" font-family="sans-serif" font-size="13" lengthAdjust="spacingAndGlyphs" textLength="37" x="47" y="2062.603">flow6()</text><line style="stroke: #A80036; stroke-width: 1.0;" x1="40" x2="82" y1="2112.3154" y2="2112.3154"/><line style="stroke: #A80036; stroke-width: 1.0;" x1="82" x2="82" y1="2112.3154" y2="2125.3154"/><line style="stroke: #A80036; stroke-width: 1.0;" x1="41" x2="82" y1="2125.3154" y2="2125.3154"/><polygon fill="#A80036" points="51,2121.3154,41,2125.3154,51,2129.3154,47,2125.3154" style="stroke: #A80036; stroke-width: 1.0;"/><text fill="#000000" font-family="sans-serif" font-size="13" lengthAdjust="spacingAndGlyphs" textLength="37" x="47" y="2107.459">flow7()</text><path d="M10,2147.3154 L160,2147.3154 L160,2156.3154 L150,2166.3154 L10,2166.3154 L10,2147.3154 " fill="#EEEEEE" style="stroke: #000000; stroke-width: 1.0;"/><rect fill="none" height="333.8477" style="stroke: #000000; stroke-width: 2.0;" width="155" x="10" y="2147.3154"/><text fill="#000000" font-family="sans-serif" font-size="13" font-weight="bold" lengthAdjust="spacingAndGlyphs" textLength="105" x="25" y="2163.3149">UC-7 UC-7_name</text><line style="stroke: #A80036; stroke-width: 1.0;" x1="40" x2="82" y1="2191.0273" y2="2191.0273"/><line style="stroke: #A80036; stroke-width: 1.0;" x1="82" x2="82" y1="2191.0273" y2="2204.0273"/><line style="stroke: #A80036; stroke-width: 1.0;" x1="41" x2="82" y1="2204.0273" y2="2204.0273"/><polygon fill="#A80036" points="51,2200.0273,41,2204.0273,51,2208.0273,47,2204.0273" style="stroke: #A80036; stroke-width: 1.0;"/><text fill="#000000" font-family="sans-serif" font-size="13" lengthAdjust="spacingAndGlyphs" textLength="37" x="47" y="2186.1709">flow1()</text><line style="stroke: #A80036; stroke-width: 1.0;" x1="40" x2="82" y1="2235.8833" y2="2235.8833"/><line style="stroke: #A80036; stroke-width: 1.0;" x1="82" x2="82" y1="2235.8833" y2="2248.8833"/><line style="stroke: #A80036; stroke-width: 1.0;" x1="41" x2="82" y1="2248.8833" y2="2248.8833"/><polygon fill="#A80036" points="51,2244.8833,41,2248.8833,51,2252.8833,47,2248.8833" style="stroke: #A80036; stroke-width: 1.0;"/><text fill="#000000" font-family="sans-serif" font-size="13" lengthAdjust="spacingAndGlyphs" textLength="37" x="47" y="2231.0269">flow2()</text><line style="stroke: #A80036; stroke-width: 1.0;" x1="40" x2="82" y1="2280.7393" y2="2280.7393"/><line style="stroke: #A80036; stroke-width: 1.0;" x1="82" x2="82" y1="2280.7393" y2="2293.7393"/><line style="stroke: #A80036; stroke-width: 1.0;" x1="41" x2="82" y1="2293.7393" y2="2293.7393"/><polygon fill="#A80036" points="51,2289.7393,41,2293.7393,51,2297.7393,47,2293.7393" style="stroke: #A80036; stroke-width: 1.0;"/><text fill="#000000" font-family="sans-serif" font-size="13" lengthAdjust="spacingAndGlyphs" textLength="37" x="47" y="2275.8828">flow3()</text><line style="stroke: #A80036; stroke-width: 1.0;" x1="40" x2="82" y1="2325.5952" y2="2325.5952"/><line style="stroke: #A80036; stroke-width: 1.0;" x1="82" x2="82" y1="2325.5952" y2="2338.5952"/><line style="stroke: #A80036; stroke-width: 1.0;" x1="41" x2="82" y1="2338.5952" y2="2338.5952"/><polygon fill="#A80036" points="51,2334.5952,41,2338.5952,51,2342.5952,47,2338.5952" style="stroke: #A80036; stroke-width: 1.0;"/><text fill="#000000" font-family="sans-serif" font-size="13" lengthAdjust="spacingAndGlyphs" textLength="37" x="47" y="2320.7388">flow4()</text><line style="stroke: #A80036; stroke-width: 1.0;" x1="40" x2="82" y1="2370.4512" y2="2370.4512"/><line style="stroke: #A80036; stroke-width: 1.0;" x1="82" x2="82" y1="2370.4512" y2="2383.4512"/><line style="stroke: #A80036; stroke-width: 1.0;" x1="41" x2="82" y1="2383.4512" y2="2383.4512"/><polygon fill="#A80036" points="51,2379.4512,41,2383.4512,51,2387.4512,47,2383.4512" style="stroke: #A80036; stroke-width: 1.0;"/><text fill="#000000" font-family="sans-serif" font-size="13" lengthAdjust="spacingAndGlyphs" textLength="37" x="47" y="2365.5947">flow5()</text><line style="stroke: #A80036; stroke-width: 1.0;" x1="40" x2="82" y1="2415.3071" y2="2415.3071"/><line style="stroke: #A80036; stroke-width: 1.0;" x1="82" x2="82" y1="2415.3071" y2="2428.3071"/><line style="stroke: #A80036; stroke-width: 1.0;" x1="41" x2="82" y1="2428.3071" y2="2428.3071"/><polygon fill="#A80036" points="51,2424.3071,41,2428.3071,51,2432.3071,47,2428.3071" style="stroke: #A80036; stroke-width: 1.0;"/><text fill="#000000" font-family="sans-serif" font-size="13" lengthAdjust="spacingAndGlyphs" textLength="37" x="47" y="2410.4507">flow6()</text><line style="stroke: #A80036; stroke-width: 1.0;" x1="40" x2="82" y1="2460.1631" y2="2460.1631"/><line style="stroke: #A80036; stroke-width: 1.0;" x1="82" x2="82" y1="2460.1631" y2="2473.1631"/><line style="stroke: #A80036; stroke-width: 1.0;" x1="41" x2="82" y1="2473.1631" y2="2473.1631"/><polygon fill="#A80036" points="51,2469.1631,41,2473.1631,51,2477.1631,47,2473.1631" style="stroke: #A80036; stroke-width: 1.0;"/><text fill="#000000" font-family="sans-serif" font-size="13" lengthAdjust="spacingAndGlyphs" textLength="37" x="47" y="2455.3066">flow7()</text><path d="M10,2495.1631 L160,2495.1631 L160,2504.1631 L150,2514.1631 L10,2514.1631 L10,2495.1631 " fill="#EEEEEE" style="stroke: #000000; stroke-width: 1.0;"/><rect fill="none" height="333.8477" style="stroke: #000000; stroke-width: 2.0;" width="155" x="10" y="2495.1631"/><text fill="#000000" font-family="sans-serif" font-size="13" font-weight="bold" lengthAdjust="spacingAndGlyphs" textLength="105" x="25" y="2511.1626">UC-8 UC-8_name</text><line style="stroke: #A80036; stroke-width: 1.0;" x1="40" x2="82" y1="2538.875" y2="2538.875"/><line style="stroke: #A80036; stroke-width: 1.0;" x1="82" x2="82" y1="2538.875" y2="2551.875"/><line style="stroke: #A80036; stroke-width: 1.0;" x1="41" x2="82" y1="2551.875" y2="2551.875"/><polygon fill="#A80036" points="51,2547.875,41,2551.875,51,2555.875,47,2551.875" style="stroke: #A80036; stroke-width: 1.0;"/><text fill="#000000" font-family="sans-serif" font-size="13" lengthAdjust="spacingAndGlyphs" textLength="37" x="47" y="2534.0186">flow1()</text><line style="stroke: #A80036; stroke-width: 1.0;" x1="40" x2="82" y1="2583.731" y2="2583.731"/><line style="stroke: #A80036; stroke-width: 1.0;" x1="82" x2="82" y1="2583.731" y2="2596.731"/><line style="stroke: #A80036; stroke-width: 1.0;" x1="41" x2="82" y1="2596.731" y2="2596.731"/><polygon fill="#A80036" points="51,2592.731,41,2596.731,51,2600.731,47,2596.731" style="stroke: #A80036; stroke-width: 1.0;"/><text fill="#000000" font-family="sans-serif" font-size="13" lengthAdjust="spacingAndGlyphs" textLength="37" x="47" y="2578.8745">flow2()</text><line style="stroke: #A80036; stroke-width: 1.0;" x1="40" x2="82" y1="2628.5869" y2="2628.5869"/><line style="stroke: #A80036; stroke-width: 1.0;" x1="82" x2="82" y1="2628.5869" y2="2641.5869"/><line style="stroke: #A80036; stroke-width: 1.0;" x1="41" x2="82" y1="2641.5869" y2="2641.5869"/><polygon fill="#A80036" points="51,2637.5869,41,2641.5869,51,2645.5869,47,2641.5869" style="stroke: #A80036; stroke-width: 1.0;"/><text fill="#000000" font-family="sans-serif" font-size="13" lengthAdjust="spacingAndGlyphs" textLength="37" x="47" y="2623.7305">flow3()</text><line style="stroke: #A80036; stroke-width: 1.0;" x1="40" x2="82" y1="2673.4429" y2="2673.4429"/><line style="stroke: #A80036; stroke-width: 1.0;" x1="82" x2="82" y1="2673.4429" y2="2686.4429"/><line style="stroke: #A80036; stroke-width: 1.0;" x1="41" x2="82" y1="2686.4429" y2="2686.4429"/><polygon fill="#A80036" points="51,2682.4429,41,2686.4429,51,2690.4429,47,2686.4429" style="stroke: #A80036; stroke-width: 1.0;"/><text fill="#000000" font-family="sans-serif" font-size="13" lengthAdjust="spacingAndGlyphs" textLength="37" x="47" y="2668.5864">flow4()</text><line style="stroke: #A80036; stroke-width: 1.0;" x1="40" x2="82" y1="2718.2988" y2="2718.2988"/><line style="stroke: #A80036; stroke-width: 1.0;" x1="82" x2="82" y1="2718.2988" y2="2731.2988"/><line style="stroke: #A80036; stroke-width: 1.0;" x1="41" x2="82" y1="2731.2988" y2="2731.2988"/><polygon fill="#A80036" points="51,2727.2988,41,2731.2988,51,2735.2988,47,2731.2988" style="stroke: #A80036; stroke-width: 1.0;"/><text fill="#000000" font-family="sans-serif" font-size="13" lengthAdjust="spacingAndGlyphs" textLength="37" x="47" y="2713.4424">flow5()</text><line style="stroke: #A80036; stroke-width: 1.0;" x1="40" x2="82" y1="2763.1548" y2="2763.1548"/><line style="stroke: #A80036; stroke-width: 1.0;" x1="82" x2="82" y1="2763.1548" y2="2776.1548"/><line style="stroke: #A80036; stroke-width: 1.0;" x1="41" x2="82" y1="2776.1548" y2="2776.1548"/><polygon fill="#A80036" points="51,2772.1548,41,2776.1548,51,2780.1548,47,2776.1548" style="stroke: #A80036; stroke-width: 1.0;"/><text fill="#000000" font-family="sans-serif" font-size="13" lengthAdjust="spacingAndGlyphs" textLength="37" x="47" y="2758.2983">flow6()</text><line style="stroke: #A80036; stroke-width: 1.0;" x1="40" x2="82" y1="2808.0107" y2="2808.0107"/><line style="stroke: #A80036; stroke-width: 1.0;" x1="82" x2="82" y1="2808.0107" y2="2821.0107"/><line style="stroke: #A80036; stroke-width: 1.0;" x1="41" x2="82" y1="2821.0107" y2="2821.0107"/><polygon fill="#A80036" points="51,2817.0107,41,2821.0107,51,2825.0107,47,2821.0107" style="stroke: #A80036; stroke-width: 1.0;"/><text fill="#000000" font-family="sans-serif" font-size="13" lengthAdjust="spacingAndGlyphs" textLength="37" x="47" y="2803.1543">flow7()</text><path d="M10,2843.0107 L160,2843.0107 L160,2852.0107 L150,2862.0107 L10,2862.0107 L10,2843.0107 " fill="#EEEEEE" style="stroke: #000000; stroke-width: 1.0;"/><rect fill="none" height="333.8477" style="stroke: #000000; stroke-width: 2.0;" width="155" x="10" y="2843.0107"/><text fill="#000000" font-family="sans-serif" font-size="13" font-weight="bold" lengthAdjust="spacingAndGlyphs" textLength="105" x="25" y="2859.0103">UC-9 UC-9_name</text><line style="stroke: #A80036; stroke-width: 1.0;" x1="40" x2="82" y1="2886.7227" y2="2886.7227"/><line style="stroke: #A80036; stroke-width: 1.0;" x1="82" x2="82" y1="2886.7227" y2="2899.7227"/><line style="stroke: #A80036; stroke-width: 1.0;" x1="41" x2="82" y1="2899.7227" y2="2899.7227"/><polygon fill="#A80036" points="51,2895.7227,41,2899.7227,51,2903.7227,47,2899.7227" style="stroke: #A80036; stroke-width: 1.0;"/><text fill="#000000" font-family="sans-serif" font-size="13" lengthAdjust="spacingAndGlyphs" textLength="37" x="47" y="2881.8662">flow1()</text><line style="stroke: #A80036; stroke-width: 1.0;" x1="40" x2="82" y1="2931.5786" y2="2931.5786"/><line style="stroke: #A80036; stroke-width: 1.0;" x1="82" x2="82" y1="2931.5786" y2="2944.5786"/><line style="stroke: #A80036; stroke-width: 1.0;" x1="41" x2="82" y1="2944.5786" y2="2944.5786"/><polygon fill="#A80036" points="51,2940.5786,41,2944.5786,51,2948.5786,47,2944.5786" style="stroke: #A80036; stroke-width: 1.0;"/><text fill="#000000" font-family="sans-serif" font-size="13" lengthAdjust="spacingAndGlyphs" textLength="37" x="47" y="2926.7222">flow2()</text><line style="stroke: #A80036; stroke-width: 1.0;" x1="40" x2="82" y1="2976.4346" y2="2976.4346"/><line style="stroke: #A80036; stroke-width: 1.0;" x1="82" x2="82" y1="2976.4346" y2="2989.4346"/><line style="stroke: #A80036; stroke-width: 1.0;" x1="41" x2="82" y1="2989.4346" y2="2989.4346"/><polygon fill="#A80036" points="51,2985.4346,41,2989.4346,51,2993.4346,47,2989.4346" style="stroke: #A80036; stroke-width: 1.0;"/><text fill="#000000" font-family="sans-serif" font-size="13" lengthAdjust="spacingAndGlyphs" textLength="37" x="47" y="2971.5781">flow3()</text><line style="stroke: #A80036; stroke-width: 1.0;" x1="40" x2="82" y1="3021.2905" y2="3021.2905"/><line style="stroke: #A80036; stroke-width: 1.0;" x1="82" x2="82" y1="3021.2905" y2="3034.2905"/><line style="stroke: #A80036; stroke-width: 1.0;" x1="41" x2="82" y1="3034.2905" y2="3034.2905"/><polygon fill="#A80036" points="51,3030.2905,41,3034.2905,51,3038.2905,47,3034.2905" style="stroke: #A80036; stroke-width: 1.0;"/><text fill="#000000" font-family="sans-serif" font-size="13" lengthAdjust="spacingAndGlyphs" textLength="37" x="47" y="3016.4341">flow4()</text><line style="stroke: #A80036; stroke-width: 1.0;" x1="40" x2="82" y1="3066.1465" y2="3066.1465"/><line style="stroke: #A80036; stroke-width: 1.0;" x1="82" x2="82" y1="3066.1465" y2="3079.1465"/><line style="stroke: #A80036; stroke-width: 1.0;" x1="41" x2="82" y1="3079.1465" y2="3079.1465"/><polygon fill="#A80036" points="51,3075.1465,41,3079.1465,51,3083.1465,47,3079.1465" style="stroke: #A80036; stroke-width: 1.0;"/><text fill="#000000" font-family="sans-serif" font-size="13" lengthAdjust="spacingAndGlyphs" textLength="37" x="47" y="3061.29">flow5()</text><line style="stroke: #A80036; stroke-width: 1.0;" x1="40" x2="82" y1="3111.0024" y2="3111.0024"/><line style="stroke: #A80036; stroke-width: 1.0;" x1="82" x2="82" y1="3111.0024" y2="3124.0024"/><line style="stroke: #A80036; stroke-width: 1.0;" x1="41" x2="82" y1="3124.0024" y2="3124.0024"/><polygon fill="#A80036" points="51,3120.0024,41,3124.0024,51,3128.0024,47,3124.0024" style="stroke: #A80036; stroke-width: 1.0;"/><text fill="#000000" font-family="sans-serif" font-size="13" lengthAdjust="spacingAndGlyphs" textLength="37" x="47" y="3106.146">flow6()</text><line style="stroke: #A80036; stroke-width: 1.0;" x1="40" x2="82" y1="3155.8584" y2="3155.8584"/><line style="stroke: #A80036; stroke-width: 1.0;" x1="82" x2="82" y1="3155.8584" y2="3168.8584"/><line style="stroke: #A80036; stroke-width: 1.0;" x1="41" x2="82" y1="3168.8584" y2="3168.8584"/><polygon fill="#A80036" points="51,3164.8584,41,3168.8584,51,3172.8584,47,3168.8584" style="stroke: #A80036; stroke-width: 1.0;"/><text fill="#000000" font-family="sans-serif" font-size="13" lengthAdjust="spacingAndGlyphs" textLength="37" x="47" y="3151.002">flow7()</text><!--MD5=[0cf465d2e89e819d02c05b168aed77b4]
@startuml
group UC-10 UC-10_name
	null->null : flow1()
	null->null : flow2()
	null->null : flow3()
	null->null : flow4()
	null->null : flow5()
	null->null : flow6()
	null->null : flow7()
end
group UC-2 UC-2_name
	null->null : flow1()
	null->null : flow2()
	null->null : flow3()
	null->null : flow4()
	null->null : flow5()
	null->null : flow6()
	null->null : flow7()
end
group UC-3 UC-3_name
	null->null : flow1()
	null->null : flow2()
	null->null : flow3()
	null->null : flow4()
	null->null : flow5()
	null->null : flow6()
	null->null : flow7()
end
group UC-4 UC-4_name
	null->null : flow1()
	null->null : flow2()
	null->null : flow3()
	null->null : flow4()
	null->null : flow5()
	null->null : flow6()
	null->null : flow7()
end
group UC-5 UC-5_name
	null->null : flow1()
	null->null : flow2()
	null->null : flow3()
	null->null : flow4()
	null->null : flow5()
	null->null : flow6()
	null->null : flow7()
end
group UC-6 UC-6_name
	null->null : flow1()
	null->null : flow2()
	null->null : flow3()
	null->null : flow4()
	null->null : flow5()
	null->null : flow6()
	null->null : flow7()
end
group UC-7 UC-7_name
	null->null : flow1()
	null->null : flow2()
	null->null : flow3()
	null->null : flow4()
	null->null : flow5()
	null->null : flow6()
	null->null : flow7()
end
group UC-8 UC-8_name
	null->null : flow1()
	null->null : flow2()
	null->null : flow3()
	null->null : flow4()
	null->null : flow5()
	null->null : flow6()
	null->null : flow7()
end
group UC-9 UC-9_name
	null->null : flow1()
	null->null : flow2()
	null->null : flow3()
	null->null : flow4()
	null->null : flow5()
	null->null : flow6()
	null->null : flow7()
end
@enduml

PlantUML version 1.2020.19(Tue Oct 13 00:10:01 KST 2020)
(APACHE source distribution)
Java Runtime: OpenJDK Runtime Environment
JVM: OpenJDK 64-Bit Server VM
Default Encoding: MS949
Language: ko
Country: KR
--></g></svg>