<?xml version="1.0" encoding="UTF-8" standalone="no"?><svg xmlns="http://www.w3.org/2000/svg" xmlns:xlink="http://www.w3.org/1999/xlink" contentScriptType="application/ecmascript" contentStyleType="text/css" height="473px" preserveAspectRatio="none" style="width:175px;height:473px;" version="1.1" viewBox="0 0 175 473" width="175px" zoomAndPan="magnify"><defs><filter height="300%" id="fjppxa9ogbya" width="300%" x="-1" y="-1"><feGaussianBlur result="blurOut" stdDeviation="2.0"/><feColorMatrix in="blurOut" result="blurOut2" type="matrix" values="0 0 0 0 0 0 0 0 0 0 0 0 0 0 0 0 0 0 .4 0"/><feOffset dx="4.0" dy="4.0" in="blurOut2" result="blurOut3"/><feBlend in="SourceGraphic" in2="blurOut3" mode="normal"/></filter></defs><g><rect fill="#FFFFFF" filter="url(#fjppxa9ogbya)" height="349.8477" style="stroke: #000000; stroke-width: 2.0;" width="151" x="10" y="60.2295"/><rect fill="#FFFFFF" filter="url(#fjppxa9ogbya)" height="91.7119" style="stroke: #000000; stroke-width: 2.0;" width="92" x="20" y="131.9414"/><line style="stroke: #A80036; stroke-width: 1.0; stroke-dasharray: 5.0,5.0;" x1="50" x2="50" y1="43.2295" y2="427.0771"/><rect fill="#FEFECE" filter="url(#fjppxa9ogbya)" height="33.2295" style="stroke: #A80036; stroke-width: 1.5;" width="36" x="30" y="5"/><text fill="#000000" font-family="sans-serif" font-size="14" lengthAdjust="spacingAndGlyphs" textLength="22" x="37" y="28.1533">null</text><rect fill="#FEFECE" filter="url(#fjppxa9ogbya)" height="33.2295" style="stroke: #A80036; stroke-width: 1.5;" width="36" x="30" y="426.0771"/><text fill="#000000" font-family="sans-serif" font-size="14" lengthAdjust="spacingAndGlyphs" textLength="22" x="37" y="449.2305">null</text><path d="M10,60.2295 L156,60.2295 L156,69.2295 L146,79.2295 L10,79.2295 L10,60.2295 " fill="#EEEEEE" style="stroke: #000000; stroke-width: 1.0;"/><rect fill="none" height="349.8477" style="stroke: #000000; stroke-width: 2.0;" width="151" x="10" y="60.2295"/><text fill="#000000" font-family="sans-serif" font-size="13" font-weight="bold" lengthAdjust="spacingAndGlyphs" textLength="101" x="25" y="76.229">Make Self Make</text><line style="stroke: #A80036; stroke-width: 1.0;" x1="50" x2="92" y1="103.9414" y2="103.9414"/><line style="stroke: #A80036; stroke-width: 1.0;" x1="92" x2="92" y1="103.9414" y2="116.9414"/><line style="stroke: #A80036; stroke-width: 1.0;" x1="51" x2="92" y1="116.9414" y2="116.9414"/><polygon fill="#A80036" points="61,112.9414,51,116.9414,61,120.9414,57,116.9414" style="stroke: #A80036; stroke-width: 1.0;"/><text fill="#000000" font-family="sans-serif" font-size="13" lengthAdjust="spacingAndGlyphs" textLength="37" x="57" y="99.085">flow1()</text><path d="M20,131.9414 L107,131.9414 L107,140.9414 L97,150.9414 L20,150.9414 L20,131.9414 " fill="#EEEEEE" style="stroke: #000000; stroke-width: 1.0;"/><rect fill="none" height="91.7119" style="stroke: #000000; stroke-width: 2.0;" width="92" x="20" y="131.9414"/><text fill="#000000" font-family="sans-serif" font-size="13" font-weight="bold" lengthAdjust="spacingAndGlyphs" textLength="42" x="35" y="147.9409">flow2()</text><line style="stroke: #A80036; stroke-width: 1.0;" x1="50" x2="92" y1="175.6533" y2="175.6533"/><line style="stroke: #A80036; stroke-width: 1.0;" x1="92" x2="92" y1="175.6533" y2="188.6533"/><line style="stroke: #A80036; stroke-width: 1.0;" x1="51" x2="92" y1="188.6533" y2="188.6533"/><polygon fill="#A80036" points="61,184.6533,51,188.6533,61,192.6533,57,188.6533" style="stroke: #A80036; stroke-width: 1.0;"/><text fill="#000000" font-family="sans-serif" font-size="13" lengthAdjust="spacingAndGlyphs" textLength="37" x="57" y="170.7969">flow3()</text><line style="stroke: #A80036; stroke-width: 1.0; stroke-dasharray: 2.0,2.0;" x1="50" x2="92" y1="202.6533" y2="202.6533"/><line style="stroke: #A80036; stroke-width: 1.0; stroke-dasharray: 2.0,2.0;" x1="92" x2="92" y1="202.6533" y2="215.6533"/><line style="stroke: #A80036; stroke-width: 1.0; stroke-dasharray: 2.0,2.0;" x1="51" x2="92" y1="215.6533" y2="215.6533"/><polygon fill="#A80036" points="61,211.6533,51,215.6533,61,219.6533,57,215.6533" style="stroke: #A80036; stroke-width: 1.0;"/><line style="stroke: #A80036; stroke-width: 1.0;" x1="50" x2="92" y1="254.5093" y2="254.5093"/><line style="stroke: #A80036; stroke-width: 1.0;" x1="92" x2="92" y1="254.5093" y2="267.5093"/><line style="stroke: #A80036; stroke-width: 1.0;" x1="51" x2="92" y1="267.5093" y2="267.5093"/><polygon fill="#A80036" points="61,263.5093,51,267.5093,61,271.5093,57,267.5093" style="stroke: #A80036; stroke-width: 1.0;"/><text fill="#000000" font-family="sans-serif" font-size="13" lengthAdjust="spacingAndGlyphs" textLength="37" x="57" y="249.6528">flow4()</text><line style="stroke: #A80036; stroke-width: 1.0;" x1="50" x2="92" y1="299.3652" y2="299.3652"/><line style="stroke: #A80036; stroke-width: 1.0;" x1="92" x2="92" y1="299.3652" y2="312.3652"/><line style="stroke: #A80036; stroke-width: 1.0;" x1="51" x2="92" y1="312.3652" y2="312.3652"/><polygon fill="#A80036" points="61,308.3652,51,312.3652,61,316.3652,57,312.3652" style="stroke: #A80036; stroke-width: 1.0;"/><text fill="#000000" font-family="sans-serif" font-size="13" lengthAdjust="spacingAndGlyphs" textLength="37" x="57" y="294.5088">flow5()</text><line style="stroke: #A80036; stroke-width: 1.0;" x1="50" x2="92" y1="344.2212" y2="344.2212"/><line style="stroke: #A80036; stroke-width: 1.0;" x1="92" x2="92" y1="344.2212" y2="357.2212"/><line style="stroke: #A80036; stroke-width: 1.0;" x1="51" x2="92" y1="357.2212" y2="357.2212"/><polygon fill="#A80036" points="61,353.2212,51,357.2212,61,361.2212,57,357.2212" style="stroke: #A80036; stroke-width: 1.0;"/><text fill="#000000" font-family="sans-serif" font-size="13" lengthAdjust="spacingAndGlyphs" textLength="37" x="57" y="339.3647">flow6()</text><line style="stroke: #A80036; stroke-width: 1.0;" x1="50" x2="92" y1="389.0771" y2="389.0771"/><line style="stroke: #A80036; stroke-width: 1.0;" x1="92" x2="92" y1="389.0771" y2="402.0771"/><line style="stroke: #A80036; stroke-width: 1.0;" x1="51" x2="92" y1="402.0771" y2="402.0771"/><polygon fill="#A80036" points="61,398.0771,51,402.0771,61,406.0771,57,402.0771" style="stroke: #A80036; stroke-width: 1.0;"/><text fill="#000000" font-family="sans-serif" font-size="13" lengthAdjust="spacingAndGlyphs" textLength="37" x="57" y="384.2207">flow7()</text><!--MD5=[75e6767e80b9b821a37cd0d3c4760135]
@startuml
group Make Self Make
	null->null : flow1()
	group flow2()
		null->null : flow3()
	null- ->null : 
	end
	null->null : flow4()
	null->null : flow5()
	null->null : flow6()
	null->null : flow7()
end
@enduml

PlantUML version 1.2020.19(Tue Oct 13 00:10:01 KST 2020)
(APACHE source distribution)
Java Runtime: OpenJDK Runtime Environment
JVM: OpenJDK 64-Bit Server VM
Default Encoding: MS949
Language: ko
Country: KR
--></g></svg>