<?xml version="1.0" encoding="UTF-8" standalone="no"?><svg xmlns="http://www.w3.org/2000/svg" xmlns:xlink="http://www.w3.org/1999/xlink" contentScriptType="application/ecmascript" contentStyleType="text/css" height="582px" preserveAspectRatio="none" style="width:581px;height:582px;" version="1.1" viewBox="0 0 581 582" width="581px" zoomAndPan="magnify"><defs><filter height="300%" id="fnoci0j61vq68" width="300%" x="-1" y="-1"><feGaussianBlur result="blurOut" stdDeviation="2.0"/><feColorMatrix in="blurOut" result="blurOut2" type="matrix" values="0 0 0 0 0 0 0 0 0 0 0 0 0 0 0 0 0 0 .4 0"/><feOffset dx="4.0" dy="4.0" in="blurOut2" result="blurOut3"/><feBlend in="SourceGraphic" in2="blurOut3" mode="normal"/></filter></defs><g><rect fill="#FFFFFF" filter="url(#fnoci0j61vq68)" height="432.1274" style="stroke: #000000; stroke-width: 2.0;" width="547.5" x="20" y="87.0854"/><rect fill="#FFFFFF" filter="url(#fnoci0j61vq68)" height="238.9917" style="stroke: #000000; stroke-width: 2.0;" width="527.5" x="30" y="209.5093"/><rect fill="#FFFFFF" filter="url(#fnoci0j61vq68)" height="160.2798" style="stroke: #000000; stroke-width: 2.0;" width="507.5" x="40" y="236.3652"/><line style="stroke: #A80036; stroke-width: 1.0; stroke-dasharray: 5.0,5.0;" x1="83" x2="83" y1="43.2295" y2="536.2129"/><line style="stroke: #A80036; stroke-width: 1.0; stroke-dasharray: 5.0,5.0;" x1="240.5" x2="240.5" y1="43.2295" y2="536.2129"/><rect fill="#FEFECE" filter="url(#fnoci0j61vq68)" height="33.2295" style="stroke: #A80036; stroke-width: 1.5;" width="63" x="50" y="5"/><text fill="#000000" font-family="sans-serif" font-size="14" lengthAdjust="spacingAndGlyphs" textLength="49" x="57" y="28.1533">Student</text><rect fill="#FEFECE" filter="url(#fnoci0j61vq68)" height="33.2295" style="stroke: #A80036; stroke-width: 1.5;" width="63" x="50" y="535.2129"/><text fill="#000000" font-family="sans-serif" font-size="14" lengthAdjust="spacingAndGlyphs" textLength="49" x="57" y="558.3662">Student</text><rect fill="#FEFECE" filter="url(#fnoci0j61vq68)" height="33.2295" style="stroke: #A80036; stroke-width: 1.5;" width="36" x="220.5" y="5"/><text fill="#000000" font-family="sans-serif" font-size="14" lengthAdjust="spacingAndGlyphs" textLength="22" x="227.5" y="28.1533">null</text><rect fill="#FEFECE" filter="url(#fnoci0j61vq68)" height="33.2295" style="stroke: #A80036; stroke-width: 1.5;" width="36" x="220.5" y="535.2129"/><text fill="#000000" font-family="sans-serif" font-size="14" lengthAdjust="spacingAndGlyphs" textLength="22" x="227.5" y="558.3662">null</text><path d="M20,87.0854 L171,87.0854 L171,96.0854 L161,106.0854 L20,106.0854 L20,87.0854 " fill="#EEEEEE" style="stroke: #000000; stroke-width: 1.0;"/><rect fill="none" height="432.1274" style="stroke: #000000; stroke-width: 2.0;" width="547.5" x="20" y="87.0854"/><text fill="#000000" font-family="sans-serif" font-size="13" font-weight="bold" lengthAdjust="spacingAndGlyphs" textLength="106" x="35" y="103.085">check(argument)</text><polygon fill="#A80036" points="228.5,126.7974,238.5,130.7974,228.5,134.7974,232.5,130.7974" style="stroke: #A80036; stroke-width: 1.0;"/><line style="stroke: #A80036; stroke-width: 1.0;" x1="83.5" x2="234.5" y1="130.7974" y2="130.7974"/><text fill="#000000" font-family="sans-serif" font-size="13" lengthAdjust="spacingAndGlyphs" textLength="70" x="90.5" y="125.9409">readFile(file)</text><polygon fill="#A80036" points="228.5,158.6533,238.5,162.6533,228.5,166.6533,232.5,162.6533" style="stroke: #A80036; stroke-width: 1.0;"/><line style="stroke: #A80036; stroke-width: 1.0;" x1="83.5" x2="234.5" y1="162.6533" y2="162.6533"/><text fill="#000000" font-family="sans-serif" font-size="13" lengthAdjust="spacingAndGlyphs" textLength="67" x="90.5" y="157.7969">readName()</text><polygon fill="#A80036" points="228.5,190.5093,238.5,194.5093,228.5,198.5093,232.5,194.5093" style="stroke: #A80036; stroke-width: 1.0;"/><line style="stroke: #A80036; stroke-width: 1.0;" x1="83.5" x2="234.5" y1="194.5093" y2="194.5093"/><text fill="#000000" font-family="sans-serif" font-size="13" lengthAdjust="spacingAndGlyphs" textLength="75" x="90.5" y="189.6528">setStartTim()</text><path d="M30,209.5093 L122,209.5093 L122,218.5093 L112,228.5093 L30,228.5093 L30,209.5093 " fill="#EEEEEE" style="stroke: #000000; stroke-width: 1.0;"/><rect fill="none" height="238.9917" style="stroke: #000000; stroke-width: 2.0;" width="527.5" x="30" y="209.5093"/><text fill="#000000" font-family="sans-serif" font-size="13" font-weight="bold" lengthAdjust="spacingAndGlyphs" textLength="47" x="45" y="225.5088">typing()</text><path d="M40,236.3652 L180,236.3652 L180,245.3652 L170,255.3652 L40,255.3652 L40,236.3652 " fill="#EEEEEE" style="stroke: #000000; stroke-width: 1.0;"/><rect fill="none" height="160.2798" style="stroke: #000000; stroke-width: 2.0;" width="507.5" x="40" y="236.3652"/><text fill="#000000" font-family="sans-serif" font-size="13" font-weight="bold" lengthAdjust="spacingAndGlyphs" textLength="95" x="55" y="252.3647">while( not end)</text><polygon fill="#A80036" points="228.5,276.0771,238.5,280.0771,228.5,284.0771,232.5,280.0771" style="stroke: #A80036; stroke-width: 1.0;"/><line style="stroke: #A80036; stroke-width: 1.0;" x1="83.5" x2="234.5" y1="280.0771" y2="280.0771"/><text fill="#000000" font-family="sans-serif" font-size="13" lengthAdjust="spacingAndGlyphs" textLength="57" x="90.5" y="275.2207">typeLine()</text><polygon fill="#A80036" points="228.5,307.9331,238.5,311.9331,228.5,315.9331,232.5,311.9331" style="stroke: #A80036; stroke-width: 1.0;"/><line style="stroke: #A80036; stroke-width: 1.0;" x1="83.5" x2="234.5" y1="311.9331" y2="311.9331"/><text fill="#000000" font-family="sans-serif" font-size="13" lengthAdjust="spacingAndGlyphs" textLength="66" x="90.5" y="307.0767">checkAns()</text><polygon fill="#A80036" points="228.5,339.7891,238.5,343.7891,228.5,347.7891,232.5,343.7891" style="stroke: #A80036; stroke-width: 1.0;"/><line style="stroke: #A80036; stroke-width: 1.0;" x1="83.5" x2="234.5" y1="343.7891" y2="343.7891"/><text fill="#000000" font-family="sans-serif" font-size="13" lengthAdjust="spacingAndGlyphs" textLength="79" x="90.5" y="338.9326">findNextLine()</text><line style="stroke: #A80036; stroke-width: 1.0; stroke-dasharray: 2.0,2.0;" x1="240.5" x2="282.5" y1="375.645" y2="375.645"/><line style="stroke: #A80036; stroke-width: 1.0; stroke-dasharray: 2.0,2.0;" x1="282.5" x2="282.5" y1="375.645" y2="388.645"/><line style="stroke: #A80036; stroke-width: 1.0; stroke-dasharray: 2.0,2.0;" x1="241.5" x2="282.5" y1="388.645" y2="388.645"/><polygon fill="#A80036" points="251.5,384.645,241.5,388.645,251.5,392.645,247.5,388.645" style="stroke: #A80036; stroke-width: 1.0;"/><text fill="#000000" font-family="sans-serif" font-size="13" lengthAdjust="spacingAndGlyphs" textLength="288" x="247.5" y="370.7886">파일을 모두 다 타이핑했다면 다음 단계로 넘어감.</text><line style="stroke: #A80036; stroke-width: 1.0; stroke-dasharray: 2.0,2.0;" x1="240.5" x2="282.5" y1="427.501" y2="427.501"/><line style="stroke: #A80036; stroke-width: 1.0; stroke-dasharray: 2.0,2.0;" x1="282.5" x2="282.5" y1="427.501" y2="440.501"/><line style="stroke: #A80036; stroke-width: 1.0; stroke-dasharray: 2.0,2.0;" x1="241.5" x2="282.5" y1="440.501" y2="440.501"/><polygon fill="#A80036" points="251.5,436.501,241.5,440.501,251.5,444.501,247.5,440.501" style="stroke: #A80036; stroke-width: 1.0;"/><text fill="#000000" font-family="sans-serif" font-size="13" lengthAdjust="spacingAndGlyphs" textLength="82" x="247.5" y="422.6445">타이핑의 종료</text><polygon fill="#A80036" points="228.5,475.3569,238.5,479.3569,228.5,483.3569,232.5,479.3569" style="stroke: #A80036; stroke-width: 1.0;"/><line style="stroke: #A80036; stroke-width: 1.0;" x1="83.5" x2="234.5" y1="479.3569" y2="479.3569"/><text fill="#000000" font-family="sans-serif" font-size="13" lengthAdjust="spacingAndGlyphs" textLength="77" x="90.5" y="474.5005">setEndTime()</text><polygon fill="#A80036" points="228.5,507.2129,238.5,511.2129,228.5,515.2129,232.5,511.2129" style="stroke: #A80036; stroke-width: 1.0;"/><line style="stroke: #A80036; stroke-width: 1.0;" x1="83.5" x2="234.5" y1="511.2129" y2="511.2129"/><text fill="#000000" font-family="sans-serif" font-size="13" lengthAdjust="spacingAndGlyphs" textLength="133" x="90.5" y="506.3564">saveRecord(String line)</text><!--MD5=[ba6488f5aec3bf63a055d407dfd0aa42]
@startuml
group UC01 Typing Practice
	group check(argument)
	Student->null : readFile(file)
	Student->null : readName()
	Student->null : setStartTim()
	group typing()
		group while( not end)
			Student->null : typeLine()
			Student->null : checkAns()
			Student->null : findNextLine()
		null- ->null : 파일을 모두 다 타이핑했다면 다음 단계로 넘어감.
		end
	null- ->null : 타이핑의 종료
	end
	Student->null : setEndTime()
	Student->null : saveRecord(String line)
end
@enduml

PlantUML version 1.2020.19(Tue Oct 13 00:10:01 KST 2020)
(APACHE source distribution)
Java Runtime: Java(TM) SE Runtime Environment
JVM: Java HotSpot(TM) 64-Bit Server VM
Default Encoding: MS949
Language: ko
Country: KR
--></g></svg>