<?xml version="1.0" encoding="UTF-8" standalone="no"?><svg xmlns="http://www.w3.org/2000/svg" xmlns:xlink="http://www.w3.org/1999/xlink" contentScriptType="application/ecmascript" contentStyleType="text/css" height="235px" preserveAspectRatio="none" style="width:261px;height:235px;" version="1.1" viewBox="0 0 261 235" width="261px" zoomAndPan="magnify"><defs><filter height="300%" id="f1qciqet3nyrri" width="300%" x="-1" y="-1"><feGaussianBlur result="blurOut" stdDeviation="2.0"/><feColorMatrix in="blurOut" result="blurOut2" type="matrix" values="0 0 0 0 0 0 0 0 0 0 0 0 0 0 0 0 0 0 .4 0"/><feOffset dx="4.0" dy="4.0" in="blurOut2" result="blurOut3"/><feBlend in="SourceGraphic" in2="blurOut3" mode="normal"/></filter></defs><g><!--MD5=[d34937cf6fd27adc5bc206d2d4d80383]
class MainClass--><rect codeLine="1" fill="#FEFECE" filter="url(#f1qciqet3nyrri)" height="214.1978" id="MainClass" style="stroke: #A80036; stroke-width: 1.5;" width="104" x="7" y="7"/><ellipse cx="27.85" cy="23" fill="#ADD1B2" rx="11" ry="11" style="stroke: #A80036; stroke-width: 1.0;"/><path d="M27.6781,16.4844 Q25.8031,16.4844 24.6469,18.2344 Q23.4594,20.0156 23.4594,23.0156 Q23.4594,26.3906 24.6625,28.1563 Q25.725,29.7813 27.475,29.7813 Q29.1625,29.7813 30.1156,28.875 Q31.1781,27.8594 31.3188,25.625 Q31.3188,25.2031 31.0844,24.9688 Q30.8969,24.7344 30.5531,24.7031 Q30.225,24.7031 29.9906,24.8906 Q29.725,25.125 29.725,25.5156 Q29.6938,26.9063 29.1,27.6406 Q28.5688,28.3438 27.6156,28.3438 Q26.4594,28.3438 25.7406,26.9063 Q25.0219,25.4063 25.0219,22.9844 Q25.0219,20.4375 25.9125,19.0469 Q26.6625,17.9219 27.8031,17.9219 Q28.4594,17.9219 28.9594,18.4688 Q29.5219,19.0781 29.6469,20.1406 Q29.6938,20.8438 30.5219,20.7344 Q31.3031,20.625 31.2563,19.9375 Q31.0688,18.4219 30.3031,17.5469 Q29.3656,16.4844 27.6781,16.4844 Z "/><text fill="#000000" font-family="sans-serif" font-size="12" lengthAdjust="spacingAndGlyphs" textLength="59" x="43.15" y="28.6045">MainClass</text><line style="stroke: #A80036; stroke-width: 1.5;" x1="8" x2="110" y1="39" y2="39"/><text fill="#000000" font-family="sans-serif" font-size="11" lengthAdjust="spacingAndGlyphs" textLength="47" x="13" y="55.6919">File target</text><text fill="#000000" font-family="sans-serif" font-size="11" lengthAdjust="spacingAndGlyphs" textLength="57" x="13" y="70.8008">String name</text><text fill="#000000" font-family="sans-serif" font-size="11" lengthAdjust="spacingAndGlyphs" textLength="80" x="13" y="85.9097">null codeLineList</text><text fill="#000000" font-family="sans-serif" font-size="11" lengthAdjust="spacingAndGlyphs" textLength="92" x="13" y="101.0186">String[] ansLineList</text><line style="stroke: #A80036; stroke-width: 1.5;" x1="8" x2="110" y1="107.4355" y2="107.4355"/><text fill="#000000" font-family="sans-serif" font-size="11" lengthAdjust="spacingAndGlyphs" textLength="89" x="13" y="124.1274">main(String args[])</text><text fill="#000000" font-family="sans-serif" font-size="11" lengthAdjust="spacingAndGlyphs" textLength="60" x="13" y="139.2363">fileSet(args)</text><text fill="#000000" font-family="sans-serif" font-size="11" lengthAdjust="spacingAndGlyphs" textLength="42" x="13" y="154.3452">load(file)</text><text fill="#000000" font-family="sans-serif" font-size="11" lengthAdjust="spacingAndGlyphs" textLength="57" x="13" y="169.4541">readName()</text><text fill="#000000" font-family="sans-serif" font-size="11" lengthAdjust="spacingAndGlyphs" textLength="68" x="13" y="184.563">setStartTime()</text><text fill="#000000" font-family="sans-serif" font-size="11" lengthAdjust="spacingAndGlyphs" textLength="30" x="13" y="199.6719">main()</text><text fill="#000000" font-family="sans-serif" font-size="11" lengthAdjust="spacingAndGlyphs" textLength="63" x="13" y="214.7808">setEndTime()</text><!--MD5=[b3e73fb1cbb6904de4d99cbb878bea55]
class LogManager--><rect codeLine="18" fill="#FEFECE" filter="url(#f1qciqet3nyrri)" height="93.3267" id="LogManager" style="stroke: #A80036; stroke-width: 1.5;" width="101" x="146.5" y="67.5"/><ellipse cx="161.5" cy="83.5" fill="#ADD1B2" rx="11" ry="11" style="stroke: #A80036; stroke-width: 1.0;"/><path d="M161.3281,76.9844 Q159.4531,76.9844 158.2969,78.7344 Q157.1094,80.5156 157.1094,83.5156 Q157.1094,86.8906 158.3125,88.6563 Q159.375,90.2813 161.125,90.2813 Q162.8125,90.2813 163.7656,89.375 Q164.8281,88.3594 164.9688,86.125 Q164.9688,85.7031 164.7344,85.4688 Q164.5469,85.2344 164.2031,85.2031 Q163.875,85.2031 163.6406,85.3906 Q163.375,85.625 163.375,86.0156 Q163.3438,87.4063 162.75,88.1406 Q162.2188,88.8438 161.2656,88.8438 Q160.1094,88.8438 159.3906,87.4063 Q158.6719,85.9063 158.6719,83.4844 Q158.6719,80.9375 159.5625,79.5469 Q160.3125,78.4219 161.4531,78.4219 Q162.1094,78.4219 162.6094,78.9688 Q163.1719,79.5781 163.2969,80.6406 Q163.3438,81.3438 164.1719,81.2344 Q164.9531,81.125 164.9063,80.4375 Q164.7188,78.9219 163.9531,78.0469 Q163.0156,76.9844 161.3281,76.9844 Z "/><text fill="#000000" font-family="sans-serif" font-size="12" lengthAdjust="spacingAndGlyphs" textLength="69" x="175.5" y="89.1045">LogManager</text><line style="stroke: #A80036; stroke-width: 1.5;" x1="147.5" x2="246.5" y1="99.5" y2="99.5"/><text fill="#000000" font-family="sans-serif" font-size="11" lengthAdjust="spacingAndGlyphs" textLength="59" x="152.5" y="116.1919">File saveFile</text><text fill="#000000" font-family="sans-serif" font-size="11" lengthAdjust="spacingAndGlyphs" textLength="0" x="155.5" y="131.3008"/><text fill="#000000" font-family="sans-serif" font-size="11" lengthAdjust="spacingAndGlyphs" textLength="16" x="152.5" y="146.4097">null</text><line style="stroke: #A80036; stroke-width: 1.5;" x1="147.5" x2="246.5" y1="152.8267" y2="152.8267"/><!--MD5=[f0f09b931258b0869a148849dfabb9e0]
@startuml
class MainClass 
{
	 File target
	 String name
	 null codeLineList
	 String[] ansLineList

	main(String args[])
	fileSet(args)
	load(file)
	readName()
	setStartTime()
	main()
	setEndTime()

}

class LogManager 
{
	 File saveFile

	null

}

@enduml

PlantUML version 1.2020.19(Tue Oct 13 00:10:01 KST 2020)
(APACHE source distribution)
Java Runtime: Java(TM) SE Runtime Environment
JVM: Java HotSpot(TM) 64-Bit Server VM
Default Encoding: MS949
Language: ko
Country: KR
--></g></svg>