<?xml version="1.0" encoding="UTF-8" standalone="no"?><svg xmlns="http://www.w3.org/2000/svg" xmlns:xlink="http://www.w3.org/1999/xlink" contentScriptType="application/ecmascript" contentStyleType="text/css" height="731px" preserveAspectRatio="none" style="width:223px;height:731px;" version="1.1" viewBox="0 0 223 731" width="223px" zoomAndPan="magnify"><defs><filter height="300%" id="fw4ka5mae1eea" width="300%" x="-1" y="-1"><feGaussianBlur result="blurOut" stdDeviation="2.0"/><feColorMatrix in="blurOut" result="blurOut2" type="matrix" values="0 0 0 0 0 0 0 0 0 0 0 0 0 0 0 0 0 0 .4 0"/><feOffset dx="4.0" dy="4.0" in="blurOut2" result="blurOut3"/><feBlend in="SourceGraphic" in2="blurOut3" mode="normal"/></filter></defs><g><rect fill="#FFFFFF" filter="url(#fw4ka5mae1eea)" height="607.9834" style="stroke: #000000; stroke-width: 2.0;" width="199" x="10" y="60.2295"/><rect fill="#FFFFFF" filter="url(#fw4ka5mae1eea)" height="109.5679" style="stroke: #000000; stroke-width: 2.0;" width="179" x="20" y="87.0854"/><rect fill="#FFFFFF" filter="url(#fw4ka5mae1eea)" height="226.2798" style="stroke: #000000; stroke-width: 2.0;" width="157" x="20" y="345.2212"/><line style="stroke: #A80036; stroke-width: 1.0; stroke-dasharray: 5.0,5.0;" x1="81" x2="81" y1="43.2295" y2="685.2129"/><rect fill="#FEFECE" filter="url(#fw4ka5mae1eea)" height="33.2295" style="stroke: #A80036; stroke-width: 1.5;" width="98" x="30" y="5"/><text fill="#000000" font-family="sans-serif" font-size="14" lengthAdjust="spacingAndGlyphs" textLength="84" x="37" y="28.1533">타자프로그램</text><rect fill="#FEFECE" filter="url(#fw4ka5mae1eea)" height="33.2295" style="stroke: #A80036; stroke-width: 1.5;" width="98" x="30" y="684.2129"/><text fill="#000000" font-family="sans-serif" font-size="14" lengthAdjust="spacingAndGlyphs" textLength="84" x="37" y="707.3662">타자프로그램</text><path d="M10,60.2295 L171,60.2295 L171,69.2295 L161,79.2295 L10,79.2295 L10,60.2295 " fill="#EEEEEE" style="stroke: #000000; stroke-width: 1.0;"/><rect fill="none" height="607.9834" style="stroke: #000000; stroke-width: 2.0;" width="199" x="10" y="60.2295"/><text fill="#000000" font-family="sans-serif" font-size="13" font-weight="bold" lengthAdjust="spacingAndGlyphs" textLength="116.4375" x="25" y="76.229">UC01 타자프로그램</text><path d="M20,87.0854 L143,87.0854 L143,96.0854 L133,106.0854 L20,106.0854 L20,87.0854 " fill="#EEEEEE" style="stroke: #000000; stroke-width: 1.0;"/><rect fill="none" height="109.5679" style="stroke: #000000; stroke-width: 2.0;" width="179" x="20" y="87.0854"/><text fill="#000000" font-family="sans-serif" font-size="13" font-weight="bold" lengthAdjust="spacingAndGlyphs" textLength="78" x="35" y="103.085">playTyping()</text><line style="stroke: #A80036; stroke-width: 1.0;" x1="81" x2="123" y1="130.7974" y2="130.7974"/><line style="stroke: #A80036; stroke-width: 1.0;" x1="123" x2="123" y1="130.7974" y2="143.7974"/><line style="stroke: #A80036; stroke-width: 1.0;" x1="82" x2="123" y1="143.7974" y2="143.7974"/><polygon fill="#A80036" points="92,139.7974,82,143.7974,92,147.7974,88,143.7974" style="stroke: #A80036; stroke-width: 1.0;"/><text fill="#000000" font-family="sans-serif" font-size="13" lengthAdjust="spacingAndGlyphs" textLength="86" x="88" y="125.9409">parameterSet()</text><line style="stroke: #A80036; stroke-width: 1.0; stroke-dasharray: 2.0,2.0;" x1="81" x2="123" y1="175.6533" y2="175.6533"/><line style="stroke: #A80036; stroke-width: 1.0; stroke-dasharray: 2.0,2.0;" x1="123" x2="123" y1="175.6533" y2="188.6533"/><line style="stroke: #A80036; stroke-width: 1.0; stroke-dasharray: 2.0,2.0;" x1="82" x2="123" y1="188.6533" y2="188.6533"/><polygon fill="#A80036" points="92,184.6533,82,188.6533,92,192.6533,88,188.6533" style="stroke: #A80036; stroke-width: 1.0;"/><text fill="#000000" font-family="sans-serif" font-size="13" lengthAdjust="spacingAndGlyphs" textLength="99" x="88" y="170.7969">타겟 파일을 반환</text><line style="stroke: #A80036; stroke-width: 1.0;" x1="81" x2="123" y1="227.5093" y2="227.5093"/><line style="stroke: #A80036; stroke-width: 1.0;" x1="123" x2="123" y1="227.5093" y2="240.5093"/><line style="stroke: #A80036; stroke-width: 1.0;" x1="82" x2="123" y1="240.5093" y2="240.5093"/><polygon fill="#A80036" points="92,236.5093,82,240.5093,92,244.5093,88,240.5093" style="stroke: #A80036; stroke-width: 1.0;"/><text fill="#000000" font-family="sans-serif" font-size="13" lengthAdjust="spacingAndGlyphs" textLength="68" x="88" y="222.6528">loadTarget()</text><line style="stroke: #A80036; stroke-width: 1.0;" x1="81" x2="123" y1="272.3652" y2="272.3652"/><line style="stroke: #A80036; stroke-width: 1.0;" x1="123" x2="123" y1="272.3652" y2="285.3652"/><line style="stroke: #A80036; stroke-width: 1.0;" x1="82" x2="123" y1="285.3652" y2="285.3652"/><polygon fill="#A80036" points="92,281.3652,82,285.3652,92,289.3652,88,285.3652" style="stroke: #A80036; stroke-width: 1.0;"/><text fill="#000000" font-family="sans-serif" font-size="13" lengthAdjust="spacingAndGlyphs" textLength="70" x="88" y="267.5088">inputName()</text><line style="stroke: #A80036; stroke-width: 1.0;" x1="81" x2="123" y1="317.2212" y2="317.2212"/><line style="stroke: #A80036; stroke-width: 1.0;" x1="123" x2="123" y1="317.2212" y2="330.2212"/><line style="stroke: #A80036; stroke-width: 1.0;" x1="82" x2="123" y1="330.2212" y2="330.2212"/><polygon fill="#A80036" points="92,326.2212,82,330.2212,92,334.2212,88,330.2212" style="stroke: #A80036; stroke-width: 1.0;"/><text fill="#000000" font-family="sans-serif" font-size="13" lengthAdjust="spacingAndGlyphs" textLength="103" x="88" y="312.3647">checkTime(name)</text><path d="M20,345.2212 L112,345.2212 L112,354.2212 L102,364.2212 L20,364.2212 L20,345.2212 " fill="#EEEEEE" style="stroke: #000000; stroke-width: 1.0;"/><rect fill="none" height="226.2798" style="stroke: #000000; stroke-width: 2.0;" width="157" x="20" y="345.2212"/><text fill="#000000" font-family="sans-serif" font-size="13" font-weight="bold" lengthAdjust="spacingAndGlyphs" textLength="47" x="35" y="361.2207">typing()</text><line style="stroke: #A80036; stroke-width: 1.0;" x1="81" x2="123" y1="388.9331" y2="388.9331"/><line style="stroke: #A80036; stroke-width: 1.0;" x1="123" x2="123" y1="388.9331" y2="401.9331"/><line style="stroke: #A80036; stroke-width: 1.0;" x1="82" x2="123" y1="401.9331" y2="401.9331"/><polygon fill="#A80036" points="92,397.9331,82,401.9331,92,405.9331,88,401.9331" style="stroke: #A80036; stroke-width: 1.0;"/><text fill="#000000" font-family="sans-serif" font-size="13" lengthAdjust="spacingAndGlyphs" textLength="66" x="88" y="384.0767">checkEnd()</text><line style="stroke: #A80036; stroke-width: 1.0;" x1="81" x2="123" y1="433.7891" y2="433.7891"/><line style="stroke: #A80036; stroke-width: 1.0;" x1="123" x2="123" y1="433.7891" y2="446.7891"/><line style="stroke: #A80036; stroke-width: 1.0;" x1="82" x2="123" y1="446.7891" y2="446.7891"/><polygon fill="#A80036" points="92,442.7891,82,446.7891,92,450.7891,88,446.7891" style="stroke: #A80036; stroke-width: 1.0;"/><text fill="#000000" font-family="sans-serif" font-size="13" lengthAdjust="spacingAndGlyphs" textLength="60" x="88" y="428.9326">inputLine()</text><line style="stroke: #A80036; stroke-width: 1.0;" x1="81" x2="123" y1="478.645" y2="478.645"/><line style="stroke: #A80036; stroke-width: 1.0;" x1="123" x2="123" y1="478.645" y2="491.645"/><line style="stroke: #A80036; stroke-width: 1.0;" x1="82" x2="123" y1="491.645" y2="491.645"/><polygon fill="#A80036" points="92,487.645,82,491.645,92,495.645,88,491.645" style="stroke: #A80036; stroke-width: 1.0;"/><text fill="#000000" font-family="sans-serif" font-size="13" lengthAdjust="spacingAndGlyphs" textLength="66" x="88" y="473.7886">checkAns()</text><line style="stroke: #A80036; stroke-width: 1.0;" x1="81" x2="123" y1="523.501" y2="523.501"/><line style="stroke: #A80036; stroke-width: 1.0;" x1="123" x2="123" y1="523.501" y2="536.501"/><line style="stroke: #A80036; stroke-width: 1.0;" x1="82" x2="123" y1="536.501" y2="536.501"/><polygon fill="#A80036" points="92,532.501,82,536.501,92,540.501,88,536.501" style="stroke: #A80036; stroke-width: 1.0;"/><text fill="#000000" font-family="sans-serif" font-size="13" lengthAdjust="spacingAndGlyphs" textLength="77" x="88" y="518.6445">getNextLine()</text><line style="stroke: #A80036; stroke-width: 1.0; stroke-dasharray: 2.0,2.0;" x1="81" x2="123" y1="550.501" y2="550.501"/><line style="stroke: #A80036; stroke-width: 1.0; stroke-dasharray: 2.0,2.0;" x1="123" x2="123" y1="550.501" y2="563.501"/><line style="stroke: #A80036; stroke-width: 1.0; stroke-dasharray: 2.0,2.0;" x1="82" x2="123" y1="563.501" y2="563.501"/><polygon fill="#A80036" points="92,559.501,82,563.501,92,567.501,88,563.501" style="stroke: #A80036; stroke-width: 1.0;"/><line style="stroke: #A80036; stroke-width: 1.0;" x1="81" x2="123" y1="602.3569" y2="602.3569"/><line style="stroke: #A80036; stroke-width: 1.0;" x1="123" x2="123" y1="602.3569" y2="615.3569"/><line style="stroke: #A80036; stroke-width: 1.0;" x1="82" x2="123" y1="615.3569" y2="615.3569"/><polygon fill="#A80036" points="92,611.3569,82,615.3569,92,619.3569,88,615.3569" style="stroke: #A80036; stroke-width: 1.0;"/><text fill="#000000" font-family="sans-serif" font-size="13" lengthAdjust="spacingAndGlyphs" textLength="71" x="88" y="597.5005">checkTime()</text><line style="stroke: #A80036; stroke-width: 1.0;" x1="81" x2="123" y1="647.2129" y2="647.2129"/><line style="stroke: #A80036; stroke-width: 1.0;" x1="123" x2="123" y1="647.2129" y2="660.2129"/><line style="stroke: #A80036; stroke-width: 1.0;" x1="82" x2="123" y1="660.2129" y2="660.2129"/><polygon fill="#A80036" points="92,656.2129,82,660.2129,92,664.2129,88,660.2129" style="stroke: #A80036; stroke-width: 1.0;"/><text fill="#000000" font-family="sans-serif" font-size="13" lengthAdjust="spacingAndGlyphs" textLength="38" x="88" y="642.3564">finish()</text><!--MD5=[bb67bf78ebf1f0e2305dc03dead607c7]
@startuml
group UC01 타자프로그램
	group playTyping()
		타자프로그램->타자프로그램 : parameterSet()
	타자프로그램- ->타자프로그램 :  타겟 파일을 반환
	end
	타자프로그램->타자프로그램 : loadTarget()
	타자프로그램->타자프로그램 : inputName()
	타자프로그램->타자프로그램 : checkTime(name)
	group typing()
		타자프로그램->타자프로그램 : checkEnd()
		타자프로그램->타자프로그램 : inputLine()
		타자프로그램->타자프로그램 : checkAns()
		타자프로그램->타자프로그램 : getNextLine()
	타자프로그램- ->타자프로그램 : 
	end
	타자프로그램->타자프로그램 : checkTime()
	타자프로그램->타자프로그램 : finish()
end
@enduml

PlantUML version 1.2020.19(Tue Oct 13 00:10:01 KST 2020)
(APACHE source distribution)
Java Runtime: OpenJDK Runtime Environment
JVM: OpenJDK 64-Bit Server VM
Default Encoding: MS949
Language: ko
Country: KR
--></g></svg>