<?xml version="1.0" encoding="UTF-8" standalone="no"?><svg xmlns="http://www.w3.org/2000/svg" xmlns:xlink="http://www.w3.org/1999/xlink" contentScriptType="application/ecmascript" contentStyleType="text/css" height="713px" preserveAspectRatio="none" style="width:219px;height:713px;" version="1.1" viewBox="0 0 219 713" width="219px" zoomAndPan="magnify"><defs><filter height="300%" id="f19wa8i90meoil" width="300%" x="-1" y="-1"><feGaussianBlur result="blurOut" stdDeviation="2.0"/><feColorMatrix in="blurOut" result="blurOut2" type="matrix" values="0 0 0 0 0 0 0 0 0 0 0 0 0 0 0 0 0 0 .4 0"/><feOffset dx="4.0" dy="4.0" in="blurOut2" result="blurOut3"/><feBlend in="SourceGraphic" in2="blurOut3" mode="normal"/></filter></defs><g><rect fill="#FFFFFF" filter="url(#f19wa8i90meoil)" height="590.1274" style="stroke: #000000; stroke-width: 2.0;" width="195.5" x="10" y="60.2295"/><rect fill="#FFFFFF" filter="url(#f19wa8i90meoil)" height="91.7119" style="stroke: #000000; stroke-width: 2.0;" width="168.5" x="20" y="87.0854"/><rect fill="#FFFFFF" filter="url(#f19wa8i90meoil)" height="226.2798" style="stroke: #000000; stroke-width: 2.0;" width="159.5" x="20" y="327.3652"/><line style="stroke: #A80036; stroke-width: 1.0; stroke-dasharray: 5.0,5.0;" x1="83" x2="83" y1="43.2295" y2="667.3569"/><rect fill="#FEFECE" filter="url(#f19wa8i90meoil)" height="33.2295" style="stroke: #A80036; stroke-width: 1.5;" width="103" x="30" y="5"/><text fill="#000000" font-family="sans-serif" font-size="14" lengthAdjust="spacingAndGlyphs" textLength="89" x="37" y="28.1533">TypingSystem</text><rect fill="#FEFECE" filter="url(#f19wa8i90meoil)" height="33.2295" style="stroke: #A80036; stroke-width: 1.5;" width="103" x="30" y="666.3569"/><text fill="#000000" font-family="sans-serif" font-size="14" lengthAdjust="spacingAndGlyphs" textLength="89" x="37" y="689.5103">TypingSystem</text><path d="M10,60.2295 L180,60.2295 L180,69.2295 L170,79.2295 L10,79.2295 L10,60.2295 " fill="#EEEEEE" style="stroke: #000000; stroke-width: 1.0;"/><rect fill="none" height="590.1274" style="stroke: #000000; stroke-width: 2.0;" width="195.5" x="10" y="60.2295"/><text fill="#000000" font-family="sans-serif" font-size="13" font-weight="bold" lengthAdjust="spacingAndGlyphs" textLength="125" x="25" y="76.229">UC01 TypingSystem</text><path d="M20,87.0854 L143,87.0854 L143,96.0854 L133,106.0854 L20,106.0854 L20,87.0854 " fill="#EEEEEE" style="stroke: #000000; stroke-width: 1.0;"/><rect fill="none" height="91.7119" style="stroke: #000000; stroke-width: 2.0;" width="168.5" x="20" y="87.0854"/><text fill="#000000" font-family="sans-serif" font-size="13" font-weight="bold" lengthAdjust="spacingAndGlyphs" textLength="78" x="35" y="103.085">playTyping()</text><line style="stroke: #A80036; stroke-width: 1.0;" x1="83.5" x2="125.5" y1="130.7974" y2="130.7974"/><line style="stroke: #A80036; stroke-width: 1.0;" x1="125.5" x2="125.5" y1="130.7974" y2="143.7974"/><line style="stroke: #A80036; stroke-width: 1.0;" x1="84.5" x2="125.5" y1="143.7974" y2="143.7974"/><polygon fill="#A80036" points="94.5,139.7974,84.5,143.7974,94.5,147.7974,90.5,143.7974" style="stroke: #A80036; stroke-width: 1.0;"/><text fill="#000000" font-family="sans-serif" font-size="13" lengthAdjust="spacingAndGlyphs" textLength="86" x="90.5" y="125.9409">parameterSet()</text><line style="stroke: #A80036; stroke-width: 1.0; stroke-dasharray: 2.0,2.0;" x1="83.5" x2="125.5" y1="157.7974" y2="157.7974"/><line style="stroke: #A80036; stroke-width: 1.0; stroke-dasharray: 2.0,2.0;" x1="125.5" x2="125.5" y1="157.7974" y2="170.7974"/><line style="stroke: #A80036; stroke-width: 1.0; stroke-dasharray: 2.0,2.0;" x1="84.5" x2="125.5" y1="170.7974" y2="170.7974"/><polygon fill="#A80036" points="94.5,166.7974,84.5,170.7974,94.5,174.7974,90.5,170.7974" style="stroke: #A80036; stroke-width: 1.0;"/><line style="stroke: #A80036; stroke-width: 1.0;" x1="83.5" x2="125.5" y1="209.6533" y2="209.6533"/><line style="stroke: #A80036; stroke-width: 1.0;" x1="125.5" x2="125.5" y1="209.6533" y2="222.6533"/><line style="stroke: #A80036; stroke-width: 1.0;" x1="84.5" x2="125.5" y1="222.6533" y2="222.6533"/><polygon fill="#A80036" points="94.5,218.6533,84.5,222.6533,94.5,226.6533,90.5,222.6533" style="stroke: #A80036; stroke-width: 1.0;"/><text fill="#000000" font-family="sans-serif" font-size="13" lengthAdjust="spacingAndGlyphs" textLength="68" x="90.5" y="204.7969">loadTarget()</text><line style="stroke: #A80036; stroke-width: 1.0;" x1="83.5" x2="125.5" y1="254.5093" y2="254.5093"/><line style="stroke: #A80036; stroke-width: 1.0;" x1="125.5" x2="125.5" y1="254.5093" y2="267.5093"/><line style="stroke: #A80036; stroke-width: 1.0;" x1="84.5" x2="125.5" y1="267.5093" y2="267.5093"/><polygon fill="#A80036" points="94.5,263.5093,84.5,267.5093,94.5,271.5093,90.5,267.5093" style="stroke: #A80036; stroke-width: 1.0;"/><text fill="#000000" font-family="sans-serif" font-size="13" lengthAdjust="spacingAndGlyphs" textLength="70" x="90.5" y="249.6528">inputName()</text><line style="stroke: #A80036; stroke-width: 1.0;" x1="83.5" x2="125.5" y1="299.3652" y2="299.3652"/><line style="stroke: #A80036; stroke-width: 1.0;" x1="125.5" x2="125.5" y1="299.3652" y2="312.3652"/><line style="stroke: #A80036; stroke-width: 1.0;" x1="84.5" x2="125.5" y1="312.3652" y2="312.3652"/><polygon fill="#A80036" points="94.5,308.3652,84.5,312.3652,94.5,316.3652,90.5,312.3652" style="stroke: #A80036; stroke-width: 1.0;"/><text fill="#000000" font-family="sans-serif" font-size="13" lengthAdjust="spacingAndGlyphs" textLength="103" x="90.5" y="294.5088">checkTime(name)</text><path d="M20,327.3652 L112,327.3652 L112,336.3652 L102,346.3652 L20,346.3652 L20,327.3652 " fill="#EEEEEE" style="stroke: #000000; stroke-width: 1.0;"/><rect fill="none" height="226.2798" style="stroke: #000000; stroke-width: 2.0;" width="159.5" x="20" y="327.3652"/><text fill="#000000" font-family="sans-serif" font-size="13" font-weight="bold" lengthAdjust="spacingAndGlyphs" textLength="47" x="35" y="343.3647">typing()</text><line style="stroke: #A80036; stroke-width: 1.0;" x1="83.5" x2="125.5" y1="371.0771" y2="371.0771"/><line style="stroke: #A80036; stroke-width: 1.0;" x1="125.5" x2="125.5" y1="371.0771" y2="384.0771"/><line style="stroke: #A80036; stroke-width: 1.0;" x1="84.5" x2="125.5" y1="384.0771" y2="384.0771"/><polygon fill="#A80036" points="94.5,380.0771,84.5,384.0771,94.5,388.0771,90.5,384.0771" style="stroke: #A80036; stroke-width: 1.0;"/><text fill="#000000" font-family="sans-serif" font-size="13" lengthAdjust="spacingAndGlyphs" textLength="66" x="90.5" y="366.2207">checkEnd()</text><line style="stroke: #A80036; stroke-width: 1.0;" x1="83.5" x2="125.5" y1="415.9331" y2="415.9331"/><line style="stroke: #A80036; stroke-width: 1.0;" x1="125.5" x2="125.5" y1="415.9331" y2="428.9331"/><line style="stroke: #A80036; stroke-width: 1.0;" x1="84.5" x2="125.5" y1="428.9331" y2="428.9331"/><polygon fill="#A80036" points="94.5,424.9331,84.5,428.9331,94.5,432.9331,90.5,428.9331" style="stroke: #A80036; stroke-width: 1.0;"/><text fill="#000000" font-family="sans-serif" font-size="13" lengthAdjust="spacingAndGlyphs" textLength="60" x="90.5" y="411.0767">inputLine()</text><line style="stroke: #A80036; stroke-width: 1.0;" x1="83.5" x2="125.5" y1="460.7891" y2="460.7891"/><line style="stroke: #A80036; stroke-width: 1.0;" x1="125.5" x2="125.5" y1="460.7891" y2="473.7891"/><line style="stroke: #A80036; stroke-width: 1.0;" x1="84.5" x2="125.5" y1="473.7891" y2="473.7891"/><polygon fill="#A80036" points="94.5,469.7891,84.5,473.7891,94.5,477.7891,90.5,473.7891" style="stroke: #A80036; stroke-width: 1.0;"/><text fill="#000000" font-family="sans-serif" font-size="13" lengthAdjust="spacingAndGlyphs" textLength="66" x="90.5" y="455.9326">checkAns()</text><line style="stroke: #A80036; stroke-width: 1.0;" x1="83.5" x2="125.5" y1="505.645" y2="505.645"/><line style="stroke: #A80036; stroke-width: 1.0;" x1="125.5" x2="125.5" y1="505.645" y2="518.645"/><line style="stroke: #A80036; stroke-width: 1.0;" x1="84.5" x2="125.5" y1="518.645" y2="518.645"/><polygon fill="#A80036" points="94.5,514.645,84.5,518.645,94.5,522.645,90.5,518.645" style="stroke: #A80036; stroke-width: 1.0;"/><text fill="#000000" font-family="sans-serif" font-size="13" lengthAdjust="spacingAndGlyphs" textLength="77" x="90.5" y="500.7886">getNextLine()</text><line style="stroke: #A80036; stroke-width: 1.0; stroke-dasharray: 2.0,2.0;" x1="83.5" x2="125.5" y1="532.645" y2="532.645"/><line style="stroke: #A80036; stroke-width: 1.0; stroke-dasharray: 2.0,2.0;" x1="125.5" x2="125.5" y1="532.645" y2="545.645"/><line style="stroke: #A80036; stroke-width: 1.0; stroke-dasharray: 2.0,2.0;" x1="84.5" x2="125.5" y1="545.645" y2="545.645"/><polygon fill="#A80036" points="94.5,541.645,84.5,545.645,94.5,549.645,90.5,545.645" style="stroke: #A80036; stroke-width: 1.0;"/><line style="stroke: #A80036; stroke-width: 1.0;" x1="83.5" x2="125.5" y1="584.501" y2="584.501"/><line style="stroke: #A80036; stroke-width: 1.0;" x1="125.5" x2="125.5" y1="584.501" y2="597.501"/><line style="stroke: #A80036; stroke-width: 1.0;" x1="84.5" x2="125.5" y1="597.501" y2="597.501"/><polygon fill="#A80036" points="94.5,593.501,84.5,597.501,94.5,601.501,90.5,597.501" style="stroke: #A80036; stroke-width: 1.0;"/><text fill="#000000" font-family="sans-serif" font-size="13" lengthAdjust="spacingAndGlyphs" textLength="71" x="90.5" y="579.6445">checkTime()</text><line style="stroke: #A80036; stroke-width: 1.0;" x1="83.5" x2="125.5" y1="629.3569" y2="629.3569"/><line style="stroke: #A80036; stroke-width: 1.0;" x1="125.5" x2="125.5" y1="629.3569" y2="642.3569"/><line style="stroke: #A80036; stroke-width: 1.0;" x1="84.5" x2="125.5" y1="642.3569" y2="642.3569"/><polygon fill="#A80036" points="94.5,638.3569,84.5,642.3569,94.5,646.3569,90.5,642.3569" style="stroke: #A80036; stroke-width: 1.0;"/><text fill="#000000" font-family="sans-serif" font-size="13" lengthAdjust="spacingAndGlyphs" textLength="38" x="90.5" y="624.5005">finish()</text><!--MD5=[b43d7abdd272748bf26f8141d4f599fb]
@startuml
group UC01 TypingSystem
	group playTyping()
		TypingSystem->TypingSystem : parameterSet()
	TypingSystem- ->TypingSystem : 
	end
	TypingSystem->TypingSystem : loadTarget()
	TypingSystem->TypingSystem : inputName()
	TypingSystem->TypingSystem : checkTime(name)
	group typing()
		TypingSystem->TypingSystem : checkEnd()
		TypingSystem->TypingSystem : inputLine()
		TypingSystem->TypingSystem : checkAns()
		TypingSystem->TypingSystem : getNextLine()
	TypingSystem- ->TypingSystem : 
	end
	TypingSystem->TypingSystem : checkTime()
	TypingSystem->TypingSystem : finish()
end
@enduml

PlantUML version 1.2020.19(Tue Oct 13 00:10:01 KST 2020)
(APACHE source distribution)
Java Runtime: OpenJDK Runtime Environment
JVM: OpenJDK 64-Bit Server VM
Default Encoding: MS949
Language: ko
Country: KR
--></g></svg>