<?xml version="1.0" encoding="UTF-8" standalone="no"?><svg xmlns="http://www.w3.org/2000/svg" xmlns:xlink="http://www.w3.org/1999/xlink" contentScriptType="application/ecmascript" contentStyleType="text/css" height="633px" preserveAspectRatio="none" style="width:518px;height:633px;" version="1.1" viewBox="0 0 518 633" width="518px" zoomAndPan="magnify"><defs><filter height="300%" id="f1rt5n98mnskol" width="300%" x="-1" y="-1"><feGaussianBlur result="blurOut" stdDeviation="2.0"/><feColorMatrix in="blurOut" result="blurOut2" type="matrix" values="0 0 0 0 0 0 0 0 0 0 0 0 0 0 0 0 0 0 .4 0"/><feOffset dx="4.0" dy="4.0" in="blurOut2" result="blurOut3"/><feBlend in="SourceGraphic" in2="blurOut3" mode="normal"/></filter></defs><g><!--MD5=[5f91af18fd7ff81a6db4ed91970b7244]
cluster MainSys--><rect fill="#FFFFFF" filter="url(#f1rt5n98mnskol)" height="614" style="stroke: #000000; stroke-width: 1.5;" width="413" x="93" y="7"/><text fill="#000000" font-family="sans-serif" font-size="14" font-weight="bold" lengthAdjust="spacingAndGlyphs" textLength="90" x="254.5" y="25.1533">GameSystem</text><ellipse cx="165.7401" cy="325.0973" fill="#FEFECE" filter="url(#f1rt5n98mnskol)" rx="56.7401" ry="16.5973" style="stroke: #A80036; stroke-width: 1.5;"/><text fill="#000000" font-family="sans-serif" font-size="14" lengthAdjust="spacingAndGlyphs" textLength="76" x="127.7401" y="331.2121">UC01_FL04</text><!--MD5=[5f3a13802cc03190706f5c316a92c9d9]
entity UC01_FL01--><ellipse cx="452" cy="411.5" fill="#FEFECE" filter="url(#f1rt5n98mnskol)" rx="8" ry="8" style="stroke: #A80036; stroke-width: 1.5;"/><path d="M452,419.5 L452,446.5 M439,427.5 L465,427.5 M452,446.5 L439,461.5 M452,446.5 L465,461.5 " fill="none" filter="url(#f1rt5n98mnskol)" style="stroke: #A80036; stroke-width: 1.5;"/><text fill="#000000" font-family="sans-serif" font-size="14" lengthAdjust="spacingAndGlyphs" textLength="76" x="414" y="483.1533">UC01_FL01</text><!--MD5=[17de3fea0f098903a996feb4041da59b]
entity UC01_FL02--><ellipse cx="452" cy="292.5" fill="#FEFECE" filter="url(#f1rt5n98mnskol)" rx="8" ry="8" style="stroke: #A80036; stroke-width: 1.5;"/><path d="M452,300.5 L452,327.5 M439,308.5 L465,308.5 M452,327.5 L439,342.5 M452,327.5 L465,342.5 " fill="none" filter="url(#f1rt5n98mnskol)" style="stroke: #A80036; stroke-width: 1.5;"/><text fill="#000000" font-family="sans-serif" font-size="14" lengthAdjust="spacingAndGlyphs" textLength="76" x="414" y="364.1533">UC01_FL02</text><!--MD5=[501d9c0dff06806f7ce4d86aff9c4408]
entity UC01_FL03--><ellipse cx="452" cy="173.5" fill="#FEFECE" filter="url(#f1rt5n98mnskol)" rx="8" ry="8" style="stroke: #A80036; stroke-width: 1.5;"/><path d="M452,181.5 L452,208.5 M439,189.5 L465,189.5 M452,208.5 L439,223.5 M452,208.5 L465,223.5 " fill="none" filter="url(#f1rt5n98mnskol)" style="stroke: #A80036; stroke-width: 1.5;"/><text fill="#000000" font-family="sans-serif" font-size="14" lengthAdjust="spacingAndGlyphs" textLength="76" x="414" y="245.1533">UC01_FL03</text><!--MD5=[15f06206558e18a3d856a8a86b9b7ab6]
entity UC01_FL04--><ellipse cx="452" cy="54.5" fill="#FEFECE" filter="url(#f1rt5n98mnskol)" rx="8" ry="8" style="stroke: #A80036; stroke-width: 1.5;"/><path d="M452,62.5 L452,89.5 M439,70.5 L465,70.5 M452,89.5 L439,104.5 M452,89.5 L465,104.5 " fill="none" filter="url(#f1rt5n98mnskol)" style="stroke: #A80036; stroke-width: 1.5;"/><text fill="#000000" font-family="sans-serif" font-size="14" lengthAdjust="spacingAndGlyphs" textLength="76" x="414" y="126.1533">UC01_FL04</text><ellipse cx="165.7401" cy="504.0973" fill="#FEFECE" filter="url(#f1rt5n98mnskol)" rx="56.7401" ry="16.5973" style="stroke: #A80036; stroke-width: 1.5;"/><text fill="#000000" font-family="sans-serif" font-size="14" lengthAdjust="spacingAndGlyphs" textLength="76" x="127.7401" y="510.2121">UC02_FL01</text><!--MD5=[8ef701b702482f7f5b3bc04b87e77806]
entity UC02_FL01--><ellipse cx="452" cy="530.5" fill="#FEFECE" filter="url(#f1rt5n98mnskol)" rx="8" ry="8" style="stroke: #A80036; stroke-width: 1.5;"/><path d="M452,538.5 L452,565.5 M439,546.5 L465,546.5 M452,565.5 L439,580.5 M452,565.5 L465,580.5 " fill="none" filter="url(#f1rt5n98mnskol)" style="stroke: #A80036; stroke-width: 1.5;"/><text fill="#000000" font-family="sans-serif" font-size="14" lengthAdjust="spacingAndGlyphs" textLength="76" x="414" y="602.1533">UC02_FL01</text><!--MD5=[6d35a3f10fabd2e47fa2124ab77a3790]
entity ACTOR01--><ellipse cx="26" cy="382.5" fill="#FF0000" filter="url(#f1rt5n98mnskol)" rx="8" ry="8" style="stroke: #A80036; stroke-width: 1.5;"/><path d="M26,390.5 L26,417.5 M13,398.5 L39,398.5 M26,417.5 L13,432.5 M26,417.5 L39,432.5 " fill="none" filter="url(#f1rt5n98mnskol)" style="stroke: #A80036; stroke-width: 1.5;"/><text fill="#000000" font-family="sans-serif" font-size="14" lengthAdjust="spacingAndGlyphs" textLength="40" x="6" y="454.1533">Player</text><!--MD5=[7600dd2a4a801847f3244db1749bcf6e]
link UC01 to UC01_FL01--><path d="M198.58,338.42 C251.62,360.61 357.32,404.82 413.64,428.37 " fill="none" id="UC01-UC01_FL01" style="stroke: #A80036; stroke-width: 1.0;"/><text fill="#000000" font-family="sans-serif" font-size="13" lengthAdjust="spacingAndGlyphs" textLength="130" x="253" y="360.9995">&lt;color&gt; not implement</text><!--MD5=[1ddb1e08af6c76f549260bf71ce626b9]
link UC01 to UC01_FL02--><path d="M222.03,325 C278.63,325 364.84,325 413.74,325 " fill="none" id="UC01-UC01_FL02" style="stroke: #A80036; stroke-width: 1.0;"/><text fill="#000000" font-family="sans-serif" font-size="13" lengthAdjust="spacingAndGlyphs" textLength="130" x="253" y="321.9995">&lt;color&gt; not implement</text><!--MD5=[6075407065b697bf4275057aa57770df]
link UC01 to UC01_FL03--><path d="M198.58,311.58 C251.62,289.39 357.32,245.18 413.64,221.63 " fill="none" id="UC01-UC01_FL03" style="stroke: #A80036; stroke-width: 1.0;"/><text fill="#000000" font-family="sans-serif" font-size="13" lengthAdjust="spacingAndGlyphs" textLength="130" x="253" y="231.9995">&lt;color&gt; not implement</text><!--MD5=[f2d7b7008d3ba360fa06179f558ff45c]
link UC01 to UC01_FL04--><path d="M175.58,308.69 C189.61,284.54 218.47,238.81 252,208 C301.88,162.18 371.68,124.52 413.98,103.96 " fill="none" id="UC01-UC01_FL04" style="stroke: #A80036; stroke-width: 1.0;"/><text fill="#000000" font-family="sans-serif" font-size="13" lengthAdjust="spacingAndGlyphs" textLength="130" x="253" y="118.9995">&lt;color&gt; not implement</text><!--MD5=[d7c58cdb2c76f4e2dfed1ba4a4eaf6c0]
link ACTOR01 to UC01--><path d="M46.12,402.49 C71.06,386.16 114.66,357.62 141.42,340.11 " fill="none" id="ACTOR01-UC01" style="stroke: #A80036; stroke-width: 1.0;"/><!--MD5=[d692e3e131f7b18efa74b431ddca0172]
link UC02 to UC02_FL01--><path d="M182.08,520.08 C198,535.27 224.27,557 252,566 C306.23,583.59 373.22,577.26 414,570.54 " fill="none" id="UC02-UC02_FL01" style="stroke: #A80036; stroke-width: 1.0;"/><text fill="#000000" font-family="sans-serif" font-size="13" lengthAdjust="spacingAndGlyphs" textLength="130" x="253" y="562.9995">&lt;color&gt; not implement</text><!--MD5=[d692e3e131f7b18efa74b431ddca0172]
link UC02 to UC02_FL01--><path d="M216.5,511.32 C260.8,518.2 327.09,529.45 384,543 C393.8,545.33 404.29,548.26 413.99,551.14 " fill="none" id="UC02-UC02_FL01-1" style="stroke: #A80036; stroke-width: 1.0;"/><text fill="#000000" font-family="sans-serif" font-size="13" lengthAdjust="spacingAndGlyphs" textLength="130" x="253" y="514.9995">&lt;color&gt; not implement</text><!--MD5=[295d201d4e49fabf145f874b6a862c17]
link ACTOR01 to UC02--><path d="M46.12,427.38 C71.06,443.52 114.66,471.74 141.42,489.06 " fill="none" id="ACTOR01-UC02" style="stroke: #A80036; stroke-width: 1.0;"/><!--MD5=[d952ad549d0caf53879d28dc74d2ac91]
@startuml
 left to right direction
	 actor "Player" as ACTOR01#red
rectangle "GameSystem" as MainSys{
	usecase "null" as UC01
		usecase "UC01_FL01" as UC01
			UC01- -UC01_FL01 :<color> not implement 
		usecase "UC01_FL02" as UC01
			UC01- -UC01_FL02 :<color> not implement 
		usecase "UC01_FL03" as UC01
			UC01- -UC01_FL03 :<color> not implement 
		usecase "UC01_FL04" as UC01
			UC01- -UC01_FL04 :<color> not implement 
		ACTOR01- -UC01
	usecase "null" as UC02
		usecase "UC02_FL01" as UC02
			UC02- -UC02_FL01 :<color> not implement 
		usecase "UC02_FL01" as UC02
			UC02- -UC02_FL01 :<color> not implement 
		ACTOR01- -UC02
}

@enduml@startuml

PlantUML version 1.2020.19(Tue Oct 13 00:10:01 KST 2020)
(APACHE source distribution)
Java Runtime: OpenJDK Runtime Environment
JVM: OpenJDK 64-Bit Server VM
Default Encoding: MS949
Language: ko
Country: KR
--></g></svg>