<?xml version="1.0" encoding="UTF-8" standalone="no"?><svg xmlns="http://www.w3.org/2000/svg" xmlns:xlink="http://www.w3.org/1999/xlink" contentScriptType="application/ecmascript" contentStyleType="text/css" height="630px" preserveAspectRatio="none" style="width:434px;height:630px;" version="1.1" viewBox="0 0 434 630" width="434px" zoomAndPan="magnify"><defs><filter height="300%" id="f1u9w9uhxm1nkq" width="300%" x="-1" y="-1"><feGaussianBlur result="blurOut" stdDeviation="2.0"/><feColorMatrix in="blurOut" result="blurOut2" type="matrix" values="0 0 0 0 0 0 0 0 0 0 0 0 0 0 0 0 0 0 .4 0"/><feOffset dx="4.0" dy="4.0" in="blurOut2" result="blurOut3"/><feBlend in="SourceGraphic" in2="blurOut3" mode="normal"/></filter></defs><g><rect fill="#FFFFFF" filter="url(#f1u9w9uhxm1nkq)" height="362.5596" style="stroke: #000000; stroke-width: 2.0;" width="410" x="10" y="60.2295"/><rect fill="#FFFFFF" filter="url(#f1u9w9uhxm1nkq)" height="207.1357" style="stroke: #000000; stroke-width: 2.0;" width="309" x="101" y="163.7974"/><rect fill="#FFFFFF" filter="url(#f1u9w9uhxm1nkq)" height="83.5679" style="stroke: #000000; stroke-width: 2.0;" width="289" x="111" y="190.6533"/><rect fill="#FFFFFF" filter="url(#f1u9w9uhxm1nkq)" height="96.5679" style="stroke: #000000; stroke-width: 2.0;" width="223" x="10" y="436.7891"/><rect fill="#FFFFFF" filter="url(#f1u9w9uhxm1nkq)" height="19.856" style="stroke: #000000; stroke-width: 2.0;" width="190" x="30" y="547.3569"/><line style="stroke: #A80036; stroke-width: 1.0; stroke-dasharray: 5.0,5.0;" x1="49" x2="49" y1="43.2295" y2="584.2129"/><line style="stroke: #A80036; stroke-width: 1.0; stroke-dasharray: 5.0,5.0;" x1="172" x2="172" y1="43.2295" y2="584.2129"/><line style="stroke: #A80036; stroke-width: 1.0; stroke-dasharray: 5.0,5.0;" x1="367" x2="367" y1="43.2295" y2="584.2129"/><rect fill="#FEFECE" filter="url(#f1u9w9uhxm1nkq)" height="33.2295" style="stroke: #A80036; stroke-width: 1.5;" width="54" x="20" y="5"/><text fill="#000000" font-family="sans-serif" font-size="14" lengthAdjust="spacingAndGlyphs" textLength="40" x="27" y="28.1533">Player</text><rect fill="#FEFECE" filter="url(#f1u9w9uhxm1nkq)" height="33.2295" style="stroke: #A80036; stroke-width: 1.5;" width="54" x="20" y="583.2129"/><text fill="#000000" font-family="sans-serif" font-size="14" lengthAdjust="spacingAndGlyphs" textLength="40" x="27" y="606.3662">Player</text><rect fill="#FEFECE" filter="url(#f1u9w9uhxm1nkq)" height="33.2295" style="stroke: #A80036; stroke-width: 1.5;" width="98" x="121" y="5"/><text fill="#000000" font-family="sans-serif" font-size="14" lengthAdjust="spacingAndGlyphs" textLength="84" x="128" y="28.1533">GameSystem</text><rect fill="#FEFECE" filter="url(#f1u9w9uhxm1nkq)" height="33.2295" style="stroke: #A80036; stroke-width: 1.5;" width="98" x="121" y="583.2129"/><text fill="#000000" font-family="sans-serif" font-size="14" lengthAdjust="spacingAndGlyphs" textLength="84" x="128" y="606.3662">GameSystem</text><rect fill="#FEFECE" filter="url(#f1u9w9uhxm1nkq)" height="33.2295" style="stroke: #A80036; stroke-width: 1.5;" width="42" x="344" y="5"/><text fill="#000000" font-family="sans-serif" font-size="14" lengthAdjust="spacingAndGlyphs" textLength="28" x="351" y="28.1533">Dice</text><rect fill="#FEFECE" filter="url(#f1u9w9uhxm1nkq)" height="33.2295" style="stroke: #A80036; stroke-width: 1.5;" width="42" x="344" y="583.2129"/><text fill="#000000" font-family="sans-serif" font-size="14" lengthAdjust="spacingAndGlyphs" textLength="28" x="351" y="606.3662">Dice</text><path d="M10,60.2295 L161,60.2295 L161,69.2295 L151,79.2295 L10,79.2295 L10,60.2295 " fill="#EEEEEE" style="stroke: #000000; stroke-width: 1.0;"/><rect fill="none" height="362.5596" style="stroke: #000000; stroke-width: 2.0;" width="410" x="10" y="60.2295"/><text fill="#000000" font-family="sans-serif" font-size="13" font-weight="bold" lengthAdjust="spacingAndGlyphs" textLength="106" x="25" y="76.229">UC01 Play Game</text><polygon fill="#A80036" points="160,99.9414,170,103.9414,160,107.9414,164,103.9414" style="stroke: #A80036; stroke-width: 1.0;"/><line style="stroke: #A80036; stroke-width: 1.0;" x1="49" x2="166" y1="103.9414" y2="103.9414"/><text fill="#000000" font-family="sans-serif" font-size="13" lengthAdjust="spacingAndGlyphs" textLength="99" x="56" y="99.085">playGame(name)</text><line style="stroke: #A80036; stroke-width: 1.0;" x1="172" x2="214" y1="135.7974" y2="135.7974"/><line style="stroke: #A80036; stroke-width: 1.0;" x1="214" x2="214" y1="135.7974" y2="148.7974"/><line style="stroke: #A80036; stroke-width: 1.0;" x1="173" x2="214" y1="148.7974" y2="148.7974"/><polygon fill="#A80036" points="183,144.7974,173,148.7974,183,152.7974,179,148.7974" style="stroke: #A80036; stroke-width: 1.0;"/><text fill="#000000" font-family="sans-serif" font-size="13" lengthAdjust="spacingAndGlyphs" textLength="73" x="179" y="130.9409">diceSetting()</text><path d="M101,163.7974 L186,163.7974 L186,172.7974 L176,182.7974 L101,182.7974 L101,163.7974 " fill="#EEEEEE" style="stroke: #000000; stroke-width: 1.0;"/><rect fill="none" height="207.1357" style="stroke: #000000; stroke-width: 2.0;" width="309" x="101" y="163.7974"/><text fill="#000000" font-family="sans-serif" font-size="13" font-weight="bold" lengthAdjust="spacingAndGlyphs" textLength="40" x="116" y="179.7969">main()</text><path d="M111,190.6533 L243,190.6533 L243,199.6533 L233,209.6533 L111,209.6533 L111,190.6533 " fill="#EEEEEE" style="stroke: #000000; stroke-width: 1.0;"/><rect fill="none" height="83.5679" style="stroke: #000000; stroke-width: 2.0;" width="289" x="111" y="190.6533"/><text fill="#000000" font-family="sans-serif" font-size="13" font-weight="bold" lengthAdjust="spacingAndGlyphs" textLength="87" x="126" y="206.6528">diceRoll(dice)</text><polygon fill="#A80036" points="355,230.3652,365,234.3652,355,238.3652,359,234.3652" style="stroke: #A80036; stroke-width: 1.0;"/><line style="stroke: #A80036; stroke-width: 1.0;" x1="172" x2="361" y1="234.3652" y2="234.3652"/><text fill="#000000" font-family="sans-serif" font-size="13" lengthAdjust="spacingAndGlyphs" textLength="25" x="179" y="229.5088">roll()</text><polygon fill="#A80036" points="183,262.2212,173,266.2212,183,270.2212,179,266.2212" style="stroke: #A80036; stroke-width: 1.0;"/><line style="stroke: #A80036; stroke-width: 1.0; stroke-dasharray: 2.0,2.0;" x1="177" x2="366" y1="266.2212" y2="266.2212"/><text fill="#000000" font-family="sans-serif" font-size="13" lengthAdjust="spacingAndGlyphs" textLength="171" x="189" y="261.3647">Returns the result of the dice.</text><line style="stroke: #A80036; stroke-width: 1.0;" x1="172" x2="214" y1="305.0771" y2="305.0771"/><line style="stroke: #A80036; stroke-width: 1.0;" x1="214" x2="214" y1="305.0771" y2="318.0771"/><line style="stroke: #A80036; stroke-width: 1.0;" x1="173" x2="214" y1="318.0771" y2="318.0771"/><polygon fill="#A80036" points="183,314.0771,173,318.0771,183,322.0771,179,318.0771" style="stroke: #A80036; stroke-width: 1.0;"/><text fill="#000000" font-family="sans-serif" font-size="13" lengthAdjust="spacingAndGlyphs" textLength="101" x="179" y="300.2207">move(dice,player)</text><line style="stroke: #A80036; stroke-width: 1.0; stroke-dasharray: 2.0,2.0;" x1="172" x2="214" y1="349.9331" y2="349.9331"/><line style="stroke: #A80036; stroke-width: 1.0; stroke-dasharray: 2.0,2.0;" x1="214" x2="214" y1="349.9331" y2="362.9331"/><line style="stroke: #A80036; stroke-width: 1.0; stroke-dasharray: 2.0,2.0;" x1="173" x2="214" y1="362.9331" y2="362.9331"/><polygon fill="#A80036" points="183,358.9331,173,362.9331,183,366.9331,179,362.9331" style="stroke: #A80036; stroke-width: 1.0;"/><text fill="#000000" font-family="sans-serif" font-size="13" lengthAdjust="spacingAndGlyphs" textLength="99" x="179" y="345.0767">End of the game.</text><line style="stroke: #A80036; stroke-width: 1.0;" x1="172" x2="214" y1="401.7891" y2="401.7891"/><line style="stroke: #A80036; stroke-width: 1.0;" x1="214" x2="214" y1="401.7891" y2="414.7891"/><line style="stroke: #A80036; stroke-width: 1.0;" x1="173" x2="214" y1="414.7891" y2="414.7891"/><polygon fill="#A80036" points="183,410.7891,173,414.7891,183,418.7891,179,414.7891" style="stroke: #A80036; stroke-width: 1.0;"/><text fill="#000000" font-family="sans-serif" font-size="13" lengthAdjust="spacingAndGlyphs" textLength="63" x="179" y="396.9326">gameEnd()</text><path d="M10,436.7891 L164,436.7891 L164,445.7891 L154,455.7891 L10,455.7891 L10,436.7891 " fill="#EEEEEE" style="stroke: #000000; stroke-width: 1.0;"/><rect fill="none" height="96.5679" style="stroke: #000000; stroke-width: 2.0;" width="223" x="10" y="436.7891"/><text fill="#000000" font-family="sans-serif" font-size="13" font-weight="bold" lengthAdjust="spacingAndGlyphs" textLength="109" x="25" y="452.7886">UC02 View Score</text><polygon fill="#A80036" points="160,476.501,170,480.501,160,484.501,164,480.501" style="stroke: #A80036; stroke-width: 1.0;"/><line style="stroke: #A80036; stroke-width: 1.0;" x1="49" x2="166" y1="480.501" y2="480.501"/><text fill="#000000" font-family="sans-serif" font-size="13" lengthAdjust="spacingAndGlyphs" textLength="74" x="56" y="475.6445">readRecord()</text><line style="stroke: #A80036; stroke-width: 1.0;" x1="172" x2="214" y1="512.3569" y2="512.3569"/><line style="stroke: #A80036; stroke-width: 1.0;" x1="214" x2="214" y1="512.3569" y2="525.3569"/><line style="stroke: #A80036; stroke-width: 1.0;" x1="173" x2="214" y1="525.3569" y2="525.3569"/><polygon fill="#A80036" points="183,521.3569,173,525.3569,183,529.3569,179,525.3569" style="stroke: #A80036; stroke-width: 1.0;"/><text fill="#000000" font-family="sans-serif" font-size="13" lengthAdjust="spacingAndGlyphs" textLength="20" x="179" y="507.5005">null</text><path d="M30,547.3569 L215,547.3569 L215,556.3569 L205,566.3569 L30,566.3569 L30,547.3569 " fill="#EEEEEE" style="stroke: #000000; stroke-width: 1.0;"/><rect fill="none" height="19.856" style="stroke: #000000; stroke-width: 2.0;" width="190" x="30" y="547.3569"/><text fill="#000000" font-family="sans-serif" font-size="13" font-weight="bold" lengthAdjust="spacingAndGlyphs" textLength="140" x="45" y="563.3564">UC03 Configure Game</text><!--MD5=[5e365d266f2e3dedd60fb9c1fab613c2]
@startuml
group UC01 Play Game
	Player->GameSystem : playGame(name)
	GameSystem->GameSystem : diceSetting()
	group main()
		group diceRoll(dice)
			GameSystem->Dice : roll()
		Dice- ->GameSystem : Returns the result of the dice.
		end
		GameSystem->GameSystem : move(dice,player)
	GameSystem- ->GameSystem : End of the game.
	end
	GameSystem->GameSystem : gameEnd()
end
group UC02 View Score
	Player->GameSystem : readRecord()
	GameSystem->GameSystem : null
end
group UC03 Configure Game
end
@enduml

PlantUML version 1.2020.19(Tue Oct 13 00:10:01 KST 2020)
(APACHE source distribution)
Java Runtime: OpenJDK Runtime Environment
JVM: OpenJDK 64-Bit Server VM
Default Encoding: MS949
Language: ko
Country: KR
--></g></svg>