<?xml version="1.0" encoding="UTF-8" standalone="no"?><svg xmlns="http://www.w3.org/2000/svg" xmlns:xlink="http://www.w3.org/1999/xlink" contentScriptType="application/ecmascript" contentStyleType="text/css" height="298px" preserveAspectRatio="none" style="width:300px;height:298px;" version="1.1" viewBox="0 0 300 298" width="300px" zoomAndPan="magnify"><defs><filter height="300%" id="fuj4quxzx7jxu" width="300%" x="-1" y="-1"><feGaussianBlur result="blurOut" stdDeviation="2.0"/><feColorMatrix in="blurOut" result="blurOut2" type="matrix" values="0 0 0 0 0 0 0 0 0 0 0 0 0 0 0 0 0 0 .4 0"/><feOffset dx="4.0" dy="4.0" in="blurOut2" result="blurOut3"/><feBlend in="SourceGraphic" in2="blurOut3" mode="normal"/></filter></defs><g><!--MD5=[9052447a28513dc27dd79eab56d3b0fe]
class GameSystem--><rect codeLine="1" fill="#FEFECE" filter="url(#fuj4quxzx7jxu)" height="138.6533" id="GameSystem" style="stroke: #A80036; stroke-width: 1.5;" width="159" x="23" y="7"/><ellipse cx="61.4" cy="23" fill="#ADD1B2" rx="11" ry="11" style="stroke: #A80036; stroke-width: 1.0;"/><path d="M61.2281,16.4844 Q59.3531,16.4844 58.1969,18.2344 Q57.0094,20.0156 57.0094,23.0156 Q57.0094,26.3906 58.2125,28.1563 Q59.275,29.7813 61.025,29.7813 Q62.7125,29.7813 63.6656,28.875 Q64.7281,27.8594 64.8688,25.625 Q64.8688,25.2031 64.6344,24.9688 Q64.4469,24.7344 64.1031,24.7031 Q63.775,24.7031 63.5406,24.8906 Q63.275,25.125 63.275,25.5156 Q63.2438,26.9063 62.65,27.6406 Q62.1188,28.3438 61.1656,28.3438 Q60.0094,28.3438 59.2906,26.9063 Q58.5719,25.4063 58.5719,22.9844 Q58.5719,20.4375 59.4625,19.0469 Q60.2125,17.9219 61.3531,17.9219 Q62.0094,17.9219 62.5094,18.4688 Q63.0719,19.0781 63.1969,20.1406 Q63.2438,20.8438 64.0719,20.7344 Q64.8531,20.625 64.8063,19.9375 Q64.6188,18.4219 63.8531,17.5469 Q62.9156,16.4844 61.2281,16.4844 Z "/><text fill="#000000" font-family="sans-serif" font-size="12" lengthAdjust="spacingAndGlyphs" textLength="75" x="80.6" y="28.6045">GameSystem</text><line style="stroke: #A80036; stroke-width: 1.5;" x1="24" x2="181" y1="39" y2="39"/><line style="stroke: #A80036; stroke-width: 1.5;" x1="24" x2="181" y1="47" y2="47"/><text fill="#000000" font-family="sans-serif" font-size="11" lengthAdjust="spacingAndGlyphs" textLength="113" x="29" y="63.6919">playGame(String name)</text><text fill="#000000" font-family="sans-serif" font-size="11" lengthAdjust="spacingAndGlyphs" textLength="61" x="29" y="78.8008">diceSetting()</text><text fill="#000000" font-family="sans-serif" font-size="11" lengthAdjust="spacingAndGlyphs" textLength="30" x="29" y="93.9097">main()</text><text fill="#000000" font-family="sans-serif" font-size="11" lengthAdjust="spacingAndGlyphs" textLength="52" x="29" y="109.0186">gameEnd()</text><text fill="#000000" font-family="sans-serif" font-size="11" lengthAdjust="spacingAndGlyphs" textLength="89" x="29" y="124.1274">diceRoll(Dice dice)</text><text fill="#000000" font-family="sans-serif" font-size="11" lengthAdjust="spacingAndGlyphs" textLength="147" x="29" y="139.2363">move(Dice dice, Player player)</text><!--MD5=[f7a9ae25cb0ac60c5f03b7bfd778cce3]
class Dice--><rect codeLine="23" fill="#FEFECE" filter="url(#fuj4quxzx7jxu)" height="78.2178" id="Dice" style="stroke: #A80036; stroke-width: 1.5;" width="79" x="7" y="206"/><ellipse cx="31.9" cy="222" fill="#ADD1B2" rx="11" ry="11" style="stroke: #A80036; stroke-width: 1.0;"/><path d="M31.7281,215.4844 Q29.8531,215.4844 28.6969,217.2344 Q27.5094,219.0156 27.5094,222.0156 Q27.5094,225.3906 28.7125,227.1563 Q29.775,228.7813 31.525,228.7813 Q33.2125,228.7813 34.1656,227.875 Q35.2281,226.8594 35.3688,224.625 Q35.3688,224.2031 35.1344,223.9688 Q34.9469,223.7344 34.6031,223.7031 Q34.275,223.7031 34.0406,223.8906 Q33.775,224.125 33.775,224.5156 Q33.7438,225.9063 33.15,226.6406 Q32.6188,227.3438 31.6656,227.3438 Q30.5094,227.3438 29.7906,225.9063 Q29.0719,224.4063 29.0719,221.9844 Q29.0719,219.4375 29.9625,218.0469 Q30.7125,216.9219 31.8531,216.9219 Q32.5094,216.9219 33.0094,217.4688 Q33.5719,218.0781 33.6969,219.1406 Q33.7438,219.8438 34.5719,219.7344 Q35.3531,219.625 35.3063,218.9375 Q35.1188,217.4219 34.3531,216.5469 Q33.4156,215.4844 31.7281,215.4844 Z "/><text fill="#000000" font-family="sans-serif" font-size="12" lengthAdjust="spacingAndGlyphs" textLength="25" x="48.1" y="227.6045">Dice</text><line style="stroke: #A80036; stroke-width: 1.5;" x1="8" x2="85" y1="238" y2="238"/><text fill="#000000" font-family="sans-serif" font-size="11" lengthAdjust="spacingAndGlyphs" textLength="67" x="13" y="254.6919">int[] shapeList</text><line style="stroke: #A80036; stroke-width: 1.5;" x1="8" x2="85" y1="261.1089" y2="261.1089"/><text fill="#000000" font-family="sans-serif" font-size="11" lengthAdjust="spacingAndGlyphs" textLength="22" x="13" y="277.8008">roll()</text><!--MD5=[4dfc6a72b8dd60daa1b635d583ff79da]
class Map--><rect codeLine="31" fill="#FEFECE" filter="url(#fuj4quxzx7jxu)" height="63.1089" id="Map" style="stroke: #A80036; stroke-width: 1.5;" width="76" x="121.5" y="213.5"/><ellipse cx="145.95" cy="229.5" fill="#ADD1B2" rx="11" ry="11" style="stroke: #A80036; stroke-width: 1.0;"/><path d="M145.7781,222.9844 Q143.9031,222.9844 142.7469,224.7344 Q141.5594,226.5156 141.5594,229.5156 Q141.5594,232.8906 142.7625,234.6563 Q143.825,236.2813 145.575,236.2813 Q147.2625,236.2813 148.2156,235.375 Q149.2781,234.3594 149.4188,232.125 Q149.4188,231.7031 149.1844,231.4688 Q148.9969,231.2344 148.6531,231.2031 Q148.325,231.2031 148.0906,231.3906 Q147.825,231.625 147.825,232.0156 Q147.7938,233.4063 147.2,234.1406 Q146.6688,234.8438 145.7156,234.8438 Q144.5594,234.8438 143.8406,233.4063 Q143.1219,231.9063 143.1219,229.4844 Q143.1219,226.9375 144.0125,225.5469 Q144.7625,224.4219 145.9031,224.4219 Q146.5594,224.4219 147.0594,224.9688 Q147.6219,225.5781 147.7469,226.6406 Q147.7938,227.3438 148.6219,227.2344 Q149.4031,227.125 149.3563,226.4375 Q149.1688,224.9219 148.4031,224.0469 Q147.4656,222.9844 145.7781,222.9844 Z "/><text fill="#000000" font-family="sans-serif" font-size="12" lengthAdjust="spacingAndGlyphs" textLength="23" x="162.05" y="235.1045">Map</text><line style="stroke: #A80036; stroke-width: 1.5;" x1="122.5" x2="196.5" y1="245.5" y2="245.5"/><text fill="#000000" font-family="sans-serif" font-size="11" lengthAdjust="spacingAndGlyphs" textLength="64" x="127.5" y="262.1919">int[] eventList</text><line style="stroke: #A80036; stroke-width: 1.5;" x1="122.5" x2="196.5" y1="268.6089" y2="268.6089"/><!--MD5=[2cb47ba637a0d19583e6199456f6ad0b]
class Player--><rect codeLine="15" fill="#FEFECE" filter="url(#fuj4quxzx7jxu)" height="78.2178" id="Player" style="stroke: #A80036; stroke-width: 1.5;" width="69" x="217" y="37.5"/><ellipse cx="233.35" cy="53.5" fill="#ADD1B2" rx="11" ry="11" style="stroke: #A80036; stroke-width: 1.0;"/><path d="M233.1781,46.9844 Q231.3031,46.9844 230.1469,48.7344 Q228.9594,50.5156 228.9594,53.5156 Q228.9594,56.8906 230.1625,58.6563 Q231.225,60.2813 232.975,60.2813 Q234.6625,60.2813 235.6156,59.375 Q236.6781,58.3594 236.8188,56.125 Q236.8188,55.7031 236.5844,55.4688 Q236.3969,55.2344 236.0531,55.2031 Q235.725,55.2031 235.4906,55.3906 Q235.225,55.625 235.225,56.0156 Q235.1938,57.4063 234.6,58.1406 Q234.0688,58.8438 233.1156,58.8438 Q231.9594,58.8438 231.2406,57.4063 Q230.5219,55.9063 230.5219,53.4844 Q230.5219,50.9375 231.4125,49.5469 Q232.1625,48.4219 233.3031,48.4219 Q233.9594,48.4219 234.4594,48.9688 Q235.0219,49.5781 235.1469,50.6406 Q235.1938,51.3438 236.0219,51.2344 Q236.8031,51.125 236.7563,50.4375 Q236.5688,48.9219 235.8031,48.0469 Q234.8656,46.9844 233.1781,46.9844 Z "/><text fill="#000000" font-family="sans-serif" font-size="12" lengthAdjust="spacingAndGlyphs" textLength="34" x="247.65" y="59.1045">Player</text><line style="stroke: #A80036; stroke-width: 1.5;" x1="218" x2="285" y1="69.5" y2="69.5"/><text fill="#000000" font-family="sans-serif" font-size="11" lengthAdjust="spacingAndGlyphs" textLength="57" x="223" y="86.1919">String name</text><text fill="#000000" font-family="sans-serif" font-size="11" lengthAdjust="spacingAndGlyphs" textLength="32" x="223" y="101.3008">int pos</text><line style="stroke: #A80036; stroke-width: 1.5;" x1="218" x2="285" y1="107.7178" y2="107.7178"/><!--MD5=[4937c2f62d2ee5534486323d880f3c98]
reverse link GameSystem to Dice--><path codeLine="12" d="M75.18,158.74 C69.63,175.23 64.04,191.84 59.3,205.95 " fill="none" id="GameSystem-backto-Dice" style="stroke: #A80036; stroke-width: 1.0;"/><polygon fill="#A80036" points="79.4,146.18,73.6926,150.5874,75.5658,157.551,81.2732,153.1436,79.4,146.18" style="stroke: #A80036; stroke-width: 1.0;"/><!--MD5=[1bbe9902c71b407c827fe2e1c9f440c7]
reverse link GameSystem to Map--><path codeLine="13" d="M130.25,158.57 C136.91,178.03 143.63,197.64 148.94,213.16 " fill="none" id="GameSystem-backto-Map" style="stroke: #A80036; stroke-width: 1.0;"/><polygon fill="#A80036" points="126.01,146.18,124.1707,153.1526,129.8995,157.5322,131.7388,150.5596,126.01,146.18" style="stroke: #A80036; stroke-width: 1.0;"/><!--MD5=[55d968b3d49f13b06be921427005aad4]
@startuml
class GameSystem 
{

	playGame(String name)
	diceSetting()
	main()
	gameEnd()
	diceRoll(Dice dice)
	move(Dice dice, Player player)

}
 GameSystem *- - Dice
 GameSystem *- - Map

class Player 
{
	 String name
	 int pos


}

class Dice 
{
	 int[] shapeList

	roll()

}

class Map 
{
	 int[] eventList


}

@enduml

PlantUML version 1.2020.19(Tue Oct 13 00:10:01 KST 2020)
(APACHE source distribution)
Java Runtime: OpenJDK Runtime Environment
JVM: OpenJDK 64-Bit Server VM
Default Encoding: MS949
Language: ko
Country: KR
--></g></svg>