<?xml version="1.0" encoding="UTF-8" standalone="no"?><svg xmlns="http://www.w3.org/2000/svg" xmlns:xlink="http://www.w3.org/1999/xlink" contentScriptType="application/ecmascript" contentStyleType="text/css" height="313px" preserveAspectRatio="none" style="width:300px;height:313px;" version="1.1" viewBox="0 0 300 313" width="300px" zoomAndPan="magnify"><defs><filter height="300%" id="fnl3e635dn2tg" width="300%" x="-1" y="-1"><feGaussianBlur result="blurOut" stdDeviation="2.0"/><feColorMatrix in="blurOut" result="blurOut2" type="matrix" values="0 0 0 0 0 0 0 0 0 0 0 0 0 0 0 0 0 0 .4 0"/><feOffset dx="4.0" dy="4.0" in="blurOut2" result="blurOut3"/><feBlend in="SourceGraphic" in2="blurOut3" mode="normal"/></filter></defs><g><!--MD5=[9052447a28513dc27dd79eab56d3b0fe]
class GameSystem--><rect codeLine="1" fill="#FEFECE" filter="url(#fnl3e635dn2tg)" height="153.7622" id="GameSystem" style="stroke: #A80036; stroke-width: 1.5;" width="159" x="23" y="7"/><ellipse cx="61.4" cy="23" fill="#ADD1B2" rx="11" ry="11" style="stroke: #A80036; stroke-width: 1.0;"/><path d="M61.2281,16.4844 Q59.3531,16.4844 58.1969,18.2344 Q57.0094,20.0156 57.0094,23.0156 Q57.0094,26.3906 58.2125,28.1563 Q59.275,29.7813 61.025,29.7813 Q62.7125,29.7813 63.6656,28.875 Q64.7281,27.8594 64.8688,25.625 Q64.8688,25.2031 64.6344,24.9688 Q64.4469,24.7344 64.1031,24.7031 Q63.775,24.7031 63.5406,24.8906 Q63.275,25.125 63.275,25.5156 Q63.2438,26.9063 62.65,27.6406 Q62.1188,28.3438 61.1656,28.3438 Q60.0094,28.3438 59.2906,26.9063 Q58.5719,25.4063 58.5719,22.9844 Q58.5719,20.4375 59.4625,19.0469 Q60.2125,17.9219 61.3531,17.9219 Q62.0094,17.9219 62.5094,18.4688 Q63.0719,19.0781 63.1969,20.1406 Q63.2438,20.8438 64.0719,20.7344 Q64.8531,20.625 64.8063,19.9375 Q64.6188,18.4219 63.8531,17.5469 Q62.9156,16.4844 61.2281,16.4844 Z "/><text fill="#000000" font-family="sans-serif" font-size="12" lengthAdjust="spacingAndGlyphs" textLength="75" x="80.6" y="28.6045">GameSystem</text><line style="stroke: #A80036; stroke-width: 1.5;" x1="24" x2="181" y1="39" y2="39"/><line style="stroke: #A80036; stroke-width: 1.5;" x1="24" x2="181" y1="47" y2="47"/><text fill="#000000" font-family="sans-serif" font-size="11" lengthAdjust="spacingAndGlyphs" textLength="113" x="29" y="63.6919">playGame(String name)</text><text fill="#000000" font-family="sans-serif" font-size="11" lengthAdjust="spacingAndGlyphs" textLength="61" x="29" y="78.8008">diceSetting()</text><text fill="#000000" font-family="sans-serif" font-size="11" lengthAdjust="spacingAndGlyphs" textLength="30" x="29" y="93.9097">main()</text><text fill="#000000" font-family="sans-serif" font-size="11" lengthAdjust="spacingAndGlyphs" textLength="52" x="29" y="109.0186">gameEnd()</text><text fill="#000000" font-family="sans-serif" font-size="11" lengthAdjust="spacingAndGlyphs" textLength="89" x="29" y="124.1274">diceRoll(Dice dice)</text><text fill="#000000" font-family="sans-serif" font-size="11" lengthAdjust="spacingAndGlyphs" textLength="147" x="29" y="139.2363">move(Dice dice, Player player)</text><text fill="#000000" font-family="sans-serif" font-size="11" lengthAdjust="spacingAndGlyphs" textLength="58" x="29" y="154.3452">printScore()</text><!--MD5=[f7a9ae25cb0ac60c5f03b7bfd778cce3]
class Dice--><rect codeLine="24" fill="#FEFECE" filter="url(#fnl3e635dn2tg)" height="78.2178" id="Dice" style="stroke: #A80036; stroke-width: 1.5;" width="79" x="7" y="221"/><ellipse cx="31.9" cy="237" fill="#ADD1B2" rx="11" ry="11" style="stroke: #A80036; stroke-width: 1.0;"/><path d="M31.7281,230.4844 Q29.8531,230.4844 28.6969,232.2344 Q27.5094,234.0156 27.5094,237.0156 Q27.5094,240.3906 28.7125,242.1563 Q29.775,243.7813 31.525,243.7813 Q33.2125,243.7813 34.1656,242.875 Q35.2281,241.8594 35.3688,239.625 Q35.3688,239.2031 35.1344,238.9688 Q34.9469,238.7344 34.6031,238.7031 Q34.275,238.7031 34.0406,238.8906 Q33.775,239.125 33.775,239.5156 Q33.7438,240.9063 33.15,241.6406 Q32.6188,242.3438 31.6656,242.3438 Q30.5094,242.3438 29.7906,240.9063 Q29.0719,239.4063 29.0719,236.9844 Q29.0719,234.4375 29.9625,233.0469 Q30.7125,231.9219 31.8531,231.9219 Q32.5094,231.9219 33.0094,232.4688 Q33.5719,233.0781 33.6969,234.1406 Q33.7438,234.8438 34.5719,234.7344 Q35.3531,234.625 35.3063,233.9375 Q35.1188,232.4219 34.3531,231.5469 Q33.4156,230.4844 31.7281,230.4844 Z "/><text fill="#000000" font-family="sans-serif" font-size="12" lengthAdjust="spacingAndGlyphs" textLength="25" x="48.1" y="242.6045">Dice</text><line style="stroke: #A80036; stroke-width: 1.5;" x1="8" x2="85" y1="253" y2="253"/><text fill="#000000" font-family="sans-serif" font-size="11" lengthAdjust="spacingAndGlyphs" textLength="67" x="13" y="269.6919">int[] shapeList</text><line style="stroke: #A80036; stroke-width: 1.5;" x1="8" x2="85" y1="276.1089" y2="276.1089"/><text fill="#000000" font-family="sans-serif" font-size="11" lengthAdjust="spacingAndGlyphs" textLength="22" x="13" y="292.8008">roll()</text><!--MD5=[4dfc6a72b8dd60daa1b635d583ff79da]
class Map--><rect codeLine="32" fill="#FEFECE" filter="url(#fnl3e635dn2tg)" height="63.1089" id="Map" style="stroke: #A80036; stroke-width: 1.5;" width="76" x="121.5" y="228.5"/><ellipse cx="145.95" cy="244.5" fill="#ADD1B2" rx="11" ry="11" style="stroke: #A80036; stroke-width: 1.0;"/><path d="M145.7781,237.9844 Q143.9031,237.9844 142.7469,239.7344 Q141.5594,241.5156 141.5594,244.5156 Q141.5594,247.8906 142.7625,249.6563 Q143.825,251.2813 145.575,251.2813 Q147.2625,251.2813 148.2156,250.375 Q149.2781,249.3594 149.4188,247.125 Q149.4188,246.7031 149.1844,246.4688 Q148.9969,246.2344 148.6531,246.2031 Q148.325,246.2031 148.0906,246.3906 Q147.825,246.625 147.825,247.0156 Q147.7938,248.4063 147.2,249.1406 Q146.6688,249.8438 145.7156,249.8438 Q144.5594,249.8438 143.8406,248.4063 Q143.1219,246.9063 143.1219,244.4844 Q143.1219,241.9375 144.0125,240.5469 Q144.7625,239.4219 145.9031,239.4219 Q146.5594,239.4219 147.0594,239.9688 Q147.6219,240.5781 147.7469,241.6406 Q147.7938,242.3438 148.6219,242.2344 Q149.4031,242.125 149.3563,241.4375 Q149.1688,239.9219 148.4031,239.0469 Q147.4656,237.9844 145.7781,237.9844 Z "/><text fill="#000000" font-family="sans-serif" font-size="12" lengthAdjust="spacingAndGlyphs" textLength="23" x="162.05" y="250.1045">Map</text><line style="stroke: #A80036; stroke-width: 1.5;" x1="122.5" x2="196.5" y1="260.5" y2="260.5"/><text fill="#000000" font-family="sans-serif" font-size="11" lengthAdjust="spacingAndGlyphs" textLength="64" x="127.5" y="277.1919">int[] eventList</text><line style="stroke: #A80036; stroke-width: 1.5;" x1="122.5" x2="196.5" y1="283.6089" y2="283.6089"/><!--MD5=[2cb47ba637a0d19583e6199456f6ad0b]
class Player--><rect codeLine="16" fill="#FEFECE" filter="url(#fnl3e635dn2tg)" height="78.2178" id="Player" style="stroke: #A80036; stroke-width: 1.5;" width="69" x="217" y="45"/><ellipse cx="233.35" cy="61" fill="#ADD1B2" rx="11" ry="11" style="stroke: #A80036; stroke-width: 1.0;"/><path d="M233.1781,54.4844 Q231.3031,54.4844 230.1469,56.2344 Q228.9594,58.0156 228.9594,61.0156 Q228.9594,64.3906 230.1625,66.1563 Q231.225,67.7813 232.975,67.7813 Q234.6625,67.7813 235.6156,66.875 Q236.6781,65.8594 236.8188,63.625 Q236.8188,63.2031 236.5844,62.9688 Q236.3969,62.7344 236.0531,62.7031 Q235.725,62.7031 235.4906,62.8906 Q235.225,63.125 235.225,63.5156 Q235.1938,64.9063 234.6,65.6406 Q234.0688,66.3438 233.1156,66.3438 Q231.9594,66.3438 231.2406,64.9063 Q230.5219,63.4063 230.5219,60.9844 Q230.5219,58.4375 231.4125,57.0469 Q232.1625,55.9219 233.3031,55.9219 Q233.9594,55.9219 234.4594,56.4688 Q235.0219,57.0781 235.1469,58.1406 Q235.1938,58.8438 236.0219,58.7344 Q236.8031,58.625 236.7563,57.9375 Q236.5688,56.4219 235.8031,55.5469 Q234.8656,54.4844 233.1781,54.4844 Z "/><text fill="#000000" font-family="sans-serif" font-size="12" lengthAdjust="spacingAndGlyphs" textLength="34" x="247.65" y="66.6045">Player</text><line style="stroke: #A80036; stroke-width: 1.5;" x1="218" x2="285" y1="77" y2="77"/><text fill="#000000" font-family="sans-serif" font-size="11" lengthAdjust="spacingAndGlyphs" textLength="57" x="223" y="93.6919">String name</text><text fill="#000000" font-family="sans-serif" font-size="11" lengthAdjust="spacingAndGlyphs" textLength="32" x="223" y="108.8008">int pos</text><line style="stroke: #A80036; stroke-width: 1.5;" x1="218" x2="285" y1="115.2178" y2="115.2178"/><!--MD5=[4937c2f62d2ee5534486323d880f3c98]
reverse link GameSystem to Dice--><path codeLine="13" d="M73.95,173.72 C68.61,190.31 63.3,206.81 58.79,220.81 " fill="none" id="GameSystem-backto-Dice" style="stroke: #A80036; stroke-width: 1.0;"/><polygon fill="#A80036" points="78.02,161.07,72.3775,165.5602,74.3522,172.4957,79.9947,168.0055,78.02,161.07" style="stroke: #A80036; stroke-width: 1.0;"/><!--MD5=[1bbe9902c71b407c827fe2e1c9f440c7]
reverse link GameSystem to Map--><path codeLine="14" d="M131.55,173.67 C138.01,193.4 144.44,213.02 149.5,228.46 " fill="none" id="GameSystem-backto-Map" style="stroke: #A80036; stroke-width: 1.0;"/><polygon fill="#A80036" points="127.42,161.07,125.4912,168.0184,131.1633,172.4712,133.0921,165.5228,127.42,161.07" style="stroke: #A80036; stroke-width: 1.0;"/><!--MD5=[4be34748650a740f599845516bceeec4]
@startuml
class GameSystem 
{

	playGame(String name)
	diceSetting()
	main()
	gameEnd()
	diceRoll(Dice dice)
	move(Dice dice, Player player)
	printScore()

}
 GameSystem *- - Dice
 GameSystem *- - Map

class Player 
{
	 String name
	 int pos


}

class Dice 
{
	 int[] shapeList

	roll()

}

class Map 
{
	 int[] eventList


}

@enduml

PlantUML version 1.2020.19(Tue Oct 13 00:10:01 KST 2020)
(APACHE source distribution)
Java Runtime: OpenJDK Runtime Environment
JVM: OpenJDK 64-Bit Server VM
Default Encoding: MS949
Language: ko
Country: KR
--></g></svg>