<?xml version="1.0" encoding="UTF-8" standalone="no"?><svg xmlns="http://www.w3.org/2000/svg" xmlns:xlink="http://www.w3.org/1999/xlink" contentScriptType="application/ecmascript" contentStyleType="text/css" height="671px" preserveAspectRatio="none" style="width:469px;height:671px;" version="1.1" viewBox="0 0 469 671" width="469px" zoomAndPan="magnify"><defs><filter height="300%" id="f1j6fuiy4yrguw" width="300%" x="-1" y="-1"><feGaussianBlur result="blurOut" stdDeviation="2.0"/><feColorMatrix in="blurOut" result="blurOut2" type="matrix" values="0 0 0 0 0 0 0 0 0 0 0 0 0 0 0 0 0 0 .4 0"/><feOffset dx="4.0" dy="4.0" in="blurOut2" result="blurOut3"/><feBlend in="SourceGraphic" in2="blurOut3" mode="normal"/></filter></defs><g><rect fill="#FFFFFF" filter="url(#f1j6fuiy4yrguw)" height="548.2715" style="stroke: #000000; stroke-width: 2.0;" width="445" x="10" y="60.2295"/><rect fill="#FFFFFF" filter="url(#f1j6fuiy4yrguw)" height="168.4238" style="stroke: #000000; stroke-width: 2.0;" width="196" x="20" y="87.0854"/><rect fill="#FFFFFF" filter="url(#f1j6fuiy4yrguw)" height="91.7119" style="stroke: #000000; stroke-width: 2.0;" width="324" x="20" y="314.3652"/><rect fill="#FFFFFF" filter="url(#f1j6fuiy4yrguw)" height="91.7119" style="stroke: #000000; stroke-width: 2.0;" width="203" x="20" y="420.0771"/><line style="stroke: #A80036; stroke-width: 1.0; stroke-dasharray: 5.0,5.0;" x1="50" x2="50" y1="43.2295" y2="625.501"/><line style="stroke: #A80036; stroke-width: 1.0; stroke-dasharray: 5.0,5.0;" x1="178" x2="178" y1="43.2295" y2="625.501"/><line style="stroke: #A80036; stroke-width: 1.0; stroke-dasharray: 5.0,5.0;" x1="270" x2="270" y1="43.2295" y2="625.501"/><rect fill="#FEFECE" filter="url(#f1j6fuiy4yrguw)" height="33.2295" style="stroke: #A80036; stroke-width: 1.5;" width="36" x="30" y="5"/><text fill="#000000" font-family="sans-serif" font-size="14" lengthAdjust="spacingAndGlyphs" textLength="22" x="37" y="28.1533">null</text><rect fill="#FEFECE" filter="url(#f1j6fuiy4yrguw)" height="33.2295" style="stroke: #A80036; stroke-width: 1.5;" width="36" x="30" y="624.501"/><text fill="#000000" font-family="sans-serif" font-size="14" lengthAdjust="spacingAndGlyphs" textLength="22" x="37" y="647.6543">null</text><rect fill="#FEFECE" filter="url(#f1j6fuiy4yrguw)" height="33.2295" style="stroke: #A80036; stroke-width: 1.5;" width="46" x="153" y="5"/><text fill="#000000" font-family="sans-serif" font-size="14" lengthAdjust="spacingAndGlyphs" textLength="32" x="160" y="28.1533">actor</text><rect fill="#FEFECE" filter="url(#f1j6fuiy4yrguw)" height="33.2295" style="stroke: #A80036; stroke-width: 1.5;" width="46" x="153" y="624.501"/><text fill="#000000" font-family="sans-serif" font-size="14" lengthAdjust="spacingAndGlyphs" textLength="32" x="160" y="647.6543">actor</text><rect fill="#FEFECE" filter="url(#f1j6fuiy4yrguw)" height="33.2295" style="stroke: #A80036; stroke-width: 1.5;" width="110" x="213" y="5"/><text fill="#000000" font-family="sans-serif" font-size="14" lengthAdjust="spacingAndGlyphs" textLength="96" x="220" y="28.1533">EMAILSERVER</text><rect fill="#FEFECE" filter="url(#f1j6fuiy4yrguw)" height="33.2295" style="stroke: #A80036; stroke-width: 1.5;" width="110" x="213" y="624.501"/><text fill="#000000" font-family="sans-serif" font-size="14" lengthAdjust="spacingAndGlyphs" textLength="96" x="220" y="647.6543">EMAILSERVER</text><path d="M10,60.2295 L450,60.2295 L450,69.2295 L440,79.2295 L10,79.2295 L10,60.2295 " fill="#EEEEEE" style="stroke: #000000; stroke-width: 1.0;"/><rect fill="none" height="548.2715" style="stroke: #000000; stroke-width: 2.0;" width="445" x="10" y="60.2295"/><text fill="#000000" font-family="sans-serif" font-size="13" font-weight="bold" lengthAdjust="spacingAndGlyphs" textLength="395" x="25" y="76.229">UC-P2P-SEND-EMAIL "P2P / CORP, Sending e-mails on the go"</text><path d="M20,87.0854 L211,87.0854 L211,96.0854 L201,106.0854 L20,106.0854 L20,87.0854 " fill="#EEEEEE" style="stroke: #000000; stroke-width: 1.0;"/><rect fill="none" height="168.4238" style="stroke: #000000; stroke-width: 2.0;" width="196" x="20" y="87.0854"/><text fill="#000000" font-family="sans-serif" font-size="13" font-weight="bold" lengthAdjust="spacingAndGlyphs" textLength="146" x="35" y="103.085">completeComposition()</text><line style="stroke: #A80036; stroke-width: 1.0;" x1="50" x2="92" y1="130.7974" y2="130.7974"/><line style="stroke: #A80036; stroke-width: 1.0;" x1="92" x2="92" y1="130.7974" y2="143.7974"/><line style="stroke: #A80036; stroke-width: 1.0;" x1="51" x2="92" y1="143.7974" y2="143.7974"/><polygon fill="#A80036" points="61,139.7974,51,143.7974,61,147.7974,57,143.7974" style="stroke: #A80036; stroke-width: 1.0;"/><text fill="#000000" font-family="sans-serif" font-size="13" lengthAdjust="spacingAndGlyphs" textLength="54" x="57" y="125.9409">editMsg()</text><line style="stroke: #A80036; stroke-width: 1.0;" x1="50" x2="92" y1="175.6533" y2="175.6533"/><line style="stroke: #A80036; stroke-width: 1.0;" x1="92" x2="92" y1="175.6533" y2="188.6533"/><line style="stroke: #A80036; stroke-width: 1.0;" x1="51" x2="92" y1="188.6533" y2="188.6533"/><polygon fill="#A80036" points="61,184.6533,51,188.6533,61,192.6533,57,188.6533" style="stroke: #A80036; stroke-width: 1.0;"/><text fill="#000000" font-family="sans-serif" font-size="13" lengthAdjust="spacingAndGlyphs" textLength="114" x="57" y="170.7969">attachFile(file : File)</text><line style="stroke: #A80036; stroke-width: 1.0;" x1="50" x2="92" y1="220.5093" y2="220.5093"/><line style="stroke: #A80036; stroke-width: 1.0;" x1="92" x2="92" y1="220.5093" y2="233.5093"/><line style="stroke: #A80036; stroke-width: 1.0;" x1="51" x2="92" y1="233.5093" y2="233.5093"/><polygon fill="#A80036" points="61,229.5093,51,233.5093,61,237.5093,57,233.5093" style="stroke: #A80036; stroke-width: 1.0;"/><text fill="#000000" font-family="sans-serif" font-size="13" lengthAdjust="spacingAndGlyphs" textLength="42" x="57" y="215.6528">reEdit()</text><polygon fill="#A80036" points="166,243.5093,176,247.5093,166,251.5093,170,247.5093" style="stroke: #A80036; stroke-width: 1.0;"/><line style="stroke: #A80036; stroke-width: 1.0; stroke-dasharray: 2.0,2.0;" x1="50" x2="172" y1="247.5093" y2="247.5093"/><line style="stroke: #A80036; stroke-width: 1.0;" x1="270" x2="312" y1="286.3652" y2="286.3652"/><line style="stroke: #A80036; stroke-width: 1.0;" x1="312" x2="312" y1="286.3652" y2="299.3652"/><line style="stroke: #A80036; stroke-width: 1.0;" x1="271" x2="312" y1="299.3652" y2="299.3652"/><polygon fill="#A80036" points="281,295.3652,271,299.3652,281,303.3652,277,299.3652" style="stroke: #A80036; stroke-width: 1.0;"/><text fill="#000000" font-family="sans-serif" font-size="13" lengthAdjust="spacingAndGlyphs" textLength="141" x="277" y="281.5088">sendEmail(target : Addr)</text><path d="M20,314.3652 L339,314.3652 L339,323.3652 L329,333.3652 L20,333.3652 L20,314.3652 " fill="#EEEEEE" style="stroke: #000000; stroke-width: 1.0;"/><rect fill="none" height="91.7119" style="stroke: #000000; stroke-width: 2.0;" width="324" x="20" y="314.3652"/><text fill="#000000" font-family="sans-serif" font-size="13" font-weight="bold" lengthAdjust="spacingAndGlyphs" textLength="274" x="35" y="330.3647">"upLoadEmail(mail : EMail  , target : Addr)"</text><line style="stroke: #A80036; stroke-width: 1.0;" x1="50" x2="92" y1="358.0771" y2="358.0771"/><line style="stroke: #A80036; stroke-width: 1.0;" x1="92" x2="92" y1="358.0771" y2="371.0771"/><line style="stroke: #A80036; stroke-width: 1.0;" x1="51" x2="92" y1="371.0771" y2="371.0771"/><polygon fill="#A80036" points="61,367.0771,51,371.0771,61,375.0771,57,371.0771" style="stroke: #A80036; stroke-width: 1.0;"/><text fill="#000000" font-family="sans-serif" font-size="13" lengthAdjust="spacingAndGlyphs" textLength="111" x="57" y="353.2207">while(!connection())</text><line style="stroke: #A80036; stroke-width: 1.0; stroke-dasharray: 2.0,2.0;" x1="50" x2="92" y1="385.0771" y2="385.0771"/><line style="stroke: #A80036; stroke-width: 1.0; stroke-dasharray: 2.0,2.0;" x1="92" x2="92" y1="385.0771" y2="398.0771"/><line style="stroke: #A80036; stroke-width: 1.0; stroke-dasharray: 2.0,2.0;" x1="51" x2="92" y1="398.0771" y2="398.0771"/><polygon fill="#A80036" points="61,394.0771,51,398.0771,61,402.0771,57,398.0771" style="stroke: #A80036; stroke-width: 1.0;"/><path d="M20,420.0771 L218,420.0771 L218,429.0771 L208,439.0771 L20,439.0771 L20,420.0771 " fill="#EEEEEE" style="stroke: #000000; stroke-width: 1.0;"/><rect fill="none" height="91.7119" style="stroke: #000000; stroke-width: 2.0;" width="203" x="20" y="420.0771"/><text fill="#000000" font-family="sans-serif" font-size="13" font-weight="bold" lengthAdjust="spacingAndGlyphs" textLength="153" x="35" y="436.0767">sendEmail(target : Addr)</text><line style="stroke: #A80036; stroke-width: 1.0;" x1="50" x2="92" y1="463.7891" y2="463.7891"/><line style="stroke: #A80036; stroke-width: 1.0;" x1="92" x2="92" y1="463.7891" y2="476.7891"/><line style="stroke: #A80036; stroke-width: 1.0;" x1="51" x2="92" y1="476.7891" y2="476.7891"/><polygon fill="#A80036" points="61,472.7891,51,476.7891,61,480.7891,57,476.7891" style="stroke: #A80036; stroke-width: 1.0;"/><text fill="#000000" font-family="sans-serif" font-size="13" lengthAdjust="spacingAndGlyphs" textLength="103" x="57" y="458.9326">save(mail : EMail)</text><line style="stroke: #A80036; stroke-width: 1.0; stroke-dasharray: 2.0,2.0;" x1="50" x2="92" y1="490.7891" y2="490.7891"/><line style="stroke: #A80036; stroke-width: 1.0; stroke-dasharray: 2.0,2.0;" x1="92" x2="92" y1="490.7891" y2="503.7891"/><line style="stroke: #A80036; stroke-width: 1.0; stroke-dasharray: 2.0,2.0;" x1="51" x2="92" y1="503.7891" y2="503.7891"/><polygon fill="#A80036" points="61,499.7891,51,503.7891,61,507.7891,57,503.7891" style="stroke: #A80036; stroke-width: 1.0;"/><line style="stroke: #A80036; stroke-width: 1.0;" x1="50" x2="92" y1="542.645" y2="542.645"/><line style="stroke: #A80036; stroke-width: 1.0;" x1="92" x2="92" y1="542.645" y2="555.645"/><line style="stroke: #A80036; stroke-width: 1.0;" x1="51" x2="92" y1="555.645" y2="555.645"/><polygon fill="#A80036" points="61,551.645,51,555.645,61,559.645,57,555.645" style="stroke: #A80036; stroke-width: 1.0;"/><text fill="#000000" font-family="sans-serif" font-size="13" lengthAdjust="spacingAndGlyphs" textLength="103" x="57" y="537.7886">save(mail : EMail)</text><line style="stroke: #A80036; stroke-width: 1.0;" x1="270" x2="312" y1="587.501" y2="587.501"/><line style="stroke: #A80036; stroke-width: 1.0;" x1="312" x2="312" y1="587.501" y2="600.501"/><line style="stroke: #A80036; stroke-width: 1.0;" x1="271" x2="312" y1="600.501" y2="600.501"/><polygon fill="#A80036" points="281,596.501,271,600.501,281,604.501,277,600.501" style="stroke: #A80036; stroke-width: 1.0;"/><text fill="#000000" font-family="sans-serif" font-size="13" lengthAdjust="spacingAndGlyphs" textLength="128" x="277" y="582.6445">fiterEmail(mail : EMai)</text><!--MD5=[725d70c67dc5d82a103a136a685ddfb4]
@startuml
group UC-P2P-SEND-EMAIL "P2P / CORP, Sending e-mails on the go"
	group completeComposition()
		null->null : editMsg()
		null->null : attachFile(file : File)
		null->null : reEdit()
	null- ->actor : 
	end
	EMAILSERVER->EMAILSERVER : sendEmail(target : Addr)
	group "upLoadEmail(mail : EMail  , target : Addr)"
		null->null : while(!connection())
	null- ->null : 
	end
	group sendEmail(target : Addr)
		null->null : save(mail : EMail)
	null- ->null : 
	end
	null->null : save(mail : EMail)
	EMAILSERVER->EMAILSERVER : fiterEmail(mail : EMai)
end
@enduml

PlantUML version 1.2020.19(Tue Oct 13 00:10:01 KST 2020)
(APACHE source distribution)
Java Runtime: OpenJDK Runtime Environment
JVM: OpenJDK 64-Bit Server VM
Default Encoding: MS949
Language: ko
Country: KR
--></g></svg>